<svg width="673" height="673" viewBox="0 0 673 673" fill="none" xmlns="http://www.w3.org/2000/svg">
<rect width="673" height="673" rx="336.5" fill="#FAF9FF"/>
<path d="M363.825 637.775C345.432 637.775 326.964 637.775 308.571 637.775C308.347 636.952 307.674 637.102 307.075 637.027C281.729 634.483 257.13 628.872 233.353 619.969C169.575 595.953 119.106 555.178 83.3667 497.196C39.552 426.271 27.5142 349.51 47.0289 268.708C65.0482 194.042 106.994 135.162 170.248 91.9185C215.11 61.3188 265.055 44.7845 319.263 41.4926C357.32 39.1733 394.48 43.8119 430.519 56.0069C502.297 80.2472 557.402 125.361 595.684 190.675C615.348 224.118 627.461 260.254 632.769 298.71C633.367 302.899 633.143 307.313 634.788 311.279C634.788 330.431 634.788 349.659 634.788 368.812C633.592 369.186 634.04 370.234 633.966 371.057C632.769 381.082 631.349 391.032 629.255 400.833C618.713 450.511 597.254 494.952 564.131 533.332C514.933 590.566 452.725 624.757 377.882 635.68C373.246 636.428 368.386 636.204 363.825 637.775ZM360.161 200.476C362.405 201.224 364.124 200.177 365.844 199.803C381.022 195.987 396.275 194.865 411.677 197.783C433.659 201.973 452.277 211.624 464.614 231.151C472.464 243.57 477.025 257.187 477.549 271.925C478.521 296.914 470.894 318.835 452.277 336.043C440.314 347.115 425.435 352.876 409.733 356.542C387.527 361.705 365.769 360.807 345.208 349.809C333.693 343.674 324.048 335.07 314.328 326.541C310.216 322.95 309.393 323.1 306.328 327.663C305.057 329.534 304.234 331.629 303.786 333.798C302.515 339.709 302.739 345.619 303.337 351.679C306.851 350.557 310.141 349.36 313.73 349.51C320.235 349.809 323.674 353.849 322.927 360.358C322.328 365.67 318.889 368.737 314.328 370.159C299.972 374.722 286.514 372.553 274.701 363.126C268.943 358.562 267.298 352.203 268.943 344.946C269.691 341.654 271.635 340.457 274.775 340.457C277.542 340.532 280.159 341.429 282.701 342.402C283.748 342.776 284.869 343.3 285.168 341.579C286.364 335.295 288.009 328.935 286.065 322.576C285.093 322.277 284.57 322.95 283.897 323.324C255.709 339.484 226.549 340.906 196.791 328.636C175.033 319.658 160.453 303.872 156.266 279.931C156.192 279.557 156.042 279.482 155.444 279.931C153.201 283.447 151.257 287.412 149.462 291.527C131.892 331.329 123.592 373.077 122.77 416.47C122.097 450.511 123.667 484.403 127.929 518.145C128.228 520.239 129.125 521.81 130.546 523.307C144.677 538.943 160.154 553.158 177.501 565.204C238.961 607.849 306.627 623.635 380.573 612.487C422.743 606.128 461.025 590.043 495.867 565.578C523.607 546.051 546.934 522.185 566.075 494.129C567.645 491.809 567.945 489.939 566.599 487.395C563.683 482.233 561.141 476.771 558.225 471.609C542.523 443.254 525.924 415.348 512.092 385.945C508.802 378.987 504.914 372.179 503.793 364.473C502.297 353.999 498.409 344.721 492.353 336.043C487.942 329.683 486.446 322.426 487.344 314.72C487.717 311.503 487.717 308.286 487.568 304.994C485.624 276.564 483.755 248.134 481.736 219.704C480.39 201.374 477.025 183.493 469.399 166.585C468.352 164.265 467.231 163.517 464.614 163.817C452.95 165.163 441.51 167.333 430.22 170.4C405.546 177.209 382.592 187.608 360.161 200.476ZM105.274 489.939C105.274 483.505 105.498 477.819 105.199 472.058C104.302 452.232 104.825 432.48 106.022 412.729C107.068 395.746 108.713 378.763 111.181 361.929C113.05 349.135 115.069 336.417 118.134 323.848C121.947 308.286 129.35 294.221 136.303 280.006C145.574 261.152 156.79 243.346 168.529 225.914C183.109 204.142 200.38 185.064 221.839 169.802C247.111 151.771 275 138.23 302.066 123.491C309.842 119.226 313.132 120.573 317.618 128.204C327.487 144.888 335.114 162.619 342.74 180.351C343.787 182.745 344.535 183.343 347.002 182.221C358.367 176.909 369.881 172.121 381.62 168.006C398.817 162.021 416.014 156.111 433.36 150.35C446.295 146.01 459.23 141.746 472.838 139.95C480.465 138.978 484.577 140.923 487.344 147.282C488.166 149.227 488.689 151.247 489.287 153.268C491.979 162.769 492.951 172.495 494.671 182.146C496.241 191.05 498.185 199.953 499.456 208.931C502.522 230.103 503.045 251.576 503.793 272.898C504.466 290.33 504.914 307.687 507.083 325.045C507.232 326.092 506.783 327.514 508.354 327.738C512.167 328.262 512.242 331.404 512.989 334.098C513.737 336.94 514.26 339.933 515.083 342.776C520.69 361.48 528.84 379.062 537.813 396.344C550.673 421.034 564.729 445.049 577.066 469.963C577.515 470.786 577.515 472.208 578.636 472.208C579.683 472.208 579.908 470.936 580.431 470.038C586.786 458.666 592.02 446.77 596.432 434.5C604.507 411.981 609.591 388.788 611.909 364.922C614.152 341.579 613.18 318.461 609.591 295.418C606.525 275.891 601.217 256.962 593.964 238.483C582.225 208.556 565.776 181.548 544.617 157.457C524.578 134.713 501.55 115.486 475.081 100.373C446.893 84.2873 416.986 73.0649 384.91 67.6033C360.386 63.4137 335.862 62.1418 311.038 64.6107C291.897 66.4811 273.13 69.9226 254.887 75.6835C226.998 84.5866 200.829 97.2304 176.977 114.363C144.378 137.781 117.985 166.734 97.7971 201.524C76.787 237.809 64.9735 276.789 61.4593 318.461C59.6649 339.858 60.7116 361.256 63.9267 382.429C68.4129 411.457 77.3851 439.064 90.7688 465.175C95.0306 473.554 99.5168 481.784 105.274 489.939ZM461.249 272.599C461.249 266.614 460.501 260.703 457.885 255.167C450.258 239.081 438.519 226.961 422.369 219.405C405.397 211.474 388.125 212.597 370.779 218.058C349.245 224.717 332.123 236.687 323.226 258.234C319.039 268.26 315.749 278.659 317.992 289.732C321.88 309.558 333.394 323.997 350.815 333.574C370.779 344.497 391.564 343.824 412.5 336.641C441.585 326.616 460.202 302.151 461.249 272.599ZM237.839 321.903C243.447 321.903 252.868 320.257 261.691 316.216C281.355 307.164 292.645 290.704 300.421 271.402C303.262 264.369 304.832 256.888 302.515 249.481C297.804 234.143 289.056 221.724 273.953 215.065C258.251 208.182 241.503 205.863 224.456 206.312C216.007 206.536 208.306 209.23 201.651 214.392C188.043 224.866 178.249 238.034 173.762 254.793C167.183 279.183 176.604 301.029 198.735 313.224C209.577 319.134 221.39 321.828 237.839 321.903ZM224.157 192.172C236.419 191.274 247.634 191.05 258.775 192.546C280.084 195.464 298.477 202.87 307.748 224.417C309.393 228.158 311.935 231.45 315.151 234.143C315.973 234.817 316.646 236.089 317.767 234.368C323.599 225.839 329.88 217.759 337.88 210.876C332.497 209.23 329.132 206.387 327.786 201C326.291 194.865 324.123 188.88 322.104 182.895C317.992 170.475 313.431 158.28 305.505 147.656C304.01 145.636 302.739 145.187 300.272 146.085C281.28 153.043 263.485 162.245 246.886 173.917C239.185 179.378 231.783 185.139 224.157 192.172Z" fill="#27187E"/>
<path d="M395.967 291.674C395.892 297.957 391.406 302.147 384.902 302.073C378.173 301.998 372.789 296.611 372.789 290.028C372.789 284.193 377.201 279.479 382.584 279.404C389.611 279.404 395.967 285.24 395.967 291.674Z" fill="#27187E"/>
<path d="M264.52 274.243C264.371 280.901 259.738 286.288 254.206 286.288C248.449 286.213 243.44 280.453 243.59 274.094C243.739 267.96 247.851 264.145 253.907 264.369C260.71 264.668 264.67 268.333 264.52 274.243Z" fill="#27187E"/>
</svg>
