<svg width="100" height="100" viewBox="0 0 100 100" fill="none" xmlns="http://www.w3.org/2000/svg">
<g clip-path="url(#clip0_2971_2091)">
<path d="M50 58.3333C45.4167 58.3333 41.6667 54.5833 41.6667 50C41.6667 45.4167 45.4167 41.6667 50 41.6667C54.5833 41.6667 58.3333 45.4167 58.3333 50C58.3333 54.5833 54.5833 58.3333 50 58.3333ZM50 45.8333C47.7083 45.8333 45.8333 47.7083 45.8333 50C45.8333 52.2917 47.7083 54.1667 50 54.1667C52.2917 54.1667 54.1667 52.2917 54.1667 50C54.1667 47.7083 52.2917 45.8333 50 45.8333ZM17.5833 82.4167C-0.291668 64.5417 -0.291668 35.4583 17.5833 17.5833L14.625 14.625C-4.83333 34.125 -4.83333 65.875 14.625 85.375L17.5833 82.4167ZM85.375 14.625L82.4167 17.5833C100.292 35.4583 100.292 64.5417 82.4167 82.4167L85.375 85.375C104.875 65.875 104.875 34.1667 85.375 14.6667V14.625ZM32.3333 67.6667C27.6501 62.9715 25.0201 56.6107 25.0201 49.9792C25.0201 43.3477 27.6501 36.9868 32.3333 32.2917L29.375 29.3333C23.875 34.8333 20.8333 42.1667 20.8333 49.9583C20.8333 57.75 23.875 65.0833 29.375 70.5833L32.3333 67.625V67.6667ZM70.625 29.375L67.6667 32.3333C72.3499 37.0285 74.9799 43.3893 74.9799 50.0208C74.9799 56.6523 72.3499 63.0132 67.6667 67.7083L70.625 70.6667C76.0883 65.193 79.1567 57.7753 79.1567 50.0417C79.1567 42.308 76.0883 34.8904 70.625 29.4167V29.375Z" fill="#A29BCA"/>
</g>
<defs>
<clipPath id="clip0_2971_2091">
<rect width="100" height="100" fill="white"/>
</clipPath>
</defs>
</svg>
