<svg width="32" height="32" viewBox="0 0 32 32" fill="none" xmlns="http://www.w3.org/2000/svg">
<path d="M21.5867 2.6665H10.4134C5.56002 2.6665 2.66669 5.55984 2.66669 10.4132V21.5732C2.66669 26.4398 5.56002 29.3332 10.4134 29.3332H21.5734C26.4267 29.3332 29.32 26.4398 29.32 21.5865V10.4132C29.3334 5.55984 26.44 2.6665 21.5867 2.6665ZM22.5067 19.1065C22.5067 19.2265 22.48 19.3465 22.44 19.4665C22.3467 19.6932 22.16 19.8798 21.9334 19.9732C21.8134 20.0265 21.6934 20.0398 21.5734 20.0398H19.0934C18.5734 20.0398 18.16 19.6265 18.16 19.1065C18.16 18.5865 18.5734 18.1732 19.0934 18.1732H19.3334L16.52 15.3598L15.16 17.3865C15 17.6132 14.76 17.7732 14.48 17.7998C14.2 17.8265 13.9334 17.7332 13.7334 17.5332L9.76002 13.5598C9.40002 13.1998 9.40002 12.6132 9.76002 12.2398C10.12 11.8665 10.7067 11.8798 11.08 12.2398L14.2534 15.4132L15.6134 13.3865C15.7734 13.1598 16.0134 12.9998 16.2934 12.9732C16.5867 12.9465 16.84 13.0398 17.04 13.2398L20.6667 16.8665V16.6265C20.6667 16.1065 21.08 15.6932 21.6 15.6932C22.12 15.6932 22.5334 16.1065 22.5334 16.6265V19.1065H22.5067Z" fill="url(#paint0_linear_27_103)"/>
<defs>
<linearGradient id="paint0_linear_27_103" x1="15.9864" y1="31.7234" x2="16.005" y2="-21.8777" gradientUnits="userSpaceOnUse">
<stop stop-color="#27187E"/>
<stop offset="1" stop-color="#C4BAFF" stop-opacity="0.1"/>
</linearGradient>
</defs>
</svg>
