<svg width="100" height="100" viewBox="0 0 100 100" fill="none" xmlns="http://www.w3.org/2000/svg">
<path d="M89.5833 4.16675H10.4167C7.65501 4.17006 5.00741 5.26859 3.05462 7.22137C1.10184 9.17416 0.00330804 11.8218 0 14.5834L0 95.8334H100V14.5834C100 8.84175 95.3292 4.16675 89.5833 4.16675ZM10.4167 8.33342H89.5833C93.0292 8.33342 95.8333 11.1376 95.8333 14.5834V25.0001H4.16667V14.5834C4.16667 11.1376 6.97083 8.33342 10.4167 8.33342ZM4.16667 91.6668V29.1667H95.8333V91.6668H4.16667ZM20.8333 50.0001H79.1667V54.1668H20.8333V50.0001ZM20.8333 66.6668H62.5V70.8334H20.8333V66.6668ZM12.5 16.6667C12.5 15.5617 12.939 14.5019 13.7204 13.7205C14.5018 12.9391 15.5616 12.5001 16.6667 12.5001C17.7717 12.5001 18.8315 12.9391 19.6129 13.7205C20.3943 14.5019 20.8333 15.5617 20.8333 16.6667C20.8333 17.7718 20.3943 18.8316 19.6129 19.613C18.8315 20.3944 17.7717 20.8334 16.6667 20.8334C15.5616 20.8334 14.5018 20.3944 13.7204 19.613C12.939 18.8316 12.5 17.7718 12.5 16.6667ZM25 16.6667C25 15.5617 25.439 14.5019 26.2204 13.7205C27.0018 12.9391 28.0616 12.5001 29.1667 12.5001C30.2717 12.5001 31.3315 12.9391 32.1129 13.7205C32.8943 14.5019 33.3333 15.5617 33.3333 16.6667C33.3333 17.7718 32.8943 18.8316 32.1129 19.613C31.3315 20.3944 30.2717 20.8334 29.1667 20.8334C28.0616 20.8334 27.0018 20.3944 26.2204 19.613C25.439 18.8316 25 17.7718 25 16.6667ZM37.5 16.6667C37.5 15.5617 37.939 14.5019 38.7204 13.7205C39.5018 12.9391 40.5616 12.5001 41.6667 12.5001C42.7717 12.5001 43.8315 12.9391 44.6129 13.7205C45.3943 14.5019 45.8333 15.5617 45.8333 16.6667C45.8333 17.7718 45.3943 18.8316 44.6129 19.613C43.8315 20.3944 42.7717 20.8334 41.6667 20.8334C40.5616 20.8334 39.5018 20.3944 38.7204 19.613C37.939 18.8316 37.5 17.7718 37.5 16.6667Z" fill="#A29BCA"/>
</svg>
