<svg width="32" height="32" viewBox="0 0 32 32" fill="none" xmlns="http://www.w3.org/2000/svg">
<path d="M15.96 2.6665C8.6 2.6665 2.62666 8.63984 2.62666 15.9998C2.62666 23.3598 8.6 29.3332 15.96 29.3332C23.32 29.3332 29.2933 23.3598 29.2933 15.9998C29.2933 8.63984 23.3333 2.6665 15.96 2.6665ZM23.2 21.9065C21.56 24.2665 18.8667 25.6665 16 25.6665C13.1333 25.6665 10.44 24.2665 8.8 21.9065C8.48 21.4532 8.6 20.8265 9.05333 20.5198C9.50666 20.1998 10.1333 20.3198 10.44 20.7732C11.7067 22.5865 13.7867 23.6798 16 23.6798C18.2133 23.6798 20.2933 22.5998 21.56 20.7732C21.88 20.3198 22.4933 20.2132 22.9467 20.5198C23.4133 20.8265 23.52 21.4532 23.2 21.9065Z" fill="url(#paint0_linear_27_37)"/>
<defs>
<linearGradient id="paint0_linear_27_37" x1="15.9531" y1="31.7234" x2="15.9716" y2="-21.8777" gradientUnits="userSpaceOnUse">
<stop stop-color="#27187E"/>
<stop offset="1" stop-color="#C4BAFF" stop-opacity="0.1"/>
</linearGradient>
</defs>
</svg>
