<svg width="32" height="32" viewBox="0 0 32 32" fill="none" xmlns="http://www.w3.org/2000/svg">
<path d="M16 2.6665C8.65329 2.6665 2.66663 8.65317 2.66663 15.9998C2.66663 23.3465 8.65329 29.3332 16 29.3332C23.3466 29.3332 29.3333 23.3465 29.3333 15.9998C29.3333 8.65317 23.3466 2.6665 16 2.6665ZM15 10.6665C15 10.1198 15.4533 9.6665 16 9.6665C16.5466 9.6665 17 10.1198 17 10.6665V17.3332C17 17.8798 16.5466 18.3332 16 18.3332C15.4533 18.3332 15 17.8798 15 17.3332V10.6665ZM17.2266 21.8398C17.16 22.0132 17.0666 22.1465 16.9466 22.2798C16.8133 22.3998 16.6666 22.4932 16.5066 22.5598C16.3466 22.6265 16.1733 22.6665 16 22.6665C15.8266 22.6665 15.6533 22.6265 15.4933 22.5598C15.3333 22.4932 15.1866 22.3998 15.0533 22.2798C14.9333 22.1465 14.84 22.0132 14.7733 21.8398C14.7066 21.6798 14.6666 21.5065 14.6666 21.3332C14.6666 21.1598 14.7066 20.9865 14.7733 20.8265C14.84 20.6665 14.9333 20.5198 15.0533 20.3865C15.1866 20.2665 15.3333 20.1732 15.4933 20.1065C15.8133 19.9732 16.1866 19.9732 16.5066 20.1065C16.6666 20.1732 16.8133 20.2665 16.9466 20.3865C17.0666 20.5198 17.16 20.6665 17.2266 20.8265C17.2933 20.9865 17.3333 21.1598 17.3333 21.3332C17.3333 21.5065 17.2933 21.6798 17.2266 21.8398Z" fill="url(#paint0_linear_27_52)"/>
<defs>
<linearGradient id="paint0_linear_27_52" x1="15.993" y1="31.7234" x2="16.0116" y2="-21.8777" gradientUnits="userSpaceOnUse">
<stop stop-color="#27187E"/>
<stop offset="1" stop-color="#C4BAFF" stop-opacity="0.1"/>
</linearGradient>
</defs>
</svg>
