<svg width="100" height="100" viewBox="0 0 100 100" fill="none" xmlns="http://www.w3.org/2000/svg">
<g clip-path="url(#clip0_2971_2096)">
<path d="M37.5 0V43.4083L38.6 42.4167C39.5542 41.5708 40.5958 40.8917 41.6667 40.2792V4.16667H95.8333V62.5H60.8917C62.2381 60.2691 62.7488 57.6328 62.333 55.0605C61.9171 52.4882 60.6016 50.1471 58.6208 48.4542C56.5929 46.7465 54.0195 45.8233 51.3685 45.8523C48.7175 45.8814 46.165 46.8608 44.175 48.6125L25.6833 65.2792L28.475 68.375L46.95 51.7208C48.1878 50.6364 49.7729 50.0309 51.4184 50.0141C53.064 49.9973 54.6612 50.5702 55.9208 51.6292C58.7917 54.0708 59.1417 58.4 56.575 61.4333L37.4958 88.9333V100H41.6625V90.2333L41.9792 89.775C43.7083 90.9792 45.7708 91.6625 47.9125 91.6625H89.5792C95.325 91.6625 99.9958 86.9875 99.9958 81.2458V0H37.5ZM95.8333 81.25C95.8333 84.6958 93.0292 87.5 89.5833 87.5H47.9167C46.6395 87.4942 45.3947 87.0972 44.35 86.3625L58.0083 66.6667H95.8333V81.25ZM62.5 79.1667V75H75V79.1667H62.5ZM29.1667 31.8583L4.16667 55.075V100H0V53.2583L29.1667 26.175V31.8583Z" fill="#A29BCA"/>
</g>
<defs>
<clipPath id="clip0_2971_2096">
<rect width="100" height="100" fill="white"/>
</clipPath>
</defs>
</svg>
