<svg width="100" height="100" viewBox="0 0 100 100" fill="none" xmlns="http://www.w3.org/2000/svg">
<g clip-path="url(#clip0_2971_2086)">
<path d="M89.5834 16.6667H75V10.4167C75 4.67083 70.325 0 64.5834 0H10.4167C7.65502 0.00330804 5.00742 1.10184 3.05464 3.05463C1.10185 5.00741 0.00331947 7.65501 1.14363e-05 10.4167V76.475C-0.00163724 77.3776 0.174987 78.2716 0.519746 79.1057C0.864505 79.9398 1.37061 80.6976 2.00901 81.3356C2.64741 81.9736 3.40553 82.4793 4.23986 82.8235C5.07419 83.1678 5.96829 83.3439 6.87085 83.3417C8.20001 83.3417 9.52501 82.9542 10.675 82.1917L25 72.6417V87.5H72.2875L89.325 98.8625C90.3587 99.5537 91.5611 99.9504 92.8032 100.01C94.0452 100.069 95.28 99.7893 96.375 99.2C98.6125 98.0042 100 95.6792 100 93.1458V27.0833C100 21.3375 95.325 16.6667 89.5834 16.6667ZM8.36251 78.7292C7.95823 79.0059 7.48485 79.1646 6.99545 79.1874C6.50604 79.2102 6.01995 79.0963 5.59168 78.8583C5.15819 78.6313 4.79577 78.2891 4.54434 77.8693C4.29291 77.4495 4.16222 76.9685 4.16668 76.4792V10.4167C4.16668 6.97083 6.97085 4.16667 10.4167 4.16667H64.5834C68.0292 4.16667 70.8333 6.97083 70.8333 10.4167V66.6667H26.4542L8.36251 78.7292ZM95.8334 93.1458C95.8378 93.6351 95.7071 94.1162 95.4557 94.536C95.2043 94.9558 94.8418 95.298 94.4084 95.525C93.9795 95.7611 93.4937 95.874 93.0047 95.8512C92.5157 95.8284 92.0425 95.6708 91.6375 95.3958L73.55 83.3333H29.1667V70.8333H75V20.8333H89.5834C93.0292 20.8333 95.8334 23.6375 95.8334 27.0833V93.1458Z" fill="#A29BCA"/>
</g>
<defs>
<clipPath id="clip0_2971_2086">
<rect width="100" height="100" fill="white"/>
</clipPath>
</defs>
</svg>
