<svg width="1600" height="950" viewBox="0 0 1600 950" fill="none" xmlns="http://www.w3.org/2000/svg">
<g clip-path="url(#clip0_17_171)">
<rect width="1600" height="950" fill="white"/>
<rect width="1600" height="950" fill="url(#paint0_linear_17_171)"/>
<g filter="url(#filter0_f_17_171)">
<circle cx="1130" cy="724" r="386" fill="white" fill-opacity="0.14"/>
</g>
<g opacity="0.5">
<path d="M2080.73 394.082L2061.85 390M2080.73 394.082H2024.79M2080.73 394.082L2100.23 398.298M2080.73 394.082H2120.35M2061.85 390L2068.72 390.002L2075.52 390.01L2082.18 390.035L2088.62 390.084L2094.79 390.164L2100.61 390.283L2106.02 390.449L2111.04 390.661L2115.35 390.954L2119.27 391.293L2120.35 391.412V394.082M2061.85 390H2006.81M2006.81 390H1951.77M2006.81 390L2024.79 394.082M1951.77 390H1896.73M1951.77 390L1968.85 394.082M1896.73 390H1841.69M1896.73 390L1912.91 394.082M1841.69 390H1786.65M1841.69 390L1856.97 394.082M1786.65 390H1731.61M1786.65 390L1801.03 394.082M1731.61 390H1676.57M1731.61 390L1745.09 394.082M1676.57 390H1621.53M1676.57 390L1689.15 394.082M1621.53 390H1566.49M1621.53 390L1633.21 394.082M1566.49 390H1511.45M1566.49 390L1577.27 394.082M1511.45 390H1456.41M1511.45 390L1521.33 394.082M1456.41 390H1401.37M1456.41 390L1465.39 394.082M1401.37 390H1346.32M1401.37 390L1403.36 391.008L1406.39 392.535L1409.46 394.082M1346.32 390H1291.28M1346.32 390L1348.1 391.008L1353.52 394.082M1291.28 390H1236.24M1291.28 390L1297.58 394.082M1236.24 390H1181.2M1236.24 390L1238.25 391.515L1240.27 393.048L1240.95 393.564L1241.64 394.082M1181.2 390H1126.16M1181.2 390L1182.87 391.515L1183.43 392.024L1184 392.535L1185.7 394.082M1126.16 390H1071.12M1126.16 390L1129.76 394.082M1071.12 390L1071.45 390.503L1071.79 391.008L1073.48 393.564L1073.82 394.082M1071.12 390H1016.08M1016.08 390H961.04M1016.08 390L1017.88 394.082M961.04 390H906M961.04 390L961.374 391.515L961.94 394.082M906 390H850.96M906 390V394.082M850.96 390H795.918M850.96 390L850.626 391.515L850.06 394.082M795.918 390H740.878M795.918 390L794.121 394.082M740.878 390L740.545 390.503L740.213 391.008L738.524 393.564L738.181 394.082M740.878 390H685.838M685.838 390H630.796M685.838 390L682.698 393.564L682.242 394.082M630.796 390H575.756M630.796 390L629.129 391.515L628.568 392.024L627.439 393.048L626.873 393.564L626.302 394.082M575.756 390H520.716M575.756 390L573.755 391.515L571.727 393.048L571.047 393.564L570.362 394.082M520.716 390H465.676M520.716 390L514.424 394.082M465.676 390H410.634M465.676 390L463.9 391.008L458.484 394.082M410.634 390H355.594M410.634 390L402.545 394.082M355.594 390H300.554M355.594 390L346.605 394.082M300.554 390H245.512M300.554 390L290.666 394.082M245.512 390H190.472M245.512 390L234.726 394.082M190.472 390H135.432M190.472 390L178.786 394.082M135.432 390H80.3915M135.432 390L122.847 394.082M80.3915 390H25.35M80.3915 390L66.9072 394.082M25.35 390H-29.6903M25.35 390L10.9676 394.082M-29.6903 390H-84.7305M-29.6903 390L-44.972 394.082M-84.7305 390H-139.772M-84.7305 390L-100.912 394.082M-139.772 390H-194.812M-139.772 390L-156.85 394.082M-194.812 390H-249.852M-194.812 390L-212.79 394.082M-249.852 390L-256.721 390.002L-263.519 390.01L-270.175 390.035L-276.622 390.084L-282.79 390.164L-288.613 390.283L-294.021 390.449L-299.04 390.661L-303.347 390.954L-307.268 391.293L-308.346 391.412V394.082M-249.852 390L-268.729 394.082M-156.85 394.082H-100.912M-156.85 394.082H-212.79M-156.85 394.082L-174.497 398.298M-100.912 394.082L-117.629 398.298M-100.912 394.082H-44.972M66.9072 394.082H122.847M66.9072 394.082H10.9676M66.9072 394.082L63.4678 395.123L52.9763 398.298M122.847 394.082L109.844 398.298M122.847 394.082H178.786M290.666 394.082H346.605M290.666 394.082H234.726M290.666 394.082L288.143 395.123L286.873 395.646L280.449 398.298M346.605 394.082L345.461 394.601L344.312 395.123L337.318 398.298M346.605 394.082H402.545M514.424 394.082L513.622 394.601L507.922 398.298M514.424 394.082H570.362M514.424 394.082H458.484M570.362 394.082L568.987 395.123L568.294 395.646L567.6 396.172L564.79 398.298M570.362 394.082H626.302M738.181 394.082H794.121M738.181 394.082H682.242M738.181 394.082L735.396 398.298M794.121 394.082L793.892 394.601L793.663 395.123L793.431 395.646L792.733 397.231L792.264 398.298M794.121 394.082H850.06M961.94 394.082H1017.88M961.94 394.082H906M961.94 394.082L962.868 398.298M1017.88 394.082L1018.11 394.601L1018.34 395.123L1018.57 395.646L1019.74 398.298M1017.88 394.082H1073.82M1185.7 394.082H1241.64M1185.7 394.082H1129.76M1185.7 394.082L1186.84 395.123L1189.17 397.231L1189.75 397.763L1190.34 398.298M1241.64 394.082L1243.01 395.123L1243.71 395.646L1244.4 396.172L1247.21 398.298M1241.64 394.082H1297.58M1409.46 394.082H1465.39M1409.46 394.082H1353.52M1409.46 394.082L1411.52 395.123L1412.56 395.646L1417.81 398.298M1465.39 394.082L1466.54 394.601L1467.69 395.123L1474.68 398.298M1465.39 394.082H1521.33M1633.21 394.082H1689.15M1633.21 394.082H1577.27M1633.21 394.082L1636.2 395.123L1637.7 395.646L1645.29 398.298M1689.15 394.082L1702.16 398.298M1689.15 394.082H1745.09M1856.97 394.082H1912.91M1856.97 394.082H1801.03M1856.97 394.082L1872.76 398.298M1912.91 394.082L1929.63 398.298M1912.91 394.082H1968.85M-308.542 432.252H-308.346M-252.238 432.252L-230.881 426.865M-252.238 432.252L-274.414 437.845M-252.238 432.252H-187.892M-252.238 432.252H-308.346M-230.881 426.865H-294.041M-230.881 426.865L-210.296 421.673M-230.881 426.865H-167.721M-294.041 426.865L-272.313 421.673M-294.041 426.865H-308.346M-294.041 426.865L-308.346 430.283M-231.136 411.833H-171.287M-231.136 411.833L-211.608 407.166M-231.136 411.833H-290.985M-231.136 411.833L-251.359 416.665M-171.287 411.833L-152.786 407.166M-171.287 411.833L-190.444 416.665M-171.287 411.833H-111.437M-211.608 407.166H-152.786M-211.608 407.166L-192.739 402.658M-211.608 407.166H-270.429M-152.786 407.166H-93.9646M-152.786 407.166L-134.911 402.658M-308.962 517.28H-308.346M-257.041 517.28L-229.501 508.349M-257.041 517.28L-285.95 526.656M-257.041 517.28H-173.966M-257.041 517.28H-308.346M-229.501 508.349L-203.234 499.831M-229.501 508.349H-148.394M-229.501 508.349H-308.346M-282.465 499.831H-203.234M-282.465 499.831L-255.595 491.698M-282.465 499.831H-308.346M-282.465 499.831L-308.346 507.665M-229.914 483.924H-154.187M-229.914 483.924L-205.344 476.488M-229.914 483.924H-305.642M-229.914 483.924L-255.595 491.698M-154.187 483.924L-131.254 476.488M-154.187 483.924L-178.157 491.698M-154.187 483.924H-78.4589M-205.344 476.488H-131.254M-205.344 476.488H-279.433M-205.344 476.488L-181.814 469.366M-131.254 476.488L-109.293 469.366M-131.254 476.488H-57.1648M-137.622 455.989H-68.0472M-137.622 455.989L-116.845 449.7M-137.622 455.989H-207.196M-137.622 455.989L-159.26 462.539M-68.0472 455.989L-48.6556 449.7M-68.0472 455.989L-88.242 462.539M-68.0472 455.989H1.52854M-116.845 449.7H-48.6556M-116.845 449.7H-185.034M-116.845 449.7L-96.879 443.657M-48.6556 449.7L-30.0204 443.657M-48.6556 449.7H19.535M-59.1989 432.252H5.14754M-59.1989 432.252L-41.4011 426.865M-59.1989 432.252H-123.545M-59.1989 432.252L-77.6784 437.845M5.14754 432.252L21.7588 426.865M5.14754 432.252L-12.0999 437.845M5.14754 432.252H69.4939M-41.4011 426.865H21.7588M-41.4011 426.865H-104.561M-41.4011 426.865L-24.2472 421.673M21.7588 426.865L37.7692 421.673M21.7588 426.865H84.9187M8.26056 411.833H68.1101M8.26056 411.833L23.6777 407.166M8.26056 411.833H-51.5877M8.26056 411.833L-7.7043 416.665M68.1101 411.833L82.4988 407.166M68.1101 411.833L53.2091 416.665M68.1101 411.833H127.96M23.6777 407.166H82.4988M23.6777 407.166L38.575 402.658M23.6777 407.166H-35.1434M82.4988 407.166H141.321M82.4988 407.166L96.4031 402.658M-265.784 672.122L-227.024 654.524M-265.784 672.122L-307.292 690.968M-265.784 672.122H-148.606M-265.784 672.122H-308.346M-227.024 654.524L-190.744 638.052M-227.024 654.524H-113.722M-227.024 654.524H-308.346M-227.811 608.083H-124.737M-227.811 608.083L-194.688 594.412M-227.811 608.083L-262.989 622.603M-227.811 608.083H-308.346M-124.737 608.083L-94.6261 594.412M-124.737 608.083L-156.717 622.603M-124.737 608.083H-21.663M-194.688 594.412H-94.6261M-194.688 594.412H-294.75M-194.688 594.412L-163.445 581.516M-94.6261 594.412L-66.2231 581.516M-94.6261 594.412H5.43721M-105.997 557.804H-13.9961M-105.997 557.804L-79.5253 546.878M-105.997 557.804H-197.996M-105.997 557.804L-133.928 569.333M-13.9961 557.804L10.0682 546.878M-13.9961 557.804L-39.3899 569.333M-13.9961 557.804H78.0033M-79.5253 546.878H10.0682M-79.5253 546.878H-169.119M-79.5253 546.878L-54.4047 536.509M10.0682 546.878L32.9055 536.509M10.0682 546.878H99.6604M-7.81814 517.28H75.257M-7.81814 517.28L13.8212 508.349M-7.81814 517.28H-90.892M-7.81814 517.28L-30.5315 526.656M75.257 517.28L94.9282 508.349M75.257 517.28L54.6068 526.656M75.257 517.28H158.331M13.8212 508.349H94.9282M13.8212 508.349H-67.2857M13.8212 508.349L34.4588 499.831M94.9282 508.349L113.69 499.831M94.9282 508.349H176.035M72.9966 483.924H148.724M72.9966 483.924L91.0144 476.488M72.9966 483.924H-2.7318M72.9966 483.924L54.1628 491.698M148.724 483.924L165.105 476.488M148.724 483.924L131.603 491.698M148.724 483.924H224.451M91.0144 476.488H165.105M91.0144 476.488H16.9255M91.0144 476.488L108.27 469.366M165.105 476.488L180.791 469.366M165.105 476.488H239.194M140.677 455.989H210.252M140.677 455.989L155.914 449.7M140.677 455.989H71.103M140.677 455.989L124.81 462.539M210.252 455.989L212.015 455.189L224.103 449.7M210.252 455.989L195.828 462.539M210.252 455.989H279.828M155.914 449.7H224.103M155.914 449.7H87.7243M155.914 449.7L170.555 443.657M224.103 449.7L237.414 443.657M224.103 449.7H292.294M198.187 432.252H262.534M198.187 432.252L211.24 426.865M198.187 432.252H133.84M198.187 432.252L184.635 437.845M262.534 432.252L274.4 426.865M262.534 432.252L257.969 434.325L250.214 437.845M262.534 432.252H326.881M211.24 426.865H274.4M211.24 426.865H148.08M211.24 426.865L223.818 421.673M274.4 426.865L285.835 421.673M274.4 426.865H337.56M247.657 411.833H307.507M247.657 411.833L258.964 407.166M247.657 411.833H187.809M247.657 411.833L235.95 416.665M307.507 411.833L315.25 408.318L316.52 407.741L317.786 407.166M307.507 411.833L296.864 416.665M307.507 411.833H367.357M258.964 407.166H317.786M258.964 407.166L269.888 402.658M258.964 407.166H200.142M317.786 407.166H376.607M317.786 407.166L327.716 402.658M-223.329 872.594H-61.9957M-223.329 872.594L-172.529 839.644M-223.329 872.594L-279.151 908.801M-223.329 872.594L-308.346 872.594M-61.9957 872.594L-18.4525 839.644M-61.9957 872.594L-109.843 908.801M-61.9957 872.594H99.3365M-172.529 839.644H-18.4525M-172.529 839.644L-126.102 809.532M-172.529 839.644H-308.346M-18.4525 839.644L21.3413 809.532M-18.4525 839.644H135.623M-44.289 756.467H91.4673M-44.289 756.467L-8.06099 732.969M-44.289 756.467H-180.044M-44.289 756.467L-83.5073 781.905M91.4673 756.467L122.519 732.969M91.4673 756.467L57.8514 781.905M91.4673 756.467H227.222M-8.06099 732.969H122.519M-8.06099 732.969H-138.641M-8.06099 732.969L25.5068 711.197M122.519 732.969L151.292 711.197M122.519 732.969H253.099M85.751 672.122H202.929M85.751 672.122L112.884 654.524M85.751 672.122H-31.4283M85.751 672.122L56.6953 690.968M202.929 672.122L226.186 654.524M202.929 672.122L178.025 690.968M202.929 672.122H320.107M112.884 654.524H226.186M112.884 654.524H-0.419483M112.884 654.524L138.279 638.052M226.186 654.524L247.953 638.052M226.186 654.524H339.489M184.484 608.083H287.558M184.484 608.083L205.563 594.412M184.484 608.083H81.411M184.484 608.083L162.098 622.603M287.558 608.083L305.625 594.412M287.558 608.083L268.37 622.603M287.558 608.083H390.632M205.563 594.412H305.625M205.563 594.412H105.499M205.563 594.412L225.444 581.516M305.625 594.412L322.666 581.516M305.625 594.412H405.687M262.002 557.804H354.003M262.002 557.804L278.847 546.878M262.002 557.804H170.003M262.002 557.804L244.227 569.333M354.003 557.804L368.441 546.878M354.003 557.804L338.766 569.333M354.003 557.804H446.002M278.847 546.878H368.441M278.847 546.878H189.254M278.847 546.878L294.834 536.509M368.441 546.878L382.143 536.509M368.441 546.878H458.034M324.48 517.28H407.554M324.48 517.28L338.25 508.349M324.48 517.28H241.405M324.48 517.28L310.026 526.656M407.554 517.28L419.357 508.349M407.554 517.28L395.164 526.656M407.554 517.28H490.628M338.25 508.349H419.357M338.25 508.349H257.142M338.25 508.349L351.383 499.831M419.357 508.349L430.614 499.831M419.357 508.349H500.464M375.906 483.924H451.635M375.906 483.924L387.373 476.488M375.906 483.924H300.179M375.906 483.924L363.922 491.698M451.635 483.924L461.462 476.488M451.635 483.924L441.362 491.698M451.635 483.924H527.362M387.373 476.488H461.462M387.373 476.488H313.283M387.373 476.488L398.354 469.366M461.462 476.488L470.875 469.366M461.462 476.488H535.552M418.976 455.989H488.552M418.976 455.989L428.672 449.7M418.976 455.989H349.402M418.976 455.989L408.878 462.539M488.552 455.989L487.488 456.793L479.896 462.539M488.552 455.989L496.862 449.7M488.552 455.989H558.127M428.672 449.7H496.862M428.672 449.7H360.483M428.672 449.7L437.99 443.657M496.862 449.7L504.848 443.657M496.862 449.7H565.052M455.574 432.252H519.92M455.574 432.252L463.879 426.865M455.574 432.252H391.227M455.574 432.252L446.951 437.845M519.92 432.252L527.039 426.865M519.92 432.252L517.182 434.325L515.334 435.723L512.529 437.845M519.92 432.252H584.267M463.879 426.865H527.039M463.879 426.865H400.72M463.879 426.865L471.884 421.673M527.039 426.865L529.643 424.895L531.358 423.597L533.902 421.673M527.039 426.865H590.199M487.056 411.833H546.904M487.056 411.833L492.475 408.318L494.25 407.166M487.056 411.833H427.206M487.056 411.833L480.55 416.052L479.605 416.665M546.904 411.833L551.55 408.318L552.312 407.741L553.072 407.166M546.904 411.833L543.739 414.227L540.519 416.665M546.904 411.833H606.754M494.25 407.166H553.072M494.25 407.166L501.202 402.658M494.25 407.166H435.428M553.072 407.166H611.893M553.072 407.166L559.03 402.658M422.002 872.594H583.334M422.002 872.594L443.773 839.644M422.002 872.594H260.67M422.002 872.594L398.078 908.801M583.334 872.594L597.85 839.644M583.334 872.594L567.386 908.801M583.334 872.594H744.668M443.773 839.644H597.85M443.773 839.644H289.698M443.773 839.644L463.671 809.532M597.85 839.644L611.114 809.532M597.85 839.644H751.925M498.734 756.467H634.489M498.734 756.467L514.26 732.969M498.734 756.467H362.977M498.734 756.467L481.925 781.905M634.489 756.467L644.84 732.969M634.489 756.467L623.284 781.905M634.489 756.467H770.245M514.26 732.969H644.84M514.26 732.969H383.68M514.26 732.969L528.646 711.197M644.84 732.969L654.431 711.197M644.84 732.969H775.42M554.465 672.122H671.643M554.465 672.122L566.093 654.524M554.465 672.122H437.287M554.465 672.122L542.013 690.968M671.643 672.122L679.395 654.524M671.643 672.122L663.342 690.968M671.643 672.122H788.822M566.093 654.524H679.395M566.093 654.524H452.791M566.093 654.524L576.977 638.052M679.395 654.524L686.651 638.052M679.395 654.524H792.698M596.78 608.083H699.852M596.78 608.083L605.812 594.412M596.78 608.083H493.706M596.78 608.083L587.185 622.603M699.852 608.083L705.875 594.412M699.852 608.083L693.457 622.603M699.852 608.083H802.926M605.812 594.412H705.875M605.812 594.412H505.75M605.812 594.412L614.333 581.516M705.875 594.412L711.555 581.516M705.875 594.412H805.938M630.001 557.804H722.001M630.001 557.804L637.22 546.878M630.001 557.804H538.001M630.001 557.804L622.383 569.333M722.001 557.804L726.813 546.878M722.001 557.804L716.923 569.333M722.001 557.804H814.001M637.22 546.878H726.813M637.22 546.878H547.628M637.22 546.878L644.072 536.509M726.813 546.878L731.381 536.509M726.813 546.878H816.407M656.777 517.28H739.851M656.777 517.28L662.678 508.349M656.777 517.28H573.703M656.777 517.28L650.583 526.656M739.851 517.28L743.786 508.349M739.851 517.28L735.721 526.656M739.851 517.28H822.926M662.678 508.349H743.786M662.678 508.349H581.571M662.678 508.349L664.821 505.108L668.307 499.831M743.786 508.349L747.538 499.831M743.786 508.349H824.893M678.817 483.924H754.545M678.817 483.924L683.732 476.488M678.817 483.924H603.089M678.817 483.924L674.987 489.722L673.681 491.698M754.545 483.924L755.791 481.097L757.821 476.488M754.545 483.924L751.12 491.698M754.545 483.924H830.273M683.732 476.488L684.33 475.58L688.437 469.366M683.732 476.488H757.821M683.732 476.488H609.641M757.821 476.488L759.014 473.781L759.406 472.888L759.798 472.001L760.958 469.366M757.821 476.488H831.911M697.275 455.989H766.85M697.275 455.989L699.374 452.813L699.893 452.029L700.408 451.249L700.921 450.473L701.431 449.7M697.275 455.989H627.701M697.275 455.989L692.948 462.539M766.85 455.989L768.938 451.249L769.281 450.473L769.62 449.7M766.85 455.989L763.966 462.539M766.85 455.989H836.426M701.431 449.7H769.62M701.431 449.7H633.241M701.431 449.7L703.946 445.895L704.44 445.145L705.424 443.657M769.62 449.7L771.296 445.895L771.628 445.145L771.955 444.399L772.283 443.657M769.62 449.7H837.811M712.961 432.252H777.307M712.961 432.252L716.52 426.865M712.961 432.252H648.613M712.961 432.252L712.049 433.63L710.666 435.723L709.265 437.845M777.307 432.252L777.004 432.939L775.156 437.134L774.843 437.845M777.307 432.252L779.68 426.865M777.307 432.252H841.654M716.52 426.865H779.68M716.52 426.865H653.36M716.52 426.865L719.951 421.673M779.68 426.865L780.548 424.895L780.834 424.245L781.12 423.597L781.967 421.673M779.68 426.865H842.84M726.453 411.833H786.301M726.453 411.833L728.775 408.318L729.535 407.166M726.453 411.833H666.603M726.453 411.833L725.267 413.625L724.87 414.227L724.469 414.833L723.259 416.665M786.301 411.833L786.563 411.241L787.08 410.064L787.595 408.897L788.357 407.166M786.301 411.833L785.246 414.227L784.98 414.833L784.443 416.052L784.173 416.665M786.301 411.833H846.151M729.535 407.166H788.357M729.535 407.166L732.147 403.213L732.516 402.658M729.535 407.166H670.714M788.357 407.166L788.61 406.594L788.86 406.025L789.11 405.457L789.358 404.893L790.098 403.213L790.344 402.658M788.357 407.166H847.179M1067.33 872.594H1228.67M1067.33 872.594L1060.08 839.644M1067.33 872.594H906M1067.33 872.594L1075.31 908.801M1228.67 872.594L1214.15 839.644M1228.67 872.594L1244.61 908.801M1228.67 872.594H1390M1060.08 839.644H1214.15M1060.08 839.644H906M1060.08 839.644L1053.44 809.532M1214.15 839.644L1200.89 809.532M1214.15 839.644H1368.23M1041.76 756.467H1177.51M1041.76 756.467L1036.58 732.969M1041.76 756.467H906M1041.76 756.467L1047.36 781.905M1177.51 756.467L1167.16 732.969M1177.51 756.467L1188.72 781.905M1177.51 756.467H1313.27M1036.58 732.969H1167.16M1036.58 732.969H906M1036.58 732.969L1031.78 711.197M1167.16 732.969L1157.57 711.197M1167.16 732.969H1297.74M1023.18 672.122H1140.36M1023.18 672.122L1019.3 654.524M1023.18 672.122H906M1023.18 672.122L1027.33 690.968M1140.36 672.122L1132.6 654.524M1140.36 672.122L1148.66 690.968M1140.36 672.122H1257.54M1019.3 654.524H1132.6M1019.3 654.524H906M1019.3 654.524L1015.67 638.052M1132.6 654.524L1125.35 638.052M1132.6 654.524H1245.91M1009.07 608.083H1112.15M1009.07 608.083L1006.06 594.412M1009.07 608.083H906M1009.07 608.083L1012.27 622.603M1112.15 608.083L1106.13 594.412M1112.15 608.083L1118.54 622.603M1112.15 608.083H1215.22M1006.06 594.412H1106.13M1006.06 594.412H906M1006.06 594.412L1003.22 581.516M1106.13 594.412L1100.44 581.516M1106.13 594.412H1206.19M997.999 557.804H1090M997.999 557.804L995.593 546.878M997.999 557.804H906M997.999 557.804L1000.54 569.333M1090 557.804L1085.19 546.878M1090 557.804L1095.08 569.333M1090 557.804H1182M995.593 546.878H1085.19M995.593 546.878H906M995.593 546.878L993.309 536.509M1085.19 546.878L1080.62 536.509M1085.19 546.878H1174.78M989.074 517.28H1072.15M989.074 517.28L987.107 508.349M989.074 517.28H906M989.074 517.28L991.14 526.656M1072.15 517.28L1068.21 508.349M1072.15 517.28L1076.28 526.656M1072.15 517.28H1155.22M987.107 508.349H1068.21M987.107 508.349H906M987.107 508.349L985.231 499.831M1068.21 508.349L1064.46 499.831M1068.21 508.349H1149.32M981.727 483.924H1057.46M981.727 483.924L980.089 476.488M981.727 483.924H906M981.727 483.924L983.44 491.698M1057.46 483.924L1054.58 477.4L1054.18 476.488M1057.46 483.924L1060.88 491.698M1057.46 483.924H1133.18M980.089 476.488L979.891 475.58L978.521 469.366M980.089 476.488H1054.18M980.089 476.488H906M1054.18 476.488L1052.99 473.781L1052.59 472.888L1052.2 472.001L1051.04 469.366M1054.18 476.488H1128.27M975.575 455.989H1045.15M975.575 455.989L974.189 449.7M975.575 455.989H906M975.575 455.989L976.108 458.413L976.289 459.23L976.469 460.051L976.833 461.705L977.018 462.539M1045.15 455.989L1043.06 451.249L1042.38 449.7M1045.15 455.989L1048.03 462.539M1045.15 455.989H1114.72M974.189 449.7H1042.38M974.189 449.7H906M974.189 449.7L972.859 443.657M1042.38 449.7L1040.7 445.895L1040.37 445.145L1040.04 444.399L1039.72 443.657M1042.38 449.7H1110.57M970.347 432.252H1034.69M970.347 432.252L969.16 426.865M970.347 432.252H906M970.347 432.252L971.579 437.845M1034.69 432.252L1035 432.939L1036.84 437.134L1037.16 437.845M1034.69 432.252L1032.32 426.865M1034.69 432.252H1099.04M969.16 426.865H1032.32M969.16 426.865H906M969.16 426.865L968.016 421.673M1032.32 426.865L1031.45 424.895L1031.17 424.245L1030.88 423.597L1030.03 421.673M1032.32 426.865H1095.48M965.85 411.833H1025.7M965.85 411.833L964.821 407.166M965.85 411.833H906M965.85 411.833L966.914 416.665M1025.7 411.833L1025.44 411.241L1024.92 410.064L1024.66 409.479L1024.15 408.318L1023.9 407.741L1023.64 407.166M1025.7 411.833L1026.75 414.227L1027.02 414.833L1027.56 416.052L1027.83 416.665M1025.7 411.833H1085.55M964.821 407.166L964.696 406.594L964.57 406.025L964.446 405.457L963.828 402.658M964.821 407.166H1023.64M964.821 407.166H906M1023.64 407.166H1082.46M1023.64 407.166L1023.14 406.025L1022.89 405.457L1022.64 404.893L1021.9 403.213L1021.66 402.658M1712.66 872.594H1874M1712.66 872.594L1676.38 839.644M1712.66 872.594H1551.33M1712.66 872.594L1752.54 908.801M1874 872.594L1830.45 839.644M1874 872.594L1921.84 908.801M1874 872.594H2035.33M1676.38 839.644H1830.45M1676.38 839.644H1522.3M1676.38 839.644L1643.22 809.532M1830.45 839.644L1790.66 809.532M1830.45 839.644H1984.53M1584.78 756.467H1720.53M1584.78 756.467L1558.9 732.969M1584.78 756.467H1449.02M1584.78 756.467L1612.79 781.905M1720.53 756.467L1689.48 732.969M1720.53 756.467L1754.15 781.905M1720.53 756.467H1856.29M1558.9 732.969H1689.48M1558.9 732.969H1428.32M1558.9 732.969L1534.92 711.197M1689.48 732.969L1660.71 711.197M1689.48 732.969H1820.06M1491.89 672.122H1609.07M1491.89 672.122L1472.51 654.524M1491.89 672.122H1374.71M1491.89 672.122L1512.65 690.968M1609.07 672.122L1585.81 654.524M1609.07 672.122L1633.98 690.968M1609.07 672.122H1726.25M1472.51 654.524H1585.81M1472.51 654.524H1359.21M1472.51 654.524L1454.37 638.052M1585.81 654.524L1564.05 638.052M1585.81 654.524H1699.12M1421.37 608.083H1524.44M1421.37 608.083L1406.31 594.412M1421.37 608.083H1318.29M1421.37 608.083L1437.36 622.603M1524.44 608.083L1506.38 594.412M1524.44 608.083L1543.63 622.603M1524.44 608.083H1627.52M1406.31 594.412H1506.38M1406.31 594.412H1306.25M1406.31 594.412L1392.11 581.516M1506.38 594.412L1489.33 581.516M1506.38 594.412H1606.44M1366 557.804H1458M1366 557.804L1353.97 546.878M1366 557.804H1274M1366 557.804L1378.69 569.333M1458 557.804L1443.56 546.878M1458 557.804L1473.23 569.333M1458 557.804H1550M1353.97 546.878H1443.56M1353.97 546.878H1264.37M1353.97 546.878L1342.55 536.509M1443.56 546.878L1429.86 536.509M1443.56 546.878H1533.15M1321.37 517.28H1404.45M1321.37 517.28L1311.54 508.349M1321.37 517.28H1238.3M1321.37 517.28L1331.7 526.656M1404.45 517.28L1392.64 508.349M1404.45 517.28L1416.84 526.656M1404.45 517.28H1487.52M1311.54 508.349H1392.64M1311.54 508.349H1230.43M1311.54 508.349L1302.16 499.831M1392.64 508.349L1381.39 499.831M1392.64 508.349H1473.75M1284.64 483.924L1285.69 484.878L1286.74 485.835L1293.2 491.698M1284.64 483.924H1360.37M1284.64 483.924L1276.45 476.488M1284.64 483.924H1208.91M1360.37 483.924L1350.54 476.488M1360.37 483.924L1370.64 491.698M1360.37 483.924H1436.09M1276.45 476.488H1350.54M1276.45 476.488H1202.36M1276.45 476.488L1268.61 469.366M1350.54 476.488L1341.13 469.366M1350.54 476.488H1424.63M1253.87 455.989H1323.45M1253.87 455.989L1246.95 449.7M1253.87 455.989H1184.3M1253.87 455.989L1261.09 462.539M1323.45 455.989L1318.21 452.029L1315.14 449.7M1323.45 455.989L1332.1 462.539M1323.45 455.989H1393.02M1246.95 449.7H1315.14M1246.95 449.7H1178.76M1246.95 449.7L1241.11 444.399L1240.29 443.657M1315.14 449.7L1307.15 443.657M1315.14 449.7H1383.33M1227.73 432.252H1292.08M1227.73 432.252L1226.23 430.886L1221.8 426.865M1227.73 432.252H1163.39M1227.73 432.252L1229.25 433.63L1232.33 436.427L1233.89 437.845M1292.08 432.252L1284.96 426.865M1292.08 432.252L1294.82 434.325L1296.67 435.723L1299.47 437.845M1292.08 432.252H1356.43M1221.8 426.865H1284.96M1221.8 426.865H1158.64M1221.8 426.865L1217.49 422.952L1216.08 421.673M1284.96 426.865L1282.36 424.895L1280.64 423.597L1278.1 421.673M1284.96 426.865H1348.12M1205.25 411.833H1265.1M1205.25 411.833L1202.01 408.897L1200.11 407.166M1205.25 411.833H1145.4M1205.25 411.833L1210.57 416.665M1265.1 411.833L1260.45 408.318L1259.69 407.741L1258.93 407.166M1265.1 411.833L1268.26 414.227L1271.48 416.665M1265.1 411.833H1324.94M1200.11 407.166H1258.93M1200.11 407.166L1197.6 404.893L1196.37 403.77L1195.75 403.213L1195.14 402.658M1200.11 407.166H1141.29M1258.93 407.166H1317.75M1258.93 407.166L1252.97 402.658M2081.22 732.969H1950.64M2081.22 732.969L2038.06 711.197M2081.22 732.969H2120.35M2081.22 732.969L2120.35 752.707M1960.61 672.122H2077.78M1960.61 672.122L1925.72 654.524M1960.61 672.122H1843.43M1960.61 672.122L1997.96 690.968M2077.78 672.122L2039.02 654.524M2077.78 672.122L2119.29 690.968M2077.78 672.122H2120.35M1925.72 654.524H2039.02M1925.72 654.524H1812.42M1925.72 654.524L1893.07 638.052M2039.02 654.524L2002.74 638.052M2039.02 654.524H2120.35M1833.66 608.083H1936.74M1833.66 608.083L1806.56 594.412M1833.66 608.083H1730.59M1833.66 608.083L1862.45 622.603M1936.74 608.083L1906.63 594.412M1936.74 608.083L1968.72 622.603M1936.74 608.083H2039.81M1806.56 594.412H1906.63M1806.56 594.412H1706.5M1806.56 594.412L1781 581.516M1906.63 594.412L1878.22 581.516M1906.63 594.412H2006.69M1734 557.804H1826M1734 557.804L1712.34 546.878M1734 557.804H1642M1734 557.804L1756.85 569.333M1826 557.804L1801.93 546.878M1826 557.804L1851.39 569.333M1826 557.804H1918M1712.34 546.878H1801.93M1712.34 546.878H1622.75M1712.34 546.878L1691.79 536.509M1801.93 546.878L1779.09 536.509M1801.93 546.878H1891.53M1653.67 517.28H1736.74M1653.67 517.28L1635.96 508.349M1653.67 517.28H1570.6M1653.67 517.28L1672.25 526.656M1736.74 517.28L1717.07 508.349M1736.74 517.28L1757.39 526.656M1736.74 517.28H1819.82M1635.96 508.349H1717.07M1635.96 508.349H1554.86M1635.96 508.349L1619.08 499.831M1717.07 508.349L1698.31 499.831M1717.07 508.349H1798.18M1587.55 483.924H1663.28M1587.55 483.924L1572.81 476.488M1587.55 483.924H1511.82M1587.55 483.924L1602.96 491.698M1663.28 483.924L1646.9 476.488M1663.28 483.924L1680.4 491.698M1663.28 483.924H1739M1572.81 476.488H1646.9M1572.81 476.488H1498.72M1572.81 476.488L1558.69 469.366M1646.9 476.488L1631.21 469.366M1646.9 476.488H1720.99M1532.17 455.989H1601.75M1532.17 455.989L1519.71 449.7M1532.17 455.989H1462.6M1532.17 455.989L1545.16 462.539M1601.75 455.989L1587.9 449.7M1601.75 455.989L1616.17 462.539M1601.75 455.989H1671.32M1519.71 449.7H1587.9M1519.71 449.7H1451.52M1519.71 449.7L1507.73 443.657M1587.9 449.7L1574.59 443.657M1587.9 449.7H1656.09M1485.12 432.252H1549.47M1485.12 432.252L1474.44 426.865M1485.12 432.252H1420.77M1485.12 432.252L1487.85 433.63L1489.23 434.325L1496.21 437.845M1549.47 432.252L1537.6 426.865M1549.47 432.252L1561.79 437.845M1549.47 432.252H1613.81M1474.44 426.865H1537.6M1474.44 426.865H1411.28M1474.44 426.865L1464.15 421.673M1537.6 426.865L1526.17 421.673M1537.6 426.865H1600.76M1444.64 411.833H1504.49M1444.64 411.833L1435.39 407.166M1444.64 411.833H1384.79M1444.64 411.833L1454.22 416.665M1504.49 411.833L1496.75 408.318L1495.48 407.741L1494.21 407.166M1504.49 411.833L1515.14 416.665M1504.49 411.833H1564.34M1435.39 407.166H1494.21M1435.39 407.166L1427.56 403.213L1426.45 402.658M1435.39 407.166H1376.57M1494.21 407.166H1553.04M1494.21 407.166L1484.28 402.658M2102 557.804L2070.71 546.878M2102 557.804H2010M2102 557.804L2120.35 564.213M2102 557.804H2120.35M2070.71 546.878H1981.12M2070.71 546.878L2041.02 536.509M2070.71 546.878H2120.35M1985.97 517.28H2069.04M1985.97 517.28L1960.39 508.349M1985.97 517.28H1902.89M1985.97 517.28L2012.81 526.656M2069.04 517.28L2041.5 508.349M2069.04 517.28L2097.95 526.656M2069.04 517.28H2120.35M1960.39 508.349H2041.5M1960.39 508.349H1879.29M1960.39 508.349L1936 499.831M2041.5 508.349L2015.23 499.831M2041.5 508.349H2120.35M1890.46 483.924H1966.19M1890.46 483.924L1869.16 476.488M1890.46 483.924H1814.73M1890.46 483.924L1912.72 491.698M1966.19 483.924L1943.25 476.488M1966.19 483.924L1990.16 491.698M1966.19 483.924H2041.91M1869.16 476.488H1943.25M1869.16 476.488H1795.07M1869.16 476.488L1848.77 469.366M1943.25 476.488L1921.29 469.366M1943.25 476.488H2017.34M1810.47 455.989H1880.05M1810.47 455.989L1792.47 449.7M1810.47 455.989H1740.9M1810.47 455.989L1829.22 462.539M1880.05 455.989L1860.66 449.7M1880.05 455.989L1900.24 462.539M1880.05 455.989H1949.62M1792.47 449.7H1860.66M1792.47 449.7H1724.28M1792.47 449.7L1775.16 443.657M1860.66 449.7L1842.02 443.657M1860.66 449.7H1928.85M1742.51 432.252H1806.85M1742.51 432.252L1727.08 426.865M1742.51 432.252H1678.16M1742.51 432.252L1758.52 437.845M1806.85 432.252L1790.24 426.865M1806.85 432.252L1824.1 437.845M1806.85 432.252H1871.2M1727.08 426.865H1790.24M1727.08 426.865H1663.92M1727.08 426.865L1712.21 421.673M1790.24 426.865L1774.23 421.673M1790.24 426.865H1853.4M1684.04 411.833H1743.89M1684.04 411.833L1670.68 407.166M1684.04 411.833H1624.19M1684.04 411.833L1697.88 416.665M1743.89 411.833L1729.5 407.166M1743.89 411.833L1758.79 416.665M1743.89 411.833H1803.74M1670.68 407.166H1729.5M1670.68 407.166L1657.77 402.658M1670.68 407.166H1611.86M1729.5 407.166H1788.32M1729.5 407.166L1715.6 402.658M2088.77 455.989L2065.22 449.7M2088.77 455.989H2019.2M2088.77 455.989L2113.29 462.539M2088.77 455.989H2120.35M2065.22 449.7H1997.03M2065.22 449.7L2042.6 443.657M2065.22 449.7H2120.35M1999.89 432.252H2064.24M1999.89 432.252L1979.72 426.865M1999.89 432.252H1935.55M1999.89 432.252L2020.84 437.845M2064.24 432.252L2042.88 426.865M2064.24 432.252L2086.41 437.845M2064.24 432.252H2120.35M1979.72 426.865H2042.88M1979.72 426.865H1916.56M1979.72 426.865L1960.28 421.673M2042.88 426.865L2022.3 421.673M2042.88 426.865H2106.04M1923.44 411.833H1983.29M1923.44 411.833L1905.96 407.166M1923.44 411.833H1863.59M1923.44 411.833L1941.53 416.665M1983.29 411.833L1964.79 407.166M1983.29 411.833L2002.44 416.665M1983.29 411.833H2043.14M1905.96 407.166H1964.79M1905.96 407.166L1889.08 402.658M1905.96 407.166H1847.14M1964.79 407.166H2023.61M1964.79 407.166L1946.91 402.658M2002.44 416.665L2022.3 421.673M2002.44 416.665H2063.36M2002.44 416.665H1941.53M2043.14 411.833L2023.61 407.166M2043.14 411.833L2063.36 416.665M2043.14 411.833H2102.98M2023.61 407.166H2082.43M2023.61 407.166L2004.74 402.658M1946.91 402.658H1889.08M1946.91 402.658H2004.74M1946.91 402.658L1929.63 398.298M2063.36 416.665L2084.31 421.673M2063.36 416.665H2120.35M2102.98 411.833L2082.43 407.166M2102.98 411.833L2120.35 415.774M2102.98 411.833H2120.35M2082.43 407.166L2062.57 402.658M2082.43 407.166H2120.35M2004.74 402.658H2062.57M2004.74 402.658L1986.5 398.298M2062.57 402.658L2043.37 398.298M2062.57 402.658H2120.35M2022.3 421.673H2084.31M2022.3 421.673H1960.28M2106.04 426.865L2084.31 421.673M2106.04 426.865L2120.35 430.283M2106.04 426.865H2120.35M2084.31 421.673H2120.35M1960.28 421.673H1898.26M1960.28 421.673L1941.53 416.665M1941.53 416.665H1880.62M2086.41 437.845L2109.45 443.657M2086.41 437.845H2020.84M2086.41 437.845H2120.35M2120.54 432.252H2120.35M2109.45 443.657H2042.6M2109.45 443.657L2120.35 446.404M2109.45 443.657H2120.35M2042.6 443.657H1975.74M2042.6 443.657L2020.84 437.845M2020.84 437.845H1955.26M1758.79 416.665L1774.23 421.673M1758.79 416.665H1819.7M1758.79 416.665H1697.88M1803.74 411.833L1788.32 407.166M1803.74 411.833L1819.7 416.665M1803.74 411.833H1863.59M1788.32 407.166H1847.14M1788.32 407.166L1773.43 402.658M1715.6 402.658H1773.43M1715.6 402.658L1702.16 398.298M1715.6 402.658H1657.77M1819.7 416.665L1836.25 421.673M1819.7 416.665H1880.62M1863.59 411.833L1847.14 407.166M1863.59 411.833L1880.62 416.665M1847.14 407.166L1831.25 402.658M1773.43 402.658H1831.25M1773.43 402.658L1759.02 398.298M1880.62 416.665L1898.26 421.673M1889.08 402.658H1831.25M1889.08 402.658L1872.76 398.298M1831.25 402.658L1815.89 398.298M1774.23 421.673H1836.25M1774.23 421.673H1712.21M1853.4 426.865L1836.25 421.673M1853.4 426.865L1871.2 432.252M1853.4 426.865H1916.56M1836.25 421.673H1898.26M1712.21 421.673H1650.2M1712.21 421.673L1697.88 416.665M1898.26 421.673L1916.56 426.865M1697.88 416.665H1636.96M1871.2 432.252L1889.68 437.845M1871.2 432.252H1935.55M1916.56 426.865L1935.55 432.252M1935.55 432.252L1955.26 437.845M1824.1 437.845L1842.02 443.657M1824.1 437.845H1889.68M1824.1 437.845H1758.52M1889.68 437.845L1908.88 443.657M1889.68 437.845H1955.26M1955.26 437.845L1975.74 443.657M1842.02 443.657H1908.88M1842.02 443.657H1775.16M1928.85 449.7L1908.88 443.657M1928.85 449.7L1949.62 455.989M1928.85 449.7H1997.03M1908.88 443.657H1975.74M1775.16 443.657H1708.3M1775.16 443.657L1758.52 437.845M1975.74 443.657L1997.03 449.7M1758.52 437.845H1692.94M1949.62 455.989L1971.26 462.539M1949.62 455.989H2019.2M1997.03 449.7L2019.2 455.989M2019.2 455.989L2042.28 462.539M1900.24 462.539L1921.29 469.366M1900.24 462.539H1971.26M1900.24 462.539H1829.22M1971.26 462.539L1993.81 469.366M1971.26 462.539H2042.28M2042.28 462.539L2066.33 469.366M2042.28 462.539H2113.29M2113.29 462.539H2120.35M2113.29 462.539L2120.35 464.422M1921.29 469.366H1993.81M1921.29 469.366H1848.77M2017.34 476.488L1993.81 469.366M2017.34 476.488L2041.91 483.924M2017.34 476.488H2091.43M1993.81 469.366H2066.33M1848.77 469.366H1776.25M1848.77 469.366L1829.22 462.539M2066.33 469.366L2091.43 476.488M2066.33 469.366H2120.35M1829.22 462.539H1758.21M2041.91 483.924L2067.6 491.698M2041.91 483.924H2117.64M2091.43 476.488L2117.64 483.924M2091.43 476.488H2120.35M2120.73 469.366H2120.35M2117.64 483.924L2120.35 484.692M2117.64 483.924H2120.35M1990.16 491.698L2015.23 499.831M1990.16 491.698H2067.6M1990.16 491.698H1912.72M2067.6 491.698L2094.47 499.831M2067.6 491.698H2120.35M2121 484.878L2120.35 484.692M2015.23 499.831H2094.47M2015.23 499.831H1936M2094.47 499.831H2120.35M2094.47 499.831L2120.35 507.665M1936 499.831H1856.77M1936 499.831L1912.72 491.698M1912.72 491.698H1835.28M2097.95 526.656H2012.81M2097.95 526.656L2120.35 533.919M2097.95 526.656H2120.35M2120.96 517.28H2120.35M2012.81 526.656H1927.67M2012.81 526.656L2041.02 536.509M2120.59 533.999L2120.35 533.919M1515.14 416.665L1526.17 421.673M1515.14 416.665H1576.05M1515.14 416.665H1454.22M1564.34 411.833L1553.04 407.166M1564.34 411.833L1576.05 416.665M1564.34 411.833H1624.19M1553.04 407.166H1611.86M1553.04 407.166L1542.11 402.658M1484.28 402.658H1542.11M1484.28 402.658L1480.65 401.006L1474.68 398.298M1484.28 402.658H1426.45M1576.05 416.665L1588.18 421.673M1576.05 416.665H1636.96M1624.19 411.833L1611.86 407.166M1624.19 411.833L1636.96 416.665M1611.86 407.166L1599.94 402.658M1542.11 402.658H1599.94M1542.11 402.658L1531.55 398.298M1636.96 416.665L1650.2 421.673M1657.77 402.658L1645.29 398.298M1657.77 402.658H1599.94M1599.94 402.658L1598.48 402.104L1595.57 401.006L1588.42 398.298M1526.17 421.673H1588.18M1526.17 421.673H1464.15M1600.76 426.865L1588.18 421.673M1600.76 426.865L1613.81 432.252M1600.76 426.865H1663.92M1588.18 421.673H1650.2M1464.15 421.673H1402.13M1464.15 421.673L1454.22 416.665M1650.2 421.673L1663.92 426.865M1454.22 416.665H1393.31M1613.81 432.252L1627.36 437.845M1613.81 432.252H1678.16M1663.92 426.865L1665.67 427.527L1678.16 432.252M1678.16 432.252L1692.94 437.845M1561.79 437.845L1563.36 438.56L1574.59 443.657M1561.79 437.845H1627.36M1561.79 437.845H1496.21M1627.36 437.845L1641.44 443.657M1627.36 437.845H1692.94M1692.94 437.845L1708.3 443.657M1574.59 443.657H1641.44M1574.59 443.657H1507.73M1656.09 449.7L1641.44 443.657M1656.09 449.7L1671.32 455.989M1656.09 449.7H1724.28M1641.44 443.657H1708.3M1507.73 443.657H1440.87M1507.73 443.657L1496.21 437.845M1708.3 443.657L1724.28 449.7M1496.21 437.845H1430.63M1671.32 455.989L1687.19 462.539M1671.32 455.989H1740.9M1724.28 449.7L1740.9 455.989M1740.9 455.989L1758.21 462.539M1616.17 462.539L1631.21 469.366M1616.17 462.539H1687.19M1616.17 462.539H1545.16M1687.19 462.539L1703.73 469.366M1687.19 462.539H1758.21M1758.21 462.539L1776.25 469.366M1631.21 469.366H1703.73M1631.21 469.366H1558.69M1720.99 476.488L1703.73 469.366M1720.99 476.488L1739 483.924M1720.99 476.488H1795.07M1703.73 469.366H1776.25M1558.69 469.366H1486.17M1558.69 469.366L1545.16 462.539M1776.25 469.366L1795.07 476.488M1545.16 462.539H1474.14M1739 483.924L1757.84 491.698M1739 483.924H1814.73M1795.07 476.488L1814.73 483.924M1814.73 483.924L1835.28 491.698M1680.4 491.698L1698.31 499.831M1680.4 491.698H1757.84M1680.4 491.698H1602.96M1757.84 491.698L1777.54 499.831M1757.84 491.698H1835.28M1835.28 491.698L1856.77 499.831M1698.31 499.831H1777.54M1698.31 499.831H1619.08M1798.18 508.349L1777.54 499.831M1798.18 508.349L1819.82 517.28M1798.18 508.349H1879.29M1777.54 499.831H1856.77M1619.08 499.831H1539.85M1619.08 499.831L1602.96 491.698M1856.77 499.831L1879.29 508.349M1602.96 491.698H1525.52M1819.82 517.28L1842.53 526.656M1819.82 517.28H1902.89M1879.29 508.349L1902.89 517.28M1902.89 517.28L1927.67 526.656M1757.39 526.656L1779.09 536.509M1757.39 526.656H1842.53M1757.39 526.656H1672.25M1842.53 526.656L1866.4 536.509M1842.53 526.656H1927.67M1927.67 526.656L1953.71 536.509M1779.09 536.509H1866.4M1779.09 536.509H1691.79M1891.53 546.878L1866.4 536.509M1891.53 546.878L1918 557.804M1891.53 546.878H1981.12M1866.4 536.509H1953.71M1691.79 536.509H1604.48M1691.79 536.509L1672.25 526.656M1953.71 536.509L1981.12 546.878M1953.71 536.509H2041.02M1672.25 526.656H1587.11M1918 557.804L1945.93 569.333M1918 557.804H2010M1981.12 546.878L2010 557.804M2041.02 536.509H2120.35M2010 557.804L2040.47 569.333M1851.39 569.333L1878.22 581.516M1851.39 569.333H1945.93M1851.39 569.333H1756.85M1945.93 569.333L1975.45 581.516M1945.93 569.333H2040.47M2040.47 569.333L2072.67 581.516M2040.47 569.333H2120.35M1878.22 581.516H1975.45M1878.22 581.516H1781M2006.69 594.412L1975.45 581.516M2006.69 594.412L2039.81 608.083M2006.69 594.412H2106.75M1975.45 581.516H2072.67M1781 581.516H1683.78M1781 581.516L1756.85 569.333M2072.67 581.516L2106.75 594.412M2072.67 581.516H2120.35M1756.85 569.333H1662.31M2039.81 608.083L2074.99 622.603M2039.81 608.083H2120.35M2106.75 594.412H2120.35M2106.75 594.412L2120.35 599.555M1968.72 622.603L2002.74 638.052M1968.72 622.603H2074.99M1968.72 622.603H1862.45M2074.99 622.603L2112.42 638.052M2074.99 622.603H2120.35M2002.74 638.052H2112.42M2002.74 638.052H1893.07M2112.42 638.052L2120.35 641.324M2112.42 638.052H2120.35M1893.07 638.052H1783.4M1893.07 638.052L1862.45 622.603M1862.45 622.603H1756.17M2119.29 690.968H1997.96M2119.29 690.968H2120.35M2119.29 690.968L2120.35 691.446M1997.96 690.968H1876.63M1997.96 690.968L2038.06 711.197M1271.48 416.665L1273.94 418.522L1274.76 419.147L1278.1 421.673M1271.48 416.665H1332.39M1271.48 416.665H1210.57M1324.94 411.833L1319.53 408.318L1317.75 407.166M1324.94 411.833L1331.45 416.052L1332.39 416.665M1324.94 411.833H1384.79M1317.75 407.166H1376.57M1317.75 407.166L1310.8 402.658M1252.97 402.658H1310.8M1252.97 402.658L1250.79 401.006L1247.21 398.298M1252.97 402.658H1195.14M1332.39 416.665L1334.3 417.9L1340.12 421.673M1332.39 416.665H1393.31M1384.79 411.833L1376.57 407.166M1384.79 411.833L1393.31 416.665M1376.57 407.166L1370.59 403.77L1368.63 402.658M1310.8 402.658H1368.63M1310.8 402.658L1304.08 398.298M1393.31 416.665L1402.13 421.673M1426.45 402.658L1425.36 402.104L1417.81 398.298M1426.45 402.658H1368.63M1368.63 402.658L1365.72 401.006L1360.95 398.298M1278.1 421.673H1340.12M1278.1 421.673H1216.08M1348.12 426.865L1340.12 421.673M1348.12 426.865L1356.43 432.252M1348.12 426.865H1411.28M1340.12 421.673H1402.13M1216.08 421.673H1154.07M1216.08 421.673L1210.57 416.665M1402.13 421.673L1411.28 426.865M1210.57 416.665H1149.65M1356.43 432.252L1361.78 435.723L1362.86 436.427L1365.05 437.845M1356.43 432.252H1420.77M1411.28 426.865L1420.77 432.252M1420.77 432.252L1430.63 437.845M1299.47 437.845L1307.15 443.657M1299.47 437.845H1365.05M1299.47 437.845H1233.89M1365.05 437.845L1374.01 443.657M1365.05 437.845H1430.63M1430.63 437.845L1440.87 443.657M1307.15 443.657H1374.01M1307.15 443.657H1240.29M1383.33 449.7L1377.46 445.895L1376.31 445.145L1374.01 443.657M1383.33 449.7L1393.02 455.989M1383.33 449.7H1451.52M1374.01 443.657H1440.87M1240.29 443.657H1173.43M1240.29 443.657L1233.89 437.845M1440.87 443.657L1451.52 449.7M1233.89 437.845H1168.31M1393.02 455.989L1403.12 462.539M1393.02 455.989H1462.6M1451.52 449.7L1462.6 455.989M1462.6 455.989L1474.14 462.539M1332.1 462.539L1336.57 465.916L1337.7 466.772L1341.13 469.366M1332.1 462.539H1403.12M1332.1 462.539H1261.09M1403.12 462.539L1413.65 469.366M1403.12 462.539H1474.14M1474.14 462.539L1486.17 469.366M1341.13 469.366H1413.65M1341.13 469.366H1268.61M1424.63 476.488L1413.65 469.366M1424.63 476.488L1436.09 483.924M1424.63 476.488H1498.72M1413.65 469.366H1486.17M1268.61 469.366H1196.08M1268.61 469.366L1266.69 467.632L1261.09 462.539M1486.17 469.366L1498.72 476.488M1261.09 462.539H1190.07M1436.09 483.924L1448.08 491.698M1436.09 483.924H1511.82M1498.72 476.488L1511.82 483.924M1511.82 483.924L1525.52 491.698M1370.64 491.698L1381.39 499.831M1370.64 491.698H1448.08M1370.64 491.698H1293.2M1448.08 491.698L1460.62 499.831M1448.08 491.698H1525.52M1525.52 491.698L1539.85 499.831M1381.39 499.831H1460.62M1381.39 499.831H1302.16M1473.75 508.349L1460.62 499.831M1473.75 508.349L1487.52 517.28M1473.75 508.349H1554.86M1460.62 499.831H1539.85M1302.16 499.831H1222.92M1302.16 499.831L1293.2 491.698M1539.85 499.831L1554.86 508.349M1293.2 491.698H1215.76M1487.52 517.28L1501.97 526.656M1487.52 517.28H1570.6M1554.86 508.349L1570.6 517.28M1570.6 517.28L1587.11 526.656M1416.84 526.656L1429.86 536.509M1416.84 526.656H1501.97M1416.84 526.656H1331.7M1501.97 526.656L1517.17 536.509M1501.97 526.656H1587.11M1587.11 526.656L1604.48 536.509M1429.86 536.509H1517.17M1429.86 536.509H1342.55M1533.15 546.878L1517.17 536.509M1533.15 546.878L1550 557.804M1533.15 546.878H1622.75M1517.17 536.509H1604.48M1342.55 536.509H1255.24M1342.55 536.509L1331.7 526.656M1604.48 536.509L1622.75 546.878M1331.7 526.656H1246.56M1550 557.804L1567.77 569.333M1550 557.804H1642M1622.75 546.878L1642 557.804M1642 557.804L1662.31 569.333M1473.23 569.333L1489.33 581.516M1473.23 569.333H1567.77M1473.23 569.333H1378.69M1567.77 569.333L1586.56 581.516M1567.77 569.333H1662.31M1662.31 569.333L1683.78 581.516M1489.33 581.516H1586.56M1489.33 581.516H1392.11M1606.44 594.412L1586.56 581.516M1606.44 594.412L1627.52 608.083M1606.44 594.412H1706.5M1586.56 581.516H1683.78M1392.11 581.516H1294.89M1392.11 581.516L1378.69 569.333M1683.78 581.516L1706.5 594.412M1378.69 569.333H1284.16M1627.52 608.083L1649.9 622.603M1627.52 608.083H1730.59M1706.5 594.412L1730.59 608.083M1730.59 608.083L1756.17 622.603M1543.63 622.603L1564.05 638.052M1543.63 622.603H1649.9M1543.63 622.603H1437.36M1649.9 622.603L1673.72 638.052M1649.9 622.603H1756.17M1756.17 622.603L1783.4 638.052M1564.05 638.052H1673.72M1564.05 638.052H1454.37M1699.12 654.524L1673.72 638.052M1699.12 654.524L1726.25 672.122M1699.12 654.524H1812.42M1673.72 638.052H1783.4M1454.37 638.052H1344.7M1454.37 638.052L1437.36 622.603M1783.4 638.052L1812.42 654.524M1437.36 622.603H1331.09M1726.25 672.122L1755.3 690.968M1726.25 672.122H1843.43M1812.42 654.524L1843.43 672.122M1843.43 672.122L1876.63 690.968M1633.98 690.968L1660.71 711.197M1633.98 690.968H1755.3M1633.98 690.968H1512.65M1755.3 690.968L1786.49 711.197M1755.3 690.968H1876.63M1876.63 690.968L1912.28 711.197M1660.71 711.197H1786.49M1660.71 711.197H1534.92M1820.06 732.969L1786.49 711.197M1820.06 732.969L1856.29 756.467M1820.06 732.969H1950.64M1786.49 711.197H1912.28M1534.92 711.197H1409.14M1534.92 711.197L1512.65 690.968M1912.28 711.197L1950.64 732.969M1912.28 711.197H2038.06M1512.65 690.968H1391.32M1856.29 756.467L1895.51 781.905M1856.29 756.467H1992.04M1950.64 732.969L1992.04 756.467M2038.06 711.197H2120.35M1992.04 756.467L2036.87 781.905M1992.04 756.467H2120.35M1754.15 781.905L1790.66 809.532M1754.15 781.905H1895.51M1754.15 781.905H1612.79M1895.51 781.905L1938.1 809.532M1895.51 781.905H2036.87M2036.87 781.905L2085.55 809.532M2036.87 781.905H2120.35M1790.66 809.532H1938.1M1790.66 809.532H1643.22M1984.53 839.644L1938.1 809.532M1984.53 839.644L2035.33 872.594M1984.53 839.644H2120.35M1938.1 809.532H2085.55M1643.22 809.532H1495.77M1643.22 809.532L1612.79 781.905M2085.55 809.532H2120.35M2085.55 809.532L2120.35 829.283M1612.79 781.905H1471.43M2035.33 872.594L2091.15 908.801M2035.33 872.594H2120.35M1921.84 908.801L1974.67 948.774M1921.84 908.801H2091.15M1921.84 908.801H1752.54M2091.15 908.801L2120.35 927.737M2091.15 908.801H2120.35M1974.67 948.774H1796.56M1974.67 948.774L2120.35 948.773M1796.56 948.774H1618.45M1796.56 948.774L1752.54 908.801M1752.54 908.801H1583.23M1027.83 416.665L1028.1 417.281L1028.37 417.9L1028.65 418.522L1028.92 419.147L1029.75 421.037L1030.03 421.673M1027.83 416.665H1088.74M1027.83 416.665H966.914M1085.55 411.833L1083.22 408.318L1082.46 407.166M1085.55 411.833L1087.53 414.833L1088.74 416.665M1085.55 411.833H1145.4M1082.46 407.166H1141.29M1082.46 407.166L1080.22 403.77L1079.48 402.658M1021.66 402.658L1021.41 402.104L1020.45 399.916L1019.74 398.298M1021.66 402.658H1079.48M1021.66 402.658H963.828M1088.74 416.665L1089.15 417.281L1089.56 417.9L1089.97 418.522L1090.38 419.147L1092.05 421.673M1088.74 416.665H1149.65M1145.4 411.833L1142.3 408.318L1141.29 407.166M1145.4 411.833L1149.65 416.665M1141.29 407.166L1139.28 404.893L1137.8 403.213L1137.31 402.658M1079.48 402.658L1079.12 402.104L1078.39 401.006L1077.67 399.916L1077.32 399.374L1076.6 398.298M1079.48 402.658H1137.31M1149.65 416.665L1152.95 420.404L1154.07 421.673M1195.14 402.658L1191.53 399.374L1190.34 398.298M1195.14 402.658H1137.31M1137.31 402.658L1133.95 398.835L1133.47 398.298M1030.03 421.673H1092.05M1030.03 421.673H968.016M1095.48 426.865L1092.05 421.673M1095.48 426.865L1099.04 432.252M1095.48 426.865H1158.64M1092.05 421.673H1154.07M968.016 421.673H906M968.016 421.673L966.914 416.665M1154.07 421.673L1158.64 426.865M966.914 416.665H906M1099.04 432.252L1099.95 433.63L1101.33 435.723L1102.74 437.845M1099.04 432.252H1163.39M1158.64 426.865L1159.22 427.527L1163.39 432.252M1163.39 432.252L1163.99 432.939L1164.6 433.63L1165.21 434.325L1168.31 437.845M1037.16 437.845L1039.72 443.657M1037.16 437.845H1102.74M1037.16 437.845H971.579M1102.74 437.845L1106.58 443.657M1102.74 437.845H1168.31M1168.31 437.845L1172.14 442.183L1172.78 442.918L1173.43 443.657M1039.72 443.657H1106.58M1039.72 443.657H972.859M1110.57 449.7L1111.08 450.473L1111.59 451.249L1112.11 452.029L1114.72 455.989M1110.57 449.7L1108.55 446.649L1108.05 445.895L1107.56 445.145L1106.58 443.657M1110.57 449.7H1178.76M1106.58 443.657H1173.43M972.859 443.657H906M972.859 443.657L971.579 437.845M1173.43 443.657L1178.76 449.7M971.579 437.845H906M1114.72 455.989L1118.5 461.705L1119.05 462.539M1114.72 455.989H1184.3M1178.76 449.7L1180.12 451.249L1184.3 455.989M1184.3 455.989L1186.44 458.413L1190.07 462.539M1048.03 462.539L1049.52 465.916L1049.9 466.772L1051.04 469.366M1048.03 462.539H1119.05M1048.03 462.539H977.018M1119.05 462.539L1123.56 469.366M1119.05 462.539H1190.07M1190.07 462.539L1196.08 469.366M1051.04 469.366H1123.56M1051.04 469.366H978.521M1128.27 476.488L1123.56 469.366M1128.27 476.488L1133.18 483.924M1128.27 476.488H1202.36M1123.56 469.366H1196.08M978.521 469.366H906M978.521 469.366L978.139 467.632L977.387 464.218L977.018 462.539M1196.08 469.366L1202.36 476.488M977.018 462.539H906M1133.18 483.924L1137.01 489.722L1138.32 491.698M1133.18 483.924H1208.91M1202.36 476.488L1208.91 483.924M1208.91 483.924L1212.3 487.768L1215.76 491.698M1060.88 491.698L1064.46 499.831M1060.88 491.698H1138.32M1060.88 491.698H983.44M1138.32 491.698L1143.69 499.831M1138.32 491.698H1215.76M1215.76 491.698L1222.92 499.831M1064.46 499.831H1143.69M1064.46 499.831H985.231M1149.32 508.349L1147.89 506.182L1143.69 499.831M1149.32 508.349L1155.22 517.28M1149.32 508.349H1230.43M1143.69 499.831H1222.92M985.231 499.831H906M985.231 499.831L983.44 491.698M1222.92 499.831L1230.43 508.349M983.44 491.698H906M1155.22 517.28L1161.42 526.656M1155.22 517.28H1238.3M1230.43 508.349L1238.3 517.28M1238.3 517.28L1246.56 526.656M1076.28 526.656L1080.62 536.509M1076.28 526.656H1161.42M1076.28 526.656H991.14M1161.42 526.656L1167.93 536.509M1161.42 526.656H1246.56M1246.56 526.656L1255.24 536.509M1080.62 536.509H1167.93M1080.62 536.509H993.309M1174.78 546.878L1167.93 536.509M1174.78 546.878L1182 557.804M1174.78 546.878H1264.37M1167.93 536.509H1255.24M993.309 536.509H906M993.309 536.509L991.404 527.861L991.14 526.656M1255.24 536.509L1264.37 546.878M991.14 526.656H906M1182 557.804L1189.62 569.333M1182 557.804H1274M1264.37 546.878L1271.54 555.018L1274 557.804M1274 557.804L1284.16 569.333M1095.08 569.333L1100.44 581.516M1095.08 569.333H1189.62M1095.08 569.333H1000.54M1189.62 569.333L1197.67 581.516M1189.62 569.333H1284.16M1284.16 569.333L1294.89 581.516M1100.44 581.516H1197.67M1100.44 581.516H1003.22M1206.19 594.412L1197.67 581.516M1206.19 594.412L1215.22 608.083M1206.19 594.412H1306.25M1197.67 581.516H1294.89M1003.22 581.516H906M1003.22 581.516L1000.54 569.333M1294.89 581.516L1306.25 594.412M1000.54 569.333H906M1215.22 608.083L1224.82 622.603M1215.22 608.083H1318.29M1306.25 594.412L1318.29 608.083M1318.29 608.083L1331.09 622.603M1118.54 622.603L1125.35 638.052M1118.54 622.603H1224.82M1118.54 622.603H1012.27M1224.82 622.603L1235.02 638.052M1224.82 622.603H1331.09M1331.09 622.603L1344.7 638.052M1125.35 638.052H1235.02M1125.35 638.052H1015.67M1245.91 654.524L1235.02 638.052M1245.91 654.524L1257.54 672.122M1245.91 654.524H1359.21M1235.02 638.052H1344.7M1015.67 638.052H906M1015.67 638.052L1012.27 622.603M1344.7 638.052L1359.21 654.524M1012.27 622.603H906M1257.54 672.122L1269.99 690.968M1257.54 672.122H1374.71M1359.21 654.524L1374.71 672.122M1374.71 672.122L1391.32 690.968M1148.66 690.968L1157.57 711.197M1148.66 690.968H1269.99M1148.66 690.968H1027.33M1269.99 690.968L1283.35 711.197M1269.99 690.968H1391.32M1391.32 690.968L1409.14 711.197M1157.57 711.197H1283.35M1157.57 711.197H1031.78M1297.74 732.969L1283.35 711.197M1297.74 732.969L1313.27 756.467M1297.74 732.969H1428.32M1283.35 711.197H1409.14M1031.78 711.197H906M1031.78 711.197L1027.33 690.968M1409.14 711.197L1428.32 732.969M1027.33 690.968H906M1313.27 756.467L1330.07 781.905M1313.27 756.467H1449.02M1428.32 732.969L1449.02 756.467M1449.02 756.467L1471.43 781.905M1188.72 781.905L1200.89 809.532M1188.72 781.905H1330.07M1188.72 781.905H1047.36M1330.07 781.905L1348.33 809.532M1330.07 781.905H1471.43M1471.43 781.905L1495.77 809.532M1200.89 809.532H1348.33M1200.89 809.532H1053.44M1368.23 839.644L1348.33 809.532M1368.23 839.644L1390 872.594M1368.23 839.644H1522.3M1348.33 809.532H1495.77M1053.44 809.532H906M1053.44 809.532L1047.36 781.905M1495.77 809.532L1522.3 839.644M1047.36 781.905H906M1390 872.594L1413.92 908.801M1390 872.594H1551.33M1522.3 839.644L1551.33 872.594M1551.33 872.594L1583.23 908.801M1244.61 908.801L1262.22 948.774M1244.61 908.801H1413.92M1244.61 908.801H1075.31M1413.92 908.801L1440.33 948.774M1413.92 908.801H1583.23M1583.23 908.801L1618.45 948.774M1440.33 948.774H1262.22M1440.33 948.774H1618.45M1262.22 948.774H1084.11M1084.11 948.774H906M1084.11 948.774L1075.31 908.801M1075.31 908.801H906M784.173 416.665L783.901 417.281L783.629 417.9L783.355 418.522L783.08 419.147L782.526 420.404L782.247 421.037L781.967 421.673M784.173 416.665H845.087M784.173 416.665H723.259M846.151 411.833L847.179 407.166M846.151 411.833L845.087 416.665M846.151 411.833H906M847.179 407.166L847.304 406.594L847.431 406.025L847.555 405.457L848.172 402.658M847.179 407.166H906M790.344 402.658L790.587 402.104L791.55 399.916L792.264 398.298M790.344 402.658H848.172M790.344 402.658H732.516M845.087 416.665L844.95 417.281L844.815 417.9L844.677 418.522L843.984 421.673M845.087 416.665H906M906 411.833V407.166M906 411.833V416.665M906 407.166V402.658M848.172 402.658H906M848.172 402.658L848.535 401.006L848.656 400.459L849.132 398.298M906 416.665V421.673M963.828 402.658L963.465 401.006L963.344 400.459L963.225 399.916L963.105 399.374L962.987 398.835L962.868 398.298M963.828 402.658H906M906 402.658V398.298M781.967 421.673H843.984M781.967 421.673H719.951M842.84 426.865L842.693 427.527L842.548 428.193L841.654 432.252M842.84 426.865L843.984 421.673M842.84 426.865H906M843.984 421.673H906M719.951 421.673H657.935M719.951 421.673L720.788 420.404L721.206 419.774L721.619 419.147L722.033 418.522L722.443 417.9L722.853 417.281L723.259 416.665M906 421.673V426.865M723.259 416.665H662.345M841.654 432.252L840.422 437.845M841.654 432.252H906M906 426.865V432.252M906 432.252V437.845M774.843 437.845L772.283 443.657M774.843 437.845H840.422M774.843 437.845H709.265M840.422 437.845L839.142 443.657M840.422 437.845H906M906 437.845V443.657M772.283 443.657H839.142M772.283 443.657H705.424M837.811 449.7L839.142 443.657M837.811 449.7L836.426 455.989M837.811 449.7H906M839.142 443.657H906M705.424 443.657H638.566M705.424 443.657L709.265 437.845M906 443.657V449.7M709.265 437.845H643.686M836.426 455.989L835.892 458.413L835.349 460.876L834.982 462.539M836.426 455.989H906M906 449.7V455.989M906 455.989V462.539M763.966 462.539L762.477 465.916L762.101 466.772L760.958 469.366M763.966 462.539H834.982M763.966 462.539H692.948M834.982 462.539L834.613 464.218L833.862 467.632L833.48 469.366M834.982 462.539H906M906 462.539V469.366M760.958 469.366H833.48M760.958 469.366H688.437M831.911 476.488L832.11 475.58L833.48 469.366M831.911 476.488L830.273 483.924M831.911 476.488H906M833.48 469.366H906M688.437 469.366H615.917M688.437 469.366L692.948 462.539M906 469.366V476.488M692.948 462.539H621.93M830.273 483.924L828.56 491.698M830.273 483.924H906M906 476.488V483.924M906 483.924V491.698M751.12 491.698L747.538 499.831M751.12 491.698H828.56M751.12 491.698H673.681M828.56 491.698L826.769 499.831M828.56 491.698H906M906 491.698V499.831M747.538 499.831H826.769M747.538 499.831H668.307M824.893 508.349L826.769 499.831M824.893 508.349L822.926 517.28M824.893 508.349H906M826.769 499.831H906M668.307 499.831H589.076M668.307 499.831L673.681 491.698M906 499.831V508.349M673.681 491.698H596.241M822.926 517.28L820.861 526.656M822.926 517.28H906M906 508.349V517.28M906 517.28V526.656M735.721 526.656L731.381 536.509M735.721 526.656H820.861M735.721 526.656H650.583M820.861 526.656L818.691 536.509M820.861 526.656H906M906 526.656V536.509M731.381 536.509H818.691M731.381 536.509H644.072M816.407 546.878L818.691 536.509M816.407 546.878L814.001 557.804M816.407 546.878H906M818.691 536.509H906M644.072 536.509H556.762M644.072 536.509L650.583 526.656M906 536.509V546.878M650.583 526.656H565.443M814.001 557.804L811.461 569.333M814.001 557.804H906M906 546.878V557.804M906 557.804V569.333M716.923 569.333L711.555 581.516M716.923 569.333H811.461M716.923 569.333H622.383M811.461 569.333L808.778 581.516M811.461 569.333H906M906 569.333V581.516M711.555 581.516H808.778M711.555 581.516H614.333M805.938 594.412L808.778 581.516M805.938 594.412L802.926 608.083M805.938 594.412H906M808.778 581.516H906M614.333 581.516H517.111M614.333 581.516L622.383 569.333M906 581.516V594.412M622.383 569.333H527.844M802.926 608.083L799.728 622.603M802.926 608.083H906M906 594.412V608.083M906 608.083V622.603M693.457 622.603L686.651 638.052M693.457 622.603H799.728M693.457 622.603H587.185M799.728 622.603L796.326 638.052M799.728 622.603H906M906 622.603V638.052M686.651 638.052H796.326M686.651 638.052H576.977M792.698 654.524L796.326 638.052M792.698 654.524L788.822 672.122M792.698 654.524H906M796.326 638.052H906M576.977 638.052H467.302M576.977 638.052L587.185 622.603M906 638.052V654.524M587.185 622.603H480.913M788.822 672.122L784.67 690.968M788.822 672.122H906M906 654.524V672.122M906 672.122V690.968M663.342 690.968L654.431 711.197M663.342 690.968H784.67M663.342 690.968H542.013M784.67 690.968L780.215 711.197M784.67 690.968H906M906 690.968V711.197M654.431 711.197H780.215M654.431 711.197H528.646M775.42 732.969L780.215 711.197M775.42 732.969L770.245 756.467M775.42 732.969H906M780.215 711.197H906M528.646 711.197H402.861M528.646 711.197L542.013 690.968M906 711.197V732.969M542.013 690.968H420.683M770.245 756.467L764.641 781.905M770.245 756.467H906M906 732.969V756.467M906 756.467V781.905M623.284 781.905L611.114 809.532M623.284 781.905H764.641M623.284 781.905H481.925M764.641 781.905L758.557 809.532M764.641 781.905H906M906 781.905V809.532M611.114 809.532H758.557M611.114 809.532H463.671M751.925 839.644L758.557 809.532M751.925 839.644L744.668 872.594M751.925 839.644H906M758.557 809.532H906M463.671 809.532H316.228M463.671 809.532L481.925 781.905M906 809.532V839.644M481.925 781.905H340.568M744.668 872.594L736.692 908.801M744.668 872.594H906M906 839.644V872.594M906 872.594V908.801M567.386 908.801L549.778 948.774M567.386 908.801H736.692M567.386 908.801H398.078M736.692 908.801L727.888 948.774M736.692 908.801H906M906 908.801V948.774M727.888 948.774H549.778M727.888 948.774H906M549.778 948.774H371.666M371.666 948.774H193.555M371.666 948.774L398.078 908.801M398.078 908.801H228.771M540.519 416.665L537.24 419.147L533.902 421.673M540.519 416.665H601.432M540.519 416.665H479.605M606.754 411.833L611.893 407.166M606.754 411.833L601.432 416.665M606.754 411.833H666.603M611.893 407.166H670.714M611.893 407.166L615.632 403.77L616.858 402.658M559.03 402.658H616.858M559.03 402.658L561.213 401.006L564.79 398.298M559.03 402.658H501.202M601.432 416.665L595.918 421.673M601.432 416.665H662.345M666.603 411.833L670.714 407.166M666.603 411.833L662.345 416.665M670.714 407.166L672.718 404.893L674.198 403.213L674.686 402.658M616.858 402.658H674.686M616.858 402.658L620.473 399.374L621.658 398.298M662.345 416.665L659.051 420.404L657.935 421.673M732.516 402.658L732.88 402.104L733.606 401.006L734.684 399.374L735.396 398.298M732.516 402.658H674.686M674.686 402.658L675.173 402.104L676.142 401.006L678.527 398.298M533.902 421.673H595.918M533.902 421.673H471.884M590.199 426.865L590.927 426.205L591.649 425.548L594.508 422.952L595.918 421.673M590.199 426.865L585.771 430.886L584.267 432.252M590.199 426.865H653.36M595.918 421.673H657.935M471.884 421.673H409.868M471.884 421.673L477.7 417.9L479.605 416.665M657.935 421.673L653.36 426.865M479.605 416.665H418.691M584.267 432.252L583.51 432.939L582.749 433.63L580.445 435.723L579.669 436.427L578.108 437.845M584.267 432.252H648.613M653.36 426.865L652.776 427.527L648.613 432.252M648.613 432.252L648.008 432.939L647.399 433.63L646.788 434.325L643.686 437.845M512.529 437.845L504.848 443.657M512.529 437.845H578.108M512.529 437.845H446.951M578.108 437.845L571.707 443.657M578.108 437.845H643.686M643.686 437.845L638.566 443.657M504.848 443.657H571.707M504.848 443.657H437.99M565.052 449.7L571.707 443.657M565.052 449.7L558.127 455.989M565.052 449.7H633.241M571.707 443.657H638.566M437.99 443.657H371.131M437.99 443.657L446.951 437.845M638.566 443.657L633.241 449.7M446.951 437.845H381.371M558.127 455.989L550.914 462.539M558.127 455.989H627.701M633.241 449.7L631.877 451.249L627.701 455.989M627.701 455.989L625.565 458.413L623.395 460.876L621.93 462.539M479.896 462.539L475.432 465.916L470.875 469.366M479.896 462.539H550.914M479.896 462.539H408.878M550.914 462.539L543.395 469.366M550.914 462.539H621.93M621.93 462.539L615.917 469.366M470.875 469.366H543.395M470.875 469.366H398.354M535.552 476.488L543.395 469.366M535.552 476.488L527.362 483.924M535.552 476.488H609.641M543.395 469.366H615.917M398.354 469.366H325.832M398.354 469.366L408.878 462.539M615.917 469.366L609.641 476.488M408.878 462.539H337.862M527.362 483.924L525.257 485.835L518.802 491.698M527.362 483.924H603.089M609.641 476.488L603.089 483.924M603.089 483.924L602.25 484.878L599.704 487.768L596.241 491.698M441.362 491.698L430.614 499.831M441.362 491.698H518.802M441.362 491.698H363.922M518.802 491.698L509.845 499.831M518.802 491.698H596.241M596.241 491.698L589.076 499.831M430.614 499.831H509.845M430.614 499.831H351.383M500.464 508.349L506.379 502.979L509.845 499.831M500.464 508.349L490.628 517.28M500.464 508.349H581.571M509.845 499.831H589.076M351.383 499.831H272.152M351.383 499.831L363.922 491.698M589.076 499.831L581.571 508.349M363.922 491.698H286.482M490.628 517.28L480.303 526.656M490.628 517.28H573.703M581.571 508.349L573.703 517.28M573.703 517.28L565.443 526.656M395.164 526.656L382.143 536.509M395.164 526.656H480.303M395.164 526.656H310.026M480.303 526.656L469.453 536.509M480.303 526.656H565.443M565.443 526.656L556.762 536.509M382.143 536.509H469.453M382.143 536.509H294.834M458.034 546.878L469.453 536.509M458.034 546.878L446.002 557.804M458.034 546.878H547.628M469.453 536.509H556.762M294.834 536.509H207.525M294.834 536.509L310.026 526.656M556.762 536.509L547.628 546.878M310.026 526.656H224.886M446.002 557.804L433.306 569.333M446.002 557.804H538.001M547.628 546.878L538.001 557.804M538.001 557.804L527.844 569.333M338.766 569.333L322.666 581.516M338.766 569.333H433.306M338.766 569.333H244.227M433.306 569.333L419.889 581.516M433.306 569.333H527.844M527.844 569.333L517.111 581.516M322.666 581.516H419.889M322.666 581.516H225.444M405.687 594.412L419.889 581.516M405.687 594.412L390.632 608.083M405.687 594.412H505.75M419.889 581.516H517.111M225.444 581.516H128.221M225.444 581.516L244.227 569.333M517.111 581.516L505.75 594.412M244.227 569.333H149.689M390.632 608.083L374.641 622.603M390.632 608.083H493.706M505.75 594.412L493.706 608.083M493.706 608.083L480.913 622.603M268.37 622.603L247.953 638.052M268.37 622.603H374.641M268.37 622.603H162.098M374.641 622.603L357.628 638.052M374.641 622.603H480.913M480.913 622.603L467.302 638.052M247.953 638.052H357.628M247.953 638.052H138.279M339.489 654.524L357.628 638.052M339.489 654.524L320.107 672.122M339.489 654.524H452.791M357.628 638.052H467.302M138.279 638.052H28.6047M138.279 638.052L162.098 622.603M467.302 638.052L452.791 654.524M162.098 622.603H55.8262M320.107 672.122L299.354 690.968M320.107 672.122H437.287M452.791 654.524L437.287 672.122M437.287 672.122L420.683 690.968M178.025 690.968L151.292 711.197M178.025 690.968H299.354M178.025 690.968H56.6953M299.354 690.968L277.076 711.197M299.354 690.968H420.683M420.683 690.968L402.861 711.197M151.292 711.197H277.076M151.292 711.197H25.5068M253.099 732.969L277.076 711.197M253.099 732.969L227.222 756.467M253.099 732.969H383.68M277.076 711.197H402.861M25.5068 711.197H-100.278M25.5068 711.197L56.6953 690.968M402.861 711.197L383.68 732.969M56.6953 690.968H-64.6343M227.222 756.467L199.209 781.905M227.222 756.467H362.977M383.68 732.969L362.977 756.467M362.977 756.467L340.568 781.905M57.8514 781.905L21.3413 809.532M57.8514 781.905H199.209M57.8514 781.905H-83.5073M199.209 781.905L168.784 809.532M199.209 781.905H340.568M340.568 781.905L316.228 809.532M21.3413 809.532H168.784M21.3413 809.532H-126.102M135.623 839.644L168.784 809.532M135.623 839.644L99.3365 872.594M135.623 839.644H289.698M168.784 809.532H316.228M-126.102 809.532H-273.545M-126.102 809.532L-83.5073 781.905M316.228 809.532L289.698 839.644M-83.5073 781.905H-224.865M99.3365 872.594L59.4642 908.801M99.3365 872.594H260.67M289.698 839.644L260.67 872.594M260.67 872.594L228.771 908.801M-109.843 908.801L-162.667 948.774M-109.843 908.801H59.4642M-109.843 908.801H-279.151M59.4642 908.801L15.4442 948.774M59.4642 908.801H228.771M228.771 908.801L193.555 948.774M15.4442 948.774H-162.667M15.4442 948.774H193.555M-162.667 948.774L-308.346 948.773M-279.151 908.801L-308.346 927.737M-279.151 908.801H-308.346M296.864 416.665L285.835 421.673M296.864 416.665H357.777M296.864 416.665H235.95M367.357 411.833L376.607 407.166M367.357 411.833L357.777 416.665M367.357 411.833H427.206M376.607 407.166H435.428M376.607 407.166L385.545 402.658M327.716 402.658H385.545M327.716 402.658L331.355 401.006L337.318 398.298M327.716 402.658H269.888M357.777 416.665L347.851 421.673M357.777 416.665H418.691M427.206 411.833L435.428 407.166M427.206 411.833L418.691 416.665M435.428 407.166L441.413 403.77L443.373 402.658M385.545 402.658L386.641 402.104L394.186 398.298M385.545 402.658H443.373M418.691 416.665L409.868 421.673M501.202 402.658L507.922 398.298M501.202 402.658H443.373M443.373 402.658L446.284 401.006L451.054 398.298M285.835 421.673H347.851M285.835 421.673H223.818M337.56 426.865L347.851 421.673M337.56 426.865L326.881 432.252M337.56 426.865H400.72M347.851 421.673H409.868M223.818 421.673H161.802M223.818 421.673L235.95 416.665M409.868 421.673L400.72 426.865M235.95 416.665H175.037M326.881 432.252L324.147 433.63L315.792 437.845M326.881 432.252H391.227M400.72 426.865L391.227 432.252M391.227 432.252L381.371 437.845M250.214 437.845L248.642 438.56L237.414 443.657M250.214 437.845H315.792M250.214 437.845H184.635M315.792 437.845L304.273 443.657M315.792 437.845H381.371M381.371 437.845L380.114 438.56L371.131 443.657M237.414 443.657H304.273M237.414 443.657H170.555M292.294 449.7L304.273 443.657M292.294 449.7L279.828 455.989M292.294 449.7H360.483M304.273 443.657H371.131M170.555 443.657H103.697M170.555 443.657L184.635 437.845M371.131 443.657L360.483 449.7M184.635 437.845H119.057M279.828 455.989L266.844 462.539M279.828 455.989H349.402M360.483 449.7L349.402 455.989M349.402 455.989L337.862 462.539M195.828 462.539L180.791 469.366M195.828 462.539H266.844M195.828 462.539H124.81M266.844 462.539L253.312 469.366M266.844 462.539H337.862M337.862 462.539L325.832 469.366M180.791 469.366H253.312M180.791 469.366H108.27M239.194 476.488L253.312 469.366M239.194 476.488L224.451 483.924M239.194 476.488H313.283M253.312 469.366H325.832M108.27 469.366H35.7491M108.27 469.366L124.81 462.539M325.832 469.366L313.283 476.488M124.81 462.539H53.7922M224.451 483.924L209.043 491.698M224.451 483.924H300.179M313.283 476.488L300.179 483.924M300.179 483.924L286.482 491.698M131.603 491.698L113.69 499.831M131.603 491.698H209.043M131.603 491.698H54.1628M209.043 491.698L192.921 499.831M209.043 491.698H286.482M286.482 491.698L272.152 499.831M113.69 499.831H192.921M113.69 499.831H34.4588M176.035 508.349L192.921 499.831M176.035 508.349L158.331 517.28M176.035 508.349H257.142M192.921 499.831H272.152M34.4588 499.831H-44.7722M34.4588 499.831L54.1628 491.698M272.152 499.831L257.142 508.349M54.1628 491.698H-23.277M158.331 517.28L139.746 526.656M158.331 517.28H241.405M257.142 508.349L241.405 517.28M241.405 517.28L224.886 526.656M54.6068 526.656L32.9055 536.509M54.6068 526.656H139.746M54.6068 526.656H-30.5315M139.746 526.656L120.214 536.509M139.746 526.656H224.886M224.886 526.656L207.525 536.509M32.9055 536.509H120.214M32.9055 536.509H-54.4047M99.6604 546.878L120.214 536.509M99.6604 546.878L78.0033 557.804M99.6604 546.878H189.254M120.214 536.509H207.525M-54.4047 536.509H-141.714M-54.4047 536.509L-30.5315 526.656M207.525 536.509L189.254 546.878M-30.5315 526.656H-115.671M78.0033 557.804L55.1495 569.333M78.0033 557.804H170.003M189.254 546.878L170.003 557.804M170.003 557.804L149.689 569.333M-39.3899 569.333L-66.2231 581.516M-39.3899 569.333H55.1495M-39.3899 569.333H-133.928M55.1495 569.333L30.9992 581.516M55.1495 569.333H149.689M149.689 569.333L128.221 581.516M-66.2231 581.516H30.9992M-66.2231 581.516H-163.445M5.43721 594.412L30.9992 581.516M5.43721 594.412L-21.663 608.083M5.43721 594.412H105.499M30.9992 581.516H128.221M-163.445 581.516H-260.668M-163.445 581.516L-133.928 569.333M128.221 581.516L105.499 594.412M-133.928 569.333H-228.467M-21.663 608.083L-50.4455 622.603M-21.663 608.083H81.411M105.499 594.412L81.411 608.083M81.411 608.083L55.8262 622.603M-156.717 622.603L-190.744 638.052M-156.717 622.603H-50.4455M-156.717 622.603H-262.989M-50.4455 622.603L-81.0697 638.052M-50.4455 622.603H55.8262M55.8262 622.603L28.6047 638.052M-190.744 638.052H-81.0697M-190.744 638.052H-300.419M-113.722 654.524L-81.0697 638.052M-113.722 654.524L-148.606 672.122M-113.722 654.524H-0.419483M-81.0697 638.052H28.6047M-300.419 638.052L-262.989 622.603M-300.419 638.052H-308.346M-300.419 638.052L-308.346 641.324M28.6047 638.052L-0.419483 654.524M-262.989 622.603H-308.346M-148.606 672.122L-185.963 690.968M-148.606 672.122H-31.4283M-0.419483 654.524L-31.4283 672.122M-31.4283 672.122L-64.6343 690.968M-307.292 690.968H-185.963M-307.292 690.968H-308.346M-307.292 690.968L-308.346 691.446M-185.963 690.968L-226.064 711.197M-185.963 690.968H-64.6343M-64.6343 690.968L-100.278 711.197M-269.221 732.969L-226.064 711.197M-269.221 732.969H-138.641M-269.221 732.969H-308.346M-269.221 732.969L-308.346 752.707M-226.064 711.197H-100.278M-226.064 711.197H-308.346M-100.278 711.197L-138.641 732.969M-138.641 732.969L-180.044 756.467M-180.044 756.467L-224.865 781.905M-180.044 756.467H-308.346M-224.865 781.905L-273.545 809.532M-224.865 781.905H-308.346M-273.545 809.532H-308.346M-273.545 809.532L-308.346 829.283M53.2091 416.665L37.7692 421.673M53.2091 416.665H114.124M53.2091 416.665H-7.7043M127.96 411.833L141.321 407.166M127.96 411.833L114.124 416.665M127.96 411.833H187.809M141.321 407.166H200.142M141.321 407.166L154.231 402.658M96.4031 402.658H154.231M96.4031 402.658L109.844 398.298M96.4031 402.658H38.575M114.124 416.665L99.7856 421.673M114.124 416.665H175.037M187.809 411.833L200.142 407.166M187.809 411.833L175.037 416.665M200.142 407.166L212.059 402.658M154.231 402.658L155.814 402.104L166.712 398.298M154.231 402.658H212.059M175.037 416.665L161.802 421.673M269.888 402.658L280.449 398.298M269.888 402.658H212.059M212.059 402.658L213.52 402.104L223.581 398.298M37.7692 421.673H99.7856M37.7692 421.673H-24.2472M84.9187 426.865L99.7856 421.673M84.9187 426.865L69.4939 432.252M84.9187 426.865H148.08M99.7856 421.673H161.802M-24.2472 421.673H-86.2636M-24.2472 421.673L-7.7043 416.665M161.802 421.673L148.08 426.865M-7.7043 416.665H-68.6177M69.4939 432.252L53.4785 437.845M69.4939 432.252H133.84M148.08 426.865L146.328 427.527L133.84 432.252M133.84 432.252L119.057 437.845M-12.0999 437.845L-30.0204 443.657M-12.0999 437.845H53.4785M-12.0999 437.845H-77.6784M53.4785 437.845L36.8382 443.657M53.4785 437.845H119.057M119.057 437.845L103.697 443.657M-30.0204 443.657H36.8382M-30.0204 443.657H-96.879M19.535 449.7L36.8382 443.657M19.535 449.7L1.52854 455.989M19.535 449.7H87.7243M36.8382 443.657H103.697M-96.879 443.657H-163.738M-96.879 443.657L-77.6784 437.845M103.697 443.657L87.7243 449.7M-77.6784 437.845H-143.257M1.52854 455.989L-17.2243 462.539M1.52854 455.989H71.103M87.7243 449.7L71.103 455.989M71.103 455.989L53.7922 462.539M-88.242 462.539L-109.293 469.366M-88.242 462.539H-17.2243M-88.242 462.539H-159.26M-17.2243 462.539L-36.7714 469.366M-17.2243 462.539H53.7922M53.7922 462.539L35.7491 469.366M-109.293 469.366H-36.7714M-109.293 469.366H-181.814M-57.1648 476.488L-36.7714 469.366M-57.1648 476.488L-78.4589 483.924M-57.1648 476.488H16.9255M-36.7714 469.366H35.7491M-181.814 469.366H-254.334M-181.814 469.366L-159.26 462.539M35.7491 469.366L16.9255 476.488M-159.26 462.539H-230.276M-78.4589 483.924L-100.717 491.698M-78.4589 483.924H-2.7318M16.9255 476.488L-2.7318 483.924M-2.7318 483.924L-23.277 491.698M-178.157 491.698L-203.234 499.831M-178.157 491.698H-100.717M-178.157 491.698H-255.595M-100.717 491.698L-124.003 499.831M-100.717 491.698H-23.277M-23.277 491.698L-44.7722 499.831M-203.234 499.831H-124.003M-148.394 508.349L-124.003 499.831M-148.394 508.349L-173.966 517.28M-148.394 508.349H-67.2857M-124.003 499.831H-44.7722M-44.7722 499.831L-67.2857 508.349M-255.595 491.698H-308.346M-173.966 517.28L-200.811 526.656M-173.966 517.28H-90.892M-67.2857 508.349L-90.892 517.28M-90.892 517.28L-115.671 526.656M-285.95 526.656H-200.811M-285.95 526.656H-308.346M-285.95 526.656L-308.346 533.919M-200.811 526.656L-229.024 536.509M-200.811 526.656H-115.671M-115.671 526.656L-141.714 536.509M-258.712 546.878L-229.024 536.509M-258.712 546.878L-289.995 557.804M-258.712 546.878H-169.119M-258.712 546.878H-308.346M-229.024 536.509H-141.714M-229.024 536.509H-308.346M-141.714 536.509L-169.119 546.878M-308.593 533.999L-308.346 533.919M-289.995 557.804H-197.996M-289.995 557.804H-308.346M-289.995 557.804L-308.346 564.213M-169.119 546.878L-197.996 557.804M-197.996 557.804L-228.467 569.333M-228.467 569.333L-260.668 581.516M-228.467 569.333H-308.346M-294.75 594.412L-260.668 581.516M-294.75 594.412H-308.346M-294.75 594.412L-308.346 599.555M-260.668 581.516H-308.346M-190.444 416.665L-210.296 421.673M-190.444 416.665H-129.531M-190.444 416.665H-251.359M-111.437 411.833L-93.9646 407.166M-111.437 411.833L-129.531 416.665M-111.437 411.833H-51.5877M-93.9646 407.166H-35.1434M-93.9646 407.166L-77.0827 402.658M-134.911 402.658H-77.0827M-134.911 402.658L-117.629 398.298M-134.911 402.658H-192.739M-129.531 416.665L-148.28 421.673M-129.531 416.665H-68.6177M-51.5877 411.833L-35.1434 407.166M-51.5877 411.833L-68.6177 416.665M-35.1434 407.166L-19.2545 402.658M-77.0827 402.658H-19.2545M-77.0827 402.658L-60.7598 398.298M-68.6177 416.665L-86.2636 421.673M38.575 402.658L52.9763 398.298M38.575 402.658H-19.2545M-19.2545 402.658L-3.89175 398.298M-210.296 421.673H-148.28M-210.296 421.673H-272.313M-167.721 426.865L-148.28 421.673M-167.721 426.865L-187.892 432.252M-167.721 426.865H-104.561M-148.28 421.673H-86.2636M-272.313 421.673L-251.359 416.665M-272.313 421.673H-308.346M-86.2636 421.673L-104.561 426.865M-251.359 416.665H-308.346M-187.892 432.252L-208.835 437.845M-187.892 432.252H-123.545M-104.561 426.865L-123.545 432.252M-123.545 432.252L-143.257 437.845M-274.414 437.845L-297.455 443.657M-274.414 437.845H-208.835M-274.414 437.845H-308.346M-208.835 437.845L-230.596 443.657M-208.835 437.845H-143.257M-143.257 437.845L-163.738 443.657M-253.224 449.7L-230.596 443.657M-253.224 449.7L-276.77 455.989M-253.224 449.7H-185.034M-253.224 449.7H-308.346M-230.596 443.657H-297.455M-230.596 443.657H-163.738M-297.455 443.657L-308.346 446.404M-297.455 443.657H-308.346M-163.738 443.657L-185.034 449.7M-276.77 455.989L-301.294 462.539M-276.77 455.989H-207.196M-276.77 455.989H-308.346M-185.034 449.7L-207.196 455.989M-207.196 455.989L-230.276 462.539M-301.294 462.539H-230.276M-301.294 462.539L-308.346 464.422M-301.294 462.539H-308.346M-230.276 462.539L-254.334 469.366M-279.433 476.488L-254.334 469.366M-279.433 476.488L-305.642 483.924M-279.433 476.488H-308.346M-254.334 469.366H-308.346M-308.726 469.366H-308.346M-305.642 483.924H-308.346M-305.642 483.924L-308.346 484.692M-309 484.878L-308.346 484.692M-290.985 411.833L-270.429 407.166M-290.985 411.833H-308.346M-290.985 411.833L-308.346 415.774M-270.429 407.166L-250.567 402.658M-270.429 407.166H-308.346M-192.739 402.658L-174.497 398.298M-192.739 402.658H-250.567M-250.567 402.658L-231.365 398.298M-250.567 402.658H-308.346M1702.16 398.298H1759.02M1702.16 398.298H1645.29M1745.09 394.082L1748.53 395.123L1759.02 398.298M1745.09 394.082H1801.03M1759.02 398.298H1815.89M1801.03 394.082L1804.7 395.123L1806.55 395.646L1815.89 398.298M1815.89 398.298H1872.76M1872.76 398.298H1929.63M1645.29 398.298H1588.42M1929.63 398.298H1986.5M1986.5 398.298L1968.85 394.082M1986.5 398.298H2043.37M1968.85 394.082H2024.79M1474.68 398.298H1531.55M1474.68 398.298H1417.81M1521.33 394.082L1523.86 395.123L1525.13 395.646L1531.55 398.298M1521.33 394.082H1577.27M1531.55 398.298H1588.42M1577.27 394.082L1588.42 398.298M1417.81 398.298H1360.95M1247.21 398.298H1304.08M1247.21 398.298H1190.34M1297.58 394.082L1298.38 394.601L1299.18 395.123L1299.99 395.646L1304.08 398.298M1297.58 394.082H1353.52M1304.08 398.298H1360.95M1353.52 394.082L1360.95 398.298M1190.34 398.298H1133.47M1019.74 398.298H1076.6M1019.74 398.298H962.868M1073.82 394.082L1076.6 398.298M1073.82 394.082H1129.76M1076.6 398.298H1133.47M1129.76 394.082L1130.22 394.601L1130.68 395.123L1131.14 395.646L1133.47 398.298M962.868 398.298H906M792.264 398.298H849.132M792.264 398.298H735.396M850.06 394.082L849.132 398.298M850.06 394.082H906M849.132 398.298H906M906 394.082V398.298M735.396 398.298H678.527M564.79 398.298H621.658M564.79 398.298H507.922M626.302 394.082L625.156 395.123L622.834 397.231L621.658 398.298M626.302 394.082H682.242M621.658 398.298H678.527M682.242 394.082L681.784 394.601L681.325 395.123L680.863 395.646L678.527 398.298M507.922 398.298H451.054M337.318 398.298H394.186M337.318 398.298H280.449M402.545 394.082L400.48 395.123L399.442 395.646L394.186 398.298M402.545 394.082H458.484M394.186 398.298H451.054M458.484 394.082L457.569 394.601L451.054 398.298M280.449 398.298H223.581M109.844 398.298H166.712M109.844 398.298H52.9763M178.786 394.082L175.805 395.123L174.305 395.646L166.712 398.298M178.786 394.082H234.726M166.712 398.298H223.581M234.726 394.082L233.352 394.601L223.581 398.298M52.9763 398.298H-3.89175M-117.629 398.298H-60.7598M-117.629 398.298H-174.497M-44.972 394.082L-60.7598 398.298M-44.972 394.082H10.9676M-60.7598 398.298H-3.89175M10.9676 394.082L7.29923 395.123L5.45242 395.646L-3.89175 398.298M-174.497 398.298H-231.365M-268.729 394.082L-288.233 398.298M-268.729 394.082H-212.79M-268.729 394.082H-308.346M-288.233 398.298H-231.365M-288.233 398.298L-308.346 402.647M-288.233 398.298H-308.346M-212.79 394.082L-217.376 395.123L-231.365 398.298M2024.79 394.082L2029.38 395.123L2043.37 398.298M2043.37 398.298H2100.23M2100.23 398.298L2120.35 402.647M2100.23 398.298H2120.35M2120.35 599.555V594.412M2120.35 599.555V608.083M2120.35 594.412V581.516M2120.35 608.083V610.631V622.603M2120.35 622.603V638.052M2120.35 499.831V491.698M2120.35 499.831V507.665M2120.35 394.082V398.298M2120.35 398.298V402.647M2120.35 402.647L2120.4 402.658H2120.35M2120.35 402.647V402.658M2120.35 402.658V407.166M2120.35 407.166V411.833M2120.35 411.833V415.774M2120.35 415.774V416.665M2120.35 416.665V421.673M2120.35 421.673V426.865M2120.35 426.865V430.283M2120.35 430.283V432.252M2120.35 432.252V437.845M2120.35 437.845V443.657M2120.35 443.657V446.404M2120.35 446.404V449.7M2120.35 449.7V455.989M2120.35 455.989V462.539M2120.35 462.539V464.422M2120.35 464.422V469.366M2120.35 469.366V476.488M2120.35 476.488V483.924M2120.35 483.924V484.692M2120.35 484.692V491.698M2120.35 508.349V517.28M2120.35 508.349V507.665M2120.35 517.28V526.656M2120.35 526.656V533.919M2120.35 533.919V536.509M2120.35 536.509V546.878M2120.35 546.878V557.804M2120.35 557.804V564.213M2120.35 564.213V569.333M2120.35 569.333V581.516M2120.35 638.052V641.324M2120.35 641.324V654.524M2120.35 654.524V672.122M2120.35 672.122V690.968M2120.35 690.968V691.446M2120.35 691.446V711.197M2120.35 711.197V732.969M2120.35 732.969V752.707M2120.35 752.707V756.467M2120.35 756.467V781.905M2120.35 781.905V809.532M2120.35 809.532V829.283M2120.35 829.283V839.644M2120.35 839.644V872.594M2120.35 872.594V908.801M2120.35 908.801V927.737M2120.35 927.737V948.773M2120.35 948.773V948.916H-308.346V948.773M-308.346 508.349V517.28M-308.346 508.349V507.665M-308.346 507.665V499.831M-308.346 499.831V491.698M-308.346 491.698V484.692M-308.346 484.692V483.924M-308.346 483.924V476.488M-308.346 476.488V469.366M-308.346 469.366V464.422M-308.346 464.422V462.539M-308.346 462.539V455.989M-308.346 455.989V449.7M-308.346 449.7V446.404M-308.346 446.404V443.657M-308.346 443.657V437.845M-308.346 437.845V432.252M-308.346 432.252V430.283M-308.346 430.283V426.865M-308.346 426.865V421.673M-308.346 421.673V416.665M-308.346 416.665V415.774M-308.346 415.774V411.833M-308.346 411.833V407.166M-308.346 407.166V402.658M-308.346 402.658H-308.395L-308.346 402.647M-308.346 402.658V402.647M-308.346 402.647V398.298M-308.346 398.298V394.082M-308.346 948.773V927.737M-308.346 927.737V908.801M-308.346 908.801V872.594M-308.346 872.594V839.644M-308.346 839.644V829.283M-308.346 829.283V809.532M-308.346 809.532V781.905M-308.346 781.905V756.467M-308.346 756.467V752.707M-308.346 752.707V732.969M-308.346 732.969V711.197M-308.346 711.197V691.446M-308.346 691.446V690.968M-308.346 690.968V672.122M-308.346 672.122V654.524M-308.346 654.524V641.324M-308.346 641.324V638.052M-308.346 638.052V622.603M-308.346 622.603V608.083M-308.346 608.083V599.555M-308.346 599.555V594.412M-308.346 594.412V581.516M-308.346 581.516V569.333M-308.346 569.333V564.213M-308.346 564.213V557.804M-308.346 557.804V546.878M-308.346 546.878V536.509M-308.346 536.509V533.919M-308.346 533.919V526.656M-308.346 526.656V517.28" stroke="url(#paint1_radial_17_171)" stroke-opacity="0.6" stroke-width="2" stroke-miterlimit="10" stroke-linecap="round" stroke-linejoin="round"/>
</g>
</g>
<defs>
<filter id="filter0_f_17_171" x="594" y="188" width="1072" height="1072" filterUnits="userSpaceOnUse" color-interpolation-filters="sRGB">
<feFlood flood-opacity="0" result="BackgroundImageFix"/>
<feBlend mode="normal" in="SourceGraphic" in2="BackgroundImageFix" result="shape"/>
<feGaussianBlur stdDeviation="75" result="effect1_foregroundBlur_17_171"/>
</filter>
<linearGradient id="paint0_linear_17_171" x1="799.584" y1="1035.15" x2="799.976" y2="-874.388" gradientUnits="userSpaceOnUse">
<stop stop-color="#27187E"/>
<stop offset="1" stop-color="#C4BAFF" stop-opacity="0.1"/>
</linearGradient>
<radialGradient id="paint1_radial_17_171" cx="0" cy="0" r="1" gradientUnits="userSpaceOnUse" gradientTransform="translate(906 928.316) rotate(-90) scale(874.909 3803.85)">
<stop stop-color="white"/>
<stop offset="0.489074" stop-color="white" stop-opacity="0"/>
</radialGradient>
<clipPath id="clip0_17_171">
<rect width="1600" height="950" fill="white"/>
</clipPath>
</defs>
</svg>
