<svg xmlns="http://www.w3.org/2000/svg" width="218" height="70" viewBox="0 0 218 70" fill="none">
    <g clip-path="url(#clip0_49_223)">
        <path d="M37.9633 69.7385C35.8157 69.7385 33.6595 69.7385 31.5119 69.7385C31.4857 69.6425 31.4072 69.6599 31.3373 69.6512C28.3779 69.3542 25.5058 68.699 22.7297 67.6595C15.2832 64.8555 9.39052 60.0948 5.21766 53.3249C0.101979 45.0438 -1.30352 36.0814 0.974962 26.6473C3.07885 17.9294 7.97629 11.0548 15.3617 6.00576C20.5996 2.43302 26.4312 0.502513 32.7603 0.11816C37.2038 -0.152635 41.5425 0.388954 45.7503 1.81281C54.1309 4.64305 60.5648 9.91044 65.0345 17.5364C67.3304 21.441 68.7447 25.6602 69.3645 30.1501C69.4343 30.6393 69.4081 31.1547 69.6002 31.6177C69.6002 33.8539 69.6002 36.0989 69.6002 38.3351C69.4605 38.3788 69.5129 38.5011 69.5042 38.5972C69.3645 39.7677 69.1986 40.9295 68.9542 42.0738C67.7233 47.8741 65.2178 53.0628 61.3505 57.5441C55.6063 64.2266 48.343 68.2186 39.6045 69.4939C39.0632 69.5813 38.4958 69.5551 37.9633 69.7385ZM37.5355 18.6807C37.7974 18.768 37.9982 18.6457 38.199 18.6021C39.9711 18.1566 41.752 18.0255 43.5504 18.3662C46.1169 18.8554 48.2907 19.9822 49.7311 22.2622C50.6477 23.7122 51.1802 25.302 51.2413 27.0229C51.3548 29.9405 50.4644 32.4999 48.2907 34.5091C46.8939 35.8019 45.1567 36.4745 43.3234 36.9025C40.7306 37.5053 38.1902 37.4004 35.7895 36.1164C34.4451 35.4001 33.319 34.3955 32.1841 33.3997C31.704 32.9804 31.6079 32.9978 31.25 33.5307C31.1016 33.7491 31.0056 33.9937 30.9532 34.247C30.8048 34.9371 30.831 35.6272 30.9008 36.3347C31.3111 36.2037 31.6952 36.0639 32.1143 36.0814C32.8738 36.1164 33.2753 36.5881 33.188 37.348C33.1182 37.9682 32.7166 38.3264 32.1841 38.4924C30.508 39.0252 28.9366 38.7719 27.5573 37.6712C26.8851 37.1384 26.6931 36.3959 26.8851 35.5486C26.9724 35.1642 27.1994 35.0244 27.566 35.0244C27.889 35.0332 28.1946 35.138 28.4914 35.2516C28.6136 35.2952 28.7446 35.3564 28.7795 35.1555C28.9192 34.4217 29.1112 33.6792 28.8842 32.9367C28.7708 32.9018 28.7096 32.9804 28.6311 33.0241C25.3399 34.9109 21.9353 35.0769 18.4608 33.6443C15.9204 32.596 14.2181 30.7529 13.7292 27.9576C13.7205 27.9139 13.7031 27.9052 13.6332 27.9576C13.3713 28.3681 13.1444 28.8311 12.9348 29.3116C10.8833 33.9587 9.91431 38.833 9.81828 43.8995C9.73972 47.8741 9.92304 51.8312 10.4206 55.7708C10.4556 56.0154 10.5603 56.1988 10.7262 56.3735C12.3761 58.1992 14.1832 59.8589 16.2085 61.2653C23.3844 66.2444 31.2849 68.0876 39.9188 66.786C44.8424 66.0435 49.312 64.1654 53.3802 61.309C56.6189 59.0291 59.3426 56.2425 61.5775 52.9668C61.7608 52.696 61.7957 52.4776 61.6386 52.1806C61.2981 51.5778 61.0013 50.9402 60.6608 50.3374C58.8276 47.0268 56.8895 43.7685 55.2745 40.3355C54.8904 39.5231 54.4365 38.7282 54.3055 37.8285C54.1309 36.6055 53.677 35.5224 52.9698 34.5091C52.4548 33.7666 52.2802 32.9192 52.385 32.0195C52.4286 31.6439 52.4286 31.2683 52.4111 30.8839C52.1842 27.5645 51.9659 24.2451 51.7302 20.9257C51.5731 18.7855 51.1802 16.6978 50.2898 14.7236C50.1676 14.4528 50.0366 14.3654 49.7311 14.4004C48.3692 14.5576 47.0336 14.8109 45.7154 15.1691C42.8345 15.964 40.1545 17.1782 37.5355 18.6807ZM7.7755 52.4776C7.7755 51.7263 7.80169 51.0625 7.76677 50.3898C7.66202 48.075 7.72312 45.7689 7.8628 43.4627C7.98502 41.4798 8.17708 39.4969 8.46516 37.5315C8.68341 36.0377 8.91911 34.5527 9.27703 33.0852C9.72226 31.2683 10.5865 29.626 11.3984 27.9663C12.4809 25.765 13.7904 23.686 15.1609 21.6507C16.8633 19.1087 18.8799 16.8812 21.3853 15.0992C24.336 12.994 27.5922 11.4129 30.7524 9.69205C31.6603 9.19414 32.0444 9.35138 32.5682 10.2424C33.7206 12.1904 34.611 14.2606 35.5015 16.3309C35.6237 16.6104 35.711 16.6803 35.9991 16.5493C37.326 15.9291 38.6704 15.37 40.041 14.8896C42.0488 14.1907 44.0567 13.5006 46.082 12.828C47.5923 12.3214 49.1025 11.8235 50.6914 11.6138C51.5818 11.5003 52.0619 11.7274 52.385 12.4699C52.481 12.697 52.5421 12.9329 52.6119 13.1687C52.9262 14.2781 53.0397 15.4137 53.2405 16.5405C53.4238 17.58 53.6508 18.6195 53.7992 19.6678C54.1571 22.1399 54.2182 24.6469 54.3055 27.1365C54.3841 29.1718 54.4365 31.1984 54.6896 33.225C54.7071 33.3473 54.6547 33.5132 54.838 33.5394C55.2833 33.6006 55.292 33.9675 55.3793 34.2819C55.4666 34.6139 55.5277 34.9633 55.6237 35.2952C56.2785 37.4791 57.23 39.5319 58.2776 41.5497C59.7791 44.4324 61.4203 47.2364 62.8607 50.1453C62.9131 50.2413 62.9131 50.4073 63.0441 50.4073C63.1663 50.4073 63.1925 50.2588 63.2536 50.154C63.9956 48.8262 64.6067 47.4373 65.1218 46.0047C66.0646 43.3754 66.6582 40.6674 66.9289 37.8809C67.1908 35.1555 67.0773 32.4563 66.6582 29.7658C66.3003 27.4859 65.6805 25.2758 64.8337 23.1182C63.4631 19.6241 61.5425 16.4707 59.072 13.6579C56.7324 11.0024 54.0436 8.75738 50.9533 6.99285C47.6621 5.11475 44.1702 3.80446 40.4251 3.16678C37.5617 2.6776 34.6983 2.5291 31.8 2.81737C29.5652 3.03575 27.374 3.43758 25.2439 4.11019C21.9877 5.1497 18.9322 6.62596 16.1474 8.62635C12.3412 11.3605 9.25957 14.7411 6.90252 18.803C4.44944 23.0396 3.07012 27.5907 2.65982 32.4563C2.4503 34.9546 2.57252 37.4529 2.9479 39.9249C3.47169 43.3142 4.51927 46.5376 6.08191 49.5862C6.57952 50.5645 7.10331 51.5254 7.7755 52.4776ZM49.3382 27.1015C49.3382 26.4027 49.2509 25.7126 48.9454 25.0662C48.055 23.1881 46.6844 21.773 44.7987 20.8907C42.8171 19.9648 40.8005 20.0958 38.7751 20.7335C36.261 21.5109 34.2618 22.9086 33.223 25.4243C32.7341 26.5949 32.35 27.8091 32.6119 29.1019C33.0658 31.4168 34.4102 33.1027 36.4443 34.2208C38.7751 35.4962 41.202 35.4175 43.6464 34.5789C47.0423 33.4084 49.216 30.552 49.3382 27.1015ZM23.2535 32.8581C23.9082 32.8581 25.0082 32.6659 26.0383 32.1942C28.3343 31.1372 29.6525 29.2155 30.5604 26.9618C30.8921 26.1406 31.0754 25.2671 30.8048 24.4023C30.2548 22.6116 29.2334 21.1615 27.47 20.3841C25.6367 19.5804 23.6813 19.3096 21.6909 19.362C20.7044 19.3882 19.8052 19.7027 19.0283 20.3055C17.4394 21.5284 16.2958 23.0658 15.772 25.0225C15.0038 27.8702 16.1038 30.4209 18.6878 31.8448C19.9536 32.5349 21.3329 32.8494 23.2535 32.8581ZM21.6559 17.7111C23.0876 17.6062 24.3971 17.58 25.6978 17.7547C28.1859 18.0954 30.3334 18.9602 31.4159 21.476C31.6079 21.9127 31.9048 22.2971 32.2801 22.6116C32.3762 22.6902 32.4547 22.8387 32.5857 22.6378C33.2666 21.642 33.9999 20.6985 34.934 19.8949C34.3055 19.7027 33.9126 19.3708 33.7555 18.7418C33.5809 18.0255 33.3277 17.3267 33.092 16.6279C32.6119 15.1778 32.0794 13.754 31.154 12.5136C30.9794 12.2777 30.831 12.2253 30.5429 12.3301C28.3255 13.1425 26.2478 14.2169 24.3098 15.5796C23.4106 16.2173 22.5464 16.8899 21.6559 17.7111Z" fill="white" />
        <path d="M41.7161 29.3289C41.7074 30.0626 41.1836 30.5518 40.4242 30.543C39.6386 30.5343 39.0101 29.9054 39.0101 29.1368C39.0101 28.4555 39.5251 27.9052 40.1536 27.8965C40.9741 27.8965 41.7161 28.5778 41.7161 29.3289Z" fill="white" />
        <path d="M26.3697 27.2927C26.3522 28.0701 25.811 28.699 25.1651 28.699C24.4929 28.6902 23.9081 28.0177 23.9255 27.2752C23.943 26.559 24.4231 26.1136 25.1301 26.1398C25.9245 26.1747 26.3871 26.6027 26.3697 27.2927Z" fill="white" />
    </g>
    <rect x="1.25506" y="1.2547" width="67.2781" height="67.2781" rx="33.639" stroke="white" stroke-width="2.51012" />
    <path d="M89.6874 18.1544V48.2822H83.8378V18.1544H89.6874Z" fill="white" />
    <path d="M100.218 30.6731V48.2822H94.602V25.8932H99.8773L100.218 30.6731ZM99.3243 36.2807H97.6651C97.6793 34.6529 97.9062 33.1769 98.3458 31.8526C98.7854 30.5283 99.4023 29.3902 100.196 28.4384C101.005 27.4865 101.962 26.7554 103.068 26.245C104.174 25.7346 105.408 25.4794 106.769 25.4794C107.875 25.4794 108.875 25.6311 109.769 25.9346C110.662 26.2381 111.428 26.7209 112.066 27.3831C112.718 28.0452 113.215 28.9143 113.555 29.9903C113.909 31.0525 114.087 32.363 114.087 33.9218V48.2822H108.428V33.8804C108.428 32.8596 108.273 32.0526 107.961 31.4594C107.663 30.8663 107.223 30.4455 106.642 30.1972C106.074 29.9489 105.372 29.8248 104.536 29.8248C103.671 29.8248 102.912 29.9972 102.26 30.3421C101.622 30.6731 101.083 31.1353 100.643 31.7284C100.218 32.3216 99.8915 33.0045 99.6646 33.777C99.4377 34.5495 99.3243 35.3841 99.3243 36.2807Z" fill="white" />
    <path d="M125.532 48.2822H119.873V23.824C119.873 22.1411 120.207 20.7271 120.873 19.5821C121.54 18.4234 122.49 17.5474 123.724 16.9542C124.957 16.361 126.411 16.0645 128.084 16.0645C128.637 16.0645 129.162 16.0989 129.658 16.1679C130.169 16.2369 130.672 16.3335 131.169 16.4576L131.062 20.6167C130.793 20.5478 130.495 20.4995 130.169 20.4719C129.857 20.4443 129.509 20.4305 129.127 20.4305C128.361 20.4305 127.708 20.5616 127.17 20.8237C126.631 21.0858 126.219 21.472 125.936 21.9824C125.666 22.479 125.532 23.0929 125.532 23.824V48.2822ZM130.19 25.8932V29.8248H116.406V25.8932H130.19Z" fill="white" />
    <path d="M131.786 37.3153V36.8808C131.786 35.2392 132.027 33.7287 132.51 32.3492C132.992 30.9559 133.694 29.7489 134.615 28.7281C135.537 27.7073 136.665 26.9141 137.998 26.3485C139.331 25.7691 140.848 25.4794 142.55 25.4794C144.28 25.4794 145.811 25.7691 147.144 26.3485C148.492 26.9141 149.626 27.7073 150.548 28.7281C151.47 29.7489 152.172 30.9559 152.654 32.3492C153.136 33.7287 153.377 35.2392 153.377 36.8808V37.3153C153.377 38.9431 153.136 40.4536 152.654 41.8469C152.172 43.2264 151.47 44.4334 150.548 45.4681C149.626 46.4889 148.499 47.2821 147.166 47.8477C145.833 48.4132 144.308 48.696 142.592 48.696C140.891 48.696 139.366 48.4132 138.019 47.8477C136.672 47.2821 135.537 46.4889 134.615 45.4681C133.694 44.4334 132.992 43.2264 132.51 41.8469C132.027 40.4536 131.786 38.9431 131.786 37.3153ZM137.402 36.8808V37.3153C137.402 38.2948 137.501 39.2121 137.7 40.0674C137.898 40.9227 138.203 41.6745 138.614 42.3228C139.026 42.9712 139.558 43.4816 140.21 43.8541C140.876 44.2127 141.67 44.3921 142.592 44.3921C143.5 44.3921 144.28 44.2127 144.932 43.8541C145.584 43.4816 146.116 42.9712 146.527 42.3228C146.953 41.6745 147.265 40.9227 147.463 40.0674C147.662 39.2121 147.761 38.2948 147.761 37.3153V36.8808C147.761 35.9152 147.662 35.0116 147.463 34.1701C147.265 33.3148 146.953 32.563 146.527 31.9147C146.116 31.2525 145.577 30.7352 144.911 30.3628C144.259 29.9765 143.471 29.7834 142.55 29.7834C141.642 29.7834 140.862 29.9765 140.21 30.3628C139.558 30.7352 139.026 31.2525 138.614 31.9147C138.203 32.563 137.898 33.3148 137.7 34.1701C137.501 35.0116 137.402 35.9152 137.402 36.8808Z" fill="white" />
    <path d="M166.268 48.2822H159.589L159.632 43.8127H166.268C168.069 43.8127 169.58 43.4264 170.799 42.6539C172.019 41.8676 172.94 40.7433 173.564 39.2811C174.188 37.805 174.5 36.0393 174.5 33.9839V32.432C174.5 30.8456 174.323 29.4454 173.969 28.2315C173.614 27.0175 173.089 25.9967 172.395 25.169C171.714 24.3413 170.87 23.7137 169.863 23.286C168.856 22.8584 167.701 22.6446 166.396 22.6446H159.461V18.1544H166.396C168.466 18.1544 170.352 18.4923 172.054 19.1683C173.77 19.8442 175.252 20.8168 176.5 22.0859C177.762 23.3412 178.726 24.8448 179.393 26.5968C180.074 28.3487 180.414 30.3076 180.414 32.4734V33.9839C180.414 36.1359 180.074 38.0947 179.393 39.8605C178.726 41.6124 177.762 43.116 176.5 44.3714C175.252 45.6267 173.763 46.5923 172.033 47.2683C170.303 47.9442 168.381 48.2822 166.268 48.2822ZM162.865 18.1544V48.2822H157.015V18.1544H162.865Z" fill="white" />
    <path d="M189.96 30.4869V48.2822H184.345V25.8932H189.641L189.96 30.4869ZM189.131 36.2807H187.408C187.408 34.7219 187.599 33.2873 187.982 31.9767C188.379 30.6662 188.961 29.5282 189.726 28.5625C190.492 27.5831 191.435 26.8244 192.555 26.2864C193.69 25.7484 195.002 25.4794 196.491 25.4794C197.526 25.4794 198.476 25.6311 199.341 25.9346C200.206 26.2243 200.951 26.6864 201.575 27.321C202.213 27.9418 202.702 28.7557 203.042 29.7627C203.383 30.7559 203.553 31.9492 203.553 33.3424V48.2822H197.937V33.9011C197.937 32.8527 197.781 32.0319 197.469 31.4387C197.171 30.8456 196.739 30.4317 196.172 30.1972C195.604 29.9489 194.924 29.8248 194.13 29.8248C193.25 29.8248 192.492 29.9972 191.853 30.3421C191.23 30.6731 190.712 31.1353 190.301 31.7284C189.904 32.3216 189.606 33.0045 189.407 33.777C189.223 34.5495 189.131 35.3841 189.131 36.2807ZM203.127 35.2668L200.809 35.6806C200.823 34.2736 201.021 32.9562 201.404 31.7284C201.787 30.4869 202.347 29.404 203.085 28.4798C203.836 27.5417 204.765 26.8106 205.871 26.2864C206.992 25.7484 208.282 25.4794 209.743 25.4794C210.877 25.4794 211.898 25.638 212.806 25.9553C213.728 26.2588 214.515 26.7485 215.167 27.4245C215.819 28.0866 216.316 28.9488 216.656 30.011C217.011 31.0732 217.188 32.3699 217.188 33.9011V48.2822H211.53V33.8804C211.53 32.7906 211.374 31.9561 211.062 31.3767C210.764 30.7973 210.331 30.3972 209.764 30.1765C209.197 29.942 208.53 29.8248 207.765 29.8248C206.985 29.8248 206.304 29.9696 205.723 30.2593C205.155 30.5352 204.673 30.9214 204.276 31.4181C203.893 31.9147 203.602 32.4941 203.404 33.1562C203.22 33.8046 203.127 34.5081 203.127 35.2668Z" fill="white" />
    <defs>
        <clipPath id="clip0_49_223">
            <rect x="2.51012" y="2.50977" width="64.768" height="64.768" rx="32.384" fill="white" />
        </clipPath>
    </defs>
</svg>