<svg width="571" height="775" viewBox="0 0 571 775" fill="none" xmlns="http://www.w3.org/2000/svg">
<g clip-path="url(#clip0_78_315)">
<rect x="15.4435" y="15.4435" width="539.614" height="992" fill="white"/>
<path d="M15.4431 114.662C15.4431 108.039 20.8119 102.671 27.4345 102.671H543.066C549.688 102.671 555.057 108.039 555.057 114.662V1015.99H15.4431V114.662Z" fill="#E1E5F2"/>
<path d="M470.811 52.6542H471.104C472.451 52.6542 473.573 52.4786 474.471 52.1272C475.378 51.7662 476.101 51.2685 476.637 50.6342C477.174 49.9999 477.559 49.2533 477.794 48.3946C478.028 47.5358 478.145 46.6039 478.145 45.5987V41.9246C478.145 41.0561 478.052 40.2949 477.867 39.6411C477.691 38.9775 477.438 38.4261 477.106 37.987C476.784 37.5381 476.408 37.2014 475.979 36.977C475.559 36.7525 475.105 36.6403 474.617 36.6403C474.081 36.6403 473.597 36.7623 473.168 37.0062C472.748 37.2404 472.392 37.5674 472.1 37.987C471.817 38.3968 471.597 38.8799 471.441 39.4361C471.294 39.9826 471.221 40.5681 471.221 41.1927C471.221 41.7782 471.29 42.3442 471.426 42.8907C471.573 43.4274 471.787 43.9056 472.07 44.3252C472.353 44.7448 472.709 45.0766 473.139 45.3206C473.568 45.5646 474.071 45.6865 474.647 45.6865C475.193 45.6865 475.696 45.5841 476.154 45.3791C476.613 45.1645 477.013 44.8766 477.355 44.5155C477.696 44.1544 477.964 43.7495 478.16 43.3006C478.355 42.8517 478.462 42.393 478.482 41.9246L479.828 42.3345C479.828 43.0761 479.672 43.808 479.36 44.5301C479.057 45.2425 478.633 45.8964 478.086 46.4916C477.55 47.0772 476.92 47.5456 476.198 47.8969C475.486 48.2482 474.71 48.4238 473.871 48.4238C472.856 48.4238 471.958 48.2335 471.177 47.853C470.406 47.4626 469.762 46.9356 469.245 46.2721C468.738 45.6085 468.357 44.8473 468.103 43.9885C467.85 43.1298 467.723 42.2271 467.723 41.2805C467.723 40.2559 467.879 39.2946 468.191 38.3968C468.503 37.499 468.957 36.7086 469.553 36.0255C470.148 35.3326 470.87 34.7959 471.719 34.4153C472.578 34.025 473.549 33.8298 474.632 33.8298C475.783 33.8298 476.793 34.0542 477.662 34.5031C478.53 34.952 479.262 35.5717 479.858 36.3622C480.453 37.1526 480.902 38.0699 481.204 39.1141C481.507 40.1583 481.658 41.2805 481.658 42.4808V43.7251C481.658 44.9839 481.546 46.1989 481.321 47.3699C481.097 48.5312 480.731 49.6095 480.224 50.6049C479.726 51.5905 479.067 52.459 478.247 53.2105C477.438 53.9521 476.442 54.5328 475.261 54.9524C474.09 55.3622 472.714 55.5672 471.133 55.5672H470.811V52.6542ZM485.259 53.6789C485.259 53.1324 485.444 52.6737 485.815 52.3029C486.186 51.9223 486.689 51.732 487.323 51.732C487.967 51.732 488.47 51.9223 488.831 52.3029C489.202 52.6737 489.387 53.1324 489.387 53.6789C489.387 54.2254 489.202 54.684 488.831 55.0548C488.47 55.4257 487.967 55.6111 487.323 55.6111C486.689 55.6111 486.186 55.4257 485.815 55.0548C485.444 54.684 485.259 54.2254 485.259 53.6789ZM485.274 41.2073C485.274 40.6608 485.459 40.2022 485.83 39.8314C486.201 39.4508 486.703 39.2605 487.338 39.2605C487.982 39.2605 488.484 39.4508 488.845 39.8314C489.216 40.2022 489.402 40.6608 489.402 41.2073C489.402 41.7538 489.216 42.2125 488.845 42.5833C488.484 42.9541 487.982 43.1395 487.338 43.1395C486.703 43.1395 486.201 42.9541 485.83 42.5833C485.459 42.2125 485.274 41.7538 485.274 41.2073ZM497.057 43.1835H499.165C499.985 43.1835 500.663 43.042 501.2 42.759C501.746 42.476 502.151 42.0856 502.415 41.5879C502.678 41.0902 502.81 40.5193 502.81 39.8753C502.81 39.2019 502.688 38.6262 502.444 38.148C502.21 37.6601 501.849 37.2844 501.361 37.0209C500.883 36.7574 500.273 36.6256 499.531 36.6256C498.907 36.6256 498.341 36.7525 497.833 37.0062C497.335 37.2502 496.94 37.6015 496.647 38.0602C496.355 38.5091 496.208 39.0458 496.208 39.6703H492.666C492.666 38.5383 492.964 37.5332 493.559 36.6549C494.154 35.7766 494.964 35.0887 495.989 34.591C497.023 34.0835 498.184 33.8298 499.473 33.8298C500.848 33.8298 502.049 34.0591 503.073 34.5178C504.108 34.9667 504.913 35.64 505.489 36.5378C506.064 37.4356 506.352 38.5481 506.352 39.8753C506.352 40.4803 506.211 41.0951 505.928 41.7197C505.645 42.3442 505.225 42.9151 504.669 43.4323C504.113 43.9397 503.42 44.3545 502.59 44.6765C501.761 44.9888 500.8 45.1449 499.707 45.1449H497.057V43.1835ZM497.057 45.9354V44.0032H499.707C500.956 44.0032 502.02 44.1496 502.898 44.4423C503.786 44.7351 504.508 45.1401 505.064 45.6573C505.62 46.1647 506.025 46.7454 506.279 47.3992C506.543 48.053 506.674 48.7459 506.674 49.4778C506.674 50.4732 506.494 51.3612 506.133 52.1419C505.781 52.9128 505.279 53.5666 504.625 54.1034C503.971 54.6401 503.205 55.0451 502.327 55.3183C501.458 55.5916 500.512 55.7282 499.487 55.7282C498.57 55.7282 497.692 55.6013 496.852 55.3476C496.013 55.0939 495.262 54.7182 494.598 54.2205C493.934 53.713 493.408 53.0836 493.017 52.3322C492.637 51.571 492.446 50.6927 492.446 49.6973H495.974C495.974 50.3317 496.12 50.8928 496.413 51.3807C496.716 51.8589 497.135 52.2346 497.672 52.5078C498.219 52.7811 498.843 52.9177 499.546 52.9177C500.287 52.9177 500.927 52.786 501.463 52.5225C502 52.259 502.41 51.8686 502.693 51.3514C502.986 50.8342 503.132 50.2097 503.132 49.4778C503.132 48.6483 502.971 47.9749 502.649 47.4577C502.327 46.9405 501.868 46.5599 501.273 46.316C500.678 46.0623 499.975 45.9354 499.165 45.9354H497.057ZM524.635 47.8383V50.6488H509.265L509.148 48.5263L518.341 34.1226H521.166L518.107 39.3629L512.822 47.8383H524.635ZM521.971 34.1226V55.4354H518.443V34.1226H521.971Z" fill="#27187E"/>
<path d="M419.996 67.7409V82.6599H418.029V69.3599H410.672V82.6599H408.694V67.7409H419.996ZM433.327 74.1553V75.764H425.253V74.1553H433.327ZM425.56 67.7409V82.6599H423.583V67.7409H425.56ZM435.049 67.7409V82.6599H433.081V67.7409H435.049ZM438.307 81.6557C438.307 81.3347 438.406 81.0649 438.604 80.8463C438.809 80.6208 439.103 80.5081 439.485 80.5081C439.868 80.5081 440.158 80.6208 440.356 80.8463C440.561 81.0649 440.664 81.3347 440.664 81.6557C440.664 81.97 440.561 82.2364 440.356 82.455C440.158 82.6736 439.868 82.7829 439.485 82.7829C439.103 82.7829 438.809 82.6736 438.604 82.455C438.406 82.2364 438.307 81.97 438.307 81.6557ZM458.175 74.0118V76.2865C458.175 77.5093 458.066 78.5408 457.847 79.381C457.629 80.2212 457.314 80.8975 456.905 81.4098C456.495 81.9222 455.999 82.2945 455.419 82.5267C454.845 82.7521 454.196 82.8648 453.472 82.8648C452.898 82.8648 452.369 82.7931 451.884 82.6497C451.399 82.5062 450.962 82.2774 450.572 81.9631C450.19 81.6421 449.862 81.2254 449.588 80.7131C449.315 80.2007 449.107 79.5791 448.963 78.8482C448.82 78.1173 448.748 77.2634 448.748 76.2865V74.0118C448.748 72.789 448.858 71.7644 449.076 70.9378C449.302 70.1113 449.619 69.4487 450.029 68.95C450.439 68.4445 450.931 68.0825 451.505 67.8639C452.085 67.6453 452.734 67.536 453.451 67.536C454.032 67.536 454.565 67.6077 455.05 67.7511C455.542 67.8878 455.979 68.1098 456.361 68.4172C456.744 68.7177 457.068 69.1208 457.335 69.6263C457.608 70.1249 457.816 70.7363 457.96 71.4604C458.103 72.1845 458.175 73.035 458.175 74.0118ZM456.269 76.5939V73.6942C456.269 73.0247 456.228 72.4372 456.146 71.9318C456.071 71.4194 455.958 70.9822 455.808 70.6202C455.658 70.2581 455.467 69.9644 455.234 69.739C455.009 69.5136 454.746 69.3496 454.445 69.2471C454.152 69.1379 453.82 69.0832 453.451 69.0832C453.001 69.0832 452.601 69.1686 452.253 69.3394C451.904 69.5033 451.61 69.7663 451.371 70.1284C451.139 70.4904 450.962 70.9652 450.839 71.5526C450.716 72.1401 450.654 72.8539 450.654 73.6942V76.5939C450.654 77.2634 450.692 77.8543 450.767 78.3666C450.849 78.8789 450.968 79.3229 451.125 79.6987C451.283 80.0675 451.474 80.3715 451.699 80.6106C451.925 80.8497 452.184 81.0273 452.478 81.1434C452.779 81.2527 453.11 81.3074 453.472 81.3074C453.936 81.3074 454.343 81.2186 454.691 81.041C455.04 80.8633 455.33 80.5867 455.562 80.211C455.801 79.8284 455.979 79.34 456.095 78.7457C456.211 78.1446 456.269 77.4273 456.269 76.5939ZM462.499 81.0717H462.694C463.787 81.0717 464.675 80.918 465.358 80.6106C466.041 80.3032 466.567 79.8899 466.936 79.3708C467.305 78.8516 467.558 78.2675 467.694 77.6186C467.831 76.9628 467.899 76.29 467.899 75.6V73.315C467.899 72.6388 467.821 72.0376 467.663 71.5116C467.513 70.9857 467.301 70.545 467.028 70.1898C466.762 69.8346 466.458 69.5648 466.116 69.3804C465.775 69.1959 465.413 69.1037 465.03 69.1037C464.593 69.1037 464.2 69.1925 463.852 69.3701C463.51 69.5409 463.22 69.7834 462.981 70.0976C462.749 70.4118 462.571 70.7807 462.448 71.2042C462.325 71.6278 462.264 72.0889 462.264 72.5875C462.264 73.0315 462.318 73.4619 462.427 73.8786C462.537 74.2953 462.704 74.671 462.93 75.0057C463.155 75.3404 463.435 75.6069 463.77 75.805C464.111 75.9962 464.511 76.0919 464.969 76.0919C465.392 76.0919 465.788 76.0099 466.157 75.8459C466.533 75.6752 466.864 75.4463 467.151 75.1594C467.445 74.8657 467.677 74.5344 467.848 74.1655C468.025 73.7966 468.128 73.4107 468.155 73.0076H469.057C469.057 73.5746 468.944 74.1348 468.719 74.6881C468.5 75.2346 468.193 75.7332 467.797 76.1841C467.4 76.6349 466.936 76.997 466.403 77.2702C465.87 77.5366 465.29 77.6698 464.661 77.6698C463.923 77.6698 463.285 77.5264 462.745 77.2395C462.205 76.9526 461.761 76.57 461.413 76.0919C461.071 75.6137 460.815 75.0809 460.645 74.4934C460.481 73.8991 460.399 73.298 460.399 72.69C460.399 71.9796 460.498 71.3135 460.696 70.6919C460.894 70.0703 461.188 69.5238 461.577 69.0525C461.966 68.5743 462.448 68.202 463.022 67.9356C463.602 67.6692 464.272 67.536 465.03 67.536C465.884 67.536 466.611 67.7067 467.213 68.0483C467.814 68.3899 468.302 68.8475 468.678 69.4213C469.06 69.9951 469.34 70.6407 469.518 71.3579C469.696 72.0752 469.784 72.813 469.784 73.5712V74.2577C469.784 75.0296 469.733 75.8152 469.631 76.6144C469.535 77.4068 469.347 78.1651 469.067 78.8892C468.794 79.6133 468.394 80.2622 467.868 80.836C467.342 81.403 466.656 81.8538 465.809 82.1886C464.969 82.5165 463.93 82.6804 462.694 82.6804H462.499V81.0717ZM472.654 81.6557C472.654 81.3347 472.753 81.0649 472.951 80.8463C473.156 80.6208 473.449 80.5081 473.832 80.5081C474.214 80.5081 474.505 80.6208 474.703 80.8463C474.908 81.0649 475.01 81.3347 475.01 81.6557C475.01 81.97 474.908 82.2364 474.703 82.455C474.505 82.6736 474.214 82.7829 473.832 82.7829C473.449 82.7829 473.156 82.6736 472.951 82.455C472.753 82.2364 472.654 81.97 472.654 81.6557ZM487.316 74.0118V76.2865C487.316 77.5093 487.207 78.5408 486.988 79.381C486.77 80.2212 486.456 80.8975 486.046 81.4098C485.636 81.9222 485.141 82.2945 484.56 82.5267C483.986 82.7521 483.337 82.8648 482.613 82.8648C482.039 82.8648 481.51 82.7931 481.025 82.6497C480.54 82.5062 480.103 82.2774 479.713 81.9631C479.331 81.6421 479.003 81.2254 478.73 80.7131C478.456 80.2007 478.248 79.5791 478.105 78.8482C477.961 78.1173 477.89 77.2634 477.89 76.2865V74.0118C477.89 72.789 477.999 71.7644 478.217 70.9378C478.443 70.1113 478.76 69.4487 479.17 68.95C479.58 68.4445 480.072 68.0825 480.646 67.8639C481.226 67.6453 481.875 67.536 482.593 67.536C483.173 67.536 483.706 67.6077 484.191 67.7511C484.683 67.8878 485.12 68.1098 485.503 68.4172C485.885 68.7177 486.21 69.1208 486.476 69.6263C486.749 70.1249 486.958 70.7363 487.101 71.4604C487.245 72.1845 487.316 73.035 487.316 74.0118ZM485.411 76.5939V73.6942C485.411 73.0247 485.37 72.4372 485.288 71.9318C485.212 71.4194 485.1 70.9822 484.949 70.6202C484.799 70.2581 484.608 69.9644 484.376 69.739C484.15 69.5136 483.887 69.3496 483.587 69.2471C483.293 69.1379 482.962 69.0832 482.593 69.0832C482.142 69.0832 481.742 69.1686 481.394 69.3394C481.045 69.5033 480.752 69.7663 480.513 70.1284C480.28 70.4904 480.103 70.9652 479.98 71.5526C479.857 72.1401 479.795 72.8539 479.795 73.6942V76.5939C479.795 77.2634 479.833 77.8543 479.908 78.3666C479.99 78.8789 480.11 79.3229 480.267 79.6987C480.424 80.0675 480.615 80.3715 480.841 80.6106C481.066 80.8497 481.326 81.0273 481.619 81.1434C481.92 81.2527 482.251 81.3074 482.613 81.3074C483.078 81.3074 483.484 81.2186 483.833 81.041C484.181 80.8633 484.471 80.5867 484.703 80.211C484.943 79.8284 485.12 79.34 485.236 78.7457C485.352 78.1446 485.411 77.4273 485.411 76.5939ZM499.53 81.1024V82.6599H489.765V81.2971L494.653 75.8562C495.254 75.1867 495.719 74.6198 496.046 74.1553C496.381 73.6839 496.613 73.2638 496.743 72.8949C496.88 72.5192 496.948 72.1367 496.948 71.7473C496.948 71.2555 496.846 70.8115 496.641 70.4153C496.443 70.0122 496.149 69.6912 495.76 69.4521C495.37 69.213 494.899 69.0935 494.346 69.0935C493.683 69.0935 493.13 69.2232 492.686 69.4828C492.248 69.7356 491.921 70.0908 491.702 70.5485C491.483 71.0061 491.374 71.5321 491.374 72.1264H489.478C489.478 71.2862 489.663 70.5177 490.032 69.821C490.401 69.1242 490.947 68.5709 491.671 68.161C492.395 67.7443 493.287 67.536 494.346 67.536C495.288 67.536 496.094 67.7033 496.764 68.0381C497.433 68.3659 497.945 68.8305 498.301 69.4316C498.663 70.0259 498.844 70.7227 498.844 71.5219C498.844 71.9591 498.769 72.4031 498.618 72.8539C498.475 73.298 498.273 73.742 498.014 74.186C497.761 74.63 497.464 75.0672 497.122 75.4976C496.788 75.9279 496.429 76.3514 496.046 76.7681L492.05 81.1024H499.53ZM501.795 81.6557C501.795 81.3347 501.894 81.0649 502.092 80.8463C502.297 80.6208 502.591 80.5081 502.973 80.5081C503.356 80.5081 503.646 80.6208 503.844 80.8463C504.049 81.0649 504.151 81.3347 504.151 81.6557C504.151 81.97 504.049 82.2364 503.844 82.455C503.646 82.6736 503.356 82.7829 502.973 82.7829C502.591 82.7829 502.297 82.6736 502.092 82.455C501.894 82.2364 501.795 81.97 501.795 81.6557ZM516.867 81.1024V82.6599H507.102V81.2971L511.99 75.8562C512.591 75.1867 513.056 74.6198 513.384 74.1553C513.718 73.6839 513.951 73.2638 514.08 72.8949C514.217 72.5192 514.285 72.1367 514.285 71.7473C514.285 71.2555 514.183 70.8115 513.978 70.4153C513.78 70.0122 513.486 69.6912 513.097 69.4521C512.707 69.213 512.236 69.0935 511.683 69.0935C511.02 69.0935 510.467 69.2232 510.023 69.4828C509.586 69.7356 509.258 70.0908 509.039 70.5485C508.821 71.0061 508.711 71.5321 508.711 72.1264H506.816C506.816 71.2862 507 70.5177 507.369 69.821C507.738 69.1242 508.284 68.5709 509.008 68.161C509.732 67.7443 510.624 67.536 511.683 67.536C512.625 67.536 513.431 67.7033 514.101 68.0381C514.77 68.3659 515.283 68.8305 515.638 69.4316C516 70.0259 516.181 70.7227 516.181 71.5219C516.181 71.9591 516.106 72.4031 515.956 72.8539C515.812 73.298 515.611 73.742 515.351 74.186C515.098 74.63 514.801 75.0672 514.46 75.4976C514.125 75.9279 513.766 76.3514 513.384 76.7681L509.387 81.1024H516.867ZM526.171 67.7204H526.335V69.3291H526.171C525.167 69.3291 524.327 69.4931 523.651 69.821C522.974 70.142 522.438 70.5758 522.042 71.1223C521.646 71.6619 521.359 72.2699 521.181 72.9462C521.011 73.6224 520.925 74.309 520.925 75.0057V77.1985C520.925 77.8611 521.004 78.4486 521.161 78.9609C521.318 79.4664 521.533 79.8933 521.806 80.2417C522.08 80.5901 522.387 80.8531 522.729 81.0307C523.077 81.2083 523.439 81.2971 523.815 81.2971C524.252 81.2971 524.641 81.2151 524.983 81.0512C525.324 80.8804 525.611 80.6448 525.843 80.3442C526.083 80.0368 526.264 79.6747 526.387 79.2581C526.51 78.8414 526.571 78.3837 526.571 77.885C526.571 77.441 526.516 77.0141 526.407 76.6042C526.298 76.1875 526.13 75.8186 525.905 75.4976C525.68 75.1697 525.396 74.9135 525.055 74.7291C524.72 74.5378 524.32 74.4422 523.856 74.4422C523.33 74.4422 522.838 74.572 522.38 74.8315C521.929 75.0843 521.557 75.419 521.263 75.8357C520.976 76.2456 520.812 76.693 520.771 77.178L519.767 77.1677C519.863 76.4027 520.041 75.7503 520.3 75.2107C520.567 74.6642 520.894 74.2202 521.284 73.8786C521.68 73.5302 522.121 73.2775 522.606 73.1204C523.097 72.9564 523.617 72.8744 524.163 72.8744C524.908 72.8744 525.55 73.0145 526.089 73.2945C526.629 73.5746 527.073 73.9503 527.421 74.4217C527.77 74.8862 528.026 75.4122 528.19 75.9996C528.361 76.5803 528.446 77.178 528.446 77.7928C528.446 78.4964 528.347 79.1556 528.149 79.7704C527.951 80.3852 527.654 80.9248 527.258 81.3893C526.868 81.8538 526.387 82.2159 525.813 82.4755C525.239 82.7351 524.573 82.8648 523.815 82.8648C523.009 82.8648 522.305 82.7009 521.704 82.373C521.103 82.0383 520.604 81.5943 520.208 81.041C519.812 80.4876 519.515 79.8728 519.316 79.1966C519.118 78.5203 519.019 77.8338 519.019 77.137V76.2456C519.019 75.1936 519.125 74.1621 519.337 73.1511C519.549 72.1401 519.914 71.2247 520.433 70.405C520.959 69.5853 521.687 68.9329 522.616 68.4479C523.545 67.9629 524.73 67.7204 526.171 67.7204Z" fill="#27187E"/>
<path d="M61.6725 57.2617V60.1746H50.3574V57.2617H61.6725ZM51.2649 48.3618V69.6747H47.5908V48.3618H51.2649ZM64.4976 48.3618V69.6747H60.8381V48.3618H64.4976ZM72.1679 64.5221L78.3891 53.8364H81.9168V69.6747H78.3891V58.9743L72.1679 69.6747H68.6402V53.8364H72.1679V64.5221ZM90.9045 63.2779L84.5809 53.8364H88.9138L92.6025 60.0722H95.6911L95.2374 63.2779H90.9045ZM92.6903 62.7656L88.6356 69.6747H84.3028L90.0409 60.7602L92.6903 62.7656ZM97.8136 53.8364V69.6747H94.3005V53.8364H97.8136ZM107.577 53.8364L101.254 63.2779H96.9061L96.4377 60.0722H99.5409L103.23 53.8364H107.577ZM103.508 69.6747L99.4384 62.7656L102.176 60.7602L107.885 69.6747H103.508ZM120.942 60.4528V63.234H112.744V60.4528H120.942ZM113.769 53.8364V69.6747H110.241V53.8364H113.769ZM123.489 53.8364V69.6747H119.961V53.8364H123.489ZM134.233 69.9674C133.062 69.9674 132.003 69.7771 131.056 69.3966C130.12 69.0062 129.319 68.4646 128.656 67.7717C128.002 67.0789 127.499 66.264 127.148 65.3272C126.797 64.3904 126.621 63.3804 126.621 62.2972V61.7116C126.621 60.4723 126.802 59.35 127.163 58.3449C127.524 57.3398 128.026 56.481 128.67 55.7686C129.315 55.0465 130.076 54.4951 130.954 54.1145C131.832 53.7339 132.784 53.5437 133.808 53.5437C134.94 53.5437 135.931 53.7339 136.78 54.1145C137.629 54.4951 138.332 55.0318 138.888 55.7247C139.454 56.4078 139.873 57.2227 140.147 58.1692C140.43 59.1158 140.571 60.16 140.571 61.3018V62.8095H128.334V60.2771H137.087V59.999C137.068 59.3647 136.941 58.7694 136.707 58.2132C136.482 57.6569 136.136 57.208 135.667 56.8665C135.199 56.5249 134.574 56.3541 133.794 56.3541C133.208 56.3541 132.686 56.481 132.227 56.7347C131.779 56.9787 131.403 57.3349 131.1 57.8033C130.798 58.2717 130.564 58.8377 130.398 59.5013C130.242 60.1551 130.164 60.8919 130.164 61.7116V62.2972C130.164 62.99 130.256 63.6341 130.442 64.2294C130.637 64.8149 130.92 65.3272 131.291 65.7663C131.661 66.2055 132.11 66.5519 132.637 66.8056C133.164 67.0496 133.764 67.1716 134.438 67.1716C135.287 67.1716 136.043 67.0008 136.707 66.6593C137.37 66.3177 137.946 65.8347 138.434 65.2101L140.293 67.0106C139.951 67.5083 139.507 67.9864 138.961 68.4451C138.414 68.894 137.746 69.2599 136.956 69.5429C136.175 69.8259 135.267 69.9674 134.233 69.9674ZM150.422 59.1646V61.9751H142.679V59.1646H150.422ZM170.725 48.3618V69.6747H167.066V51.2894H157.595V69.6747H153.936V48.3618H170.725ZM181.777 69.9674C180.606 69.9674 179.547 69.7771 178.601 69.3966C177.664 69.0062 176.863 68.4646 176.2 67.7717C175.546 67.0789 175.044 66.264 174.692 65.3272C174.341 64.3904 174.165 63.3804 174.165 62.2972V61.7116C174.165 60.4723 174.346 59.35 174.707 58.3449C175.068 57.3398 175.57 56.481 176.215 55.7686C176.859 55.0465 177.62 54.4951 178.498 54.1145C179.376 53.7339 180.328 53.5437 181.352 53.5437C182.484 53.5437 183.475 53.7339 184.324 54.1145C185.173 54.4951 185.876 55.0318 186.432 55.7247C186.998 56.4078 187.417 57.2227 187.691 58.1692C187.974 59.1158 188.115 60.16 188.115 61.3018V62.8095H175.878V60.2771H184.631V59.999C184.612 59.3647 184.485 58.7694 184.251 58.2132C184.026 57.6569 183.68 57.208 183.211 56.8665C182.743 56.5249 182.119 56.3541 181.338 56.3541C180.752 56.3541 180.23 56.481 179.772 56.7347C179.323 56.9787 178.947 57.3349 178.644 57.8033C178.342 58.2717 178.108 58.8377 177.942 59.5013C177.786 60.1551 177.708 60.8919 177.708 61.7116V62.2972C177.708 62.99 177.8 63.6341 177.986 64.2294C178.181 64.8149 178.464 65.3272 178.835 65.7663C179.206 66.2055 179.654 66.5519 180.181 66.8056C180.708 67.0496 181.309 67.1716 181.982 67.1716C182.831 67.1716 183.587 67.0008 184.251 66.6593C184.914 66.3177 185.49 65.8347 185.978 65.2101L187.837 67.0106C187.496 67.5083 187.052 67.9864 186.505 68.4451C185.959 68.894 185.29 69.2599 184.5 69.5429C183.719 69.8259 182.811 69.9674 181.777 69.9674ZM203.588 53.8364V69.6747H200.06V53.8364H203.588ZM202.094 60.848V63.6438C201.665 63.8293 201.182 64 200.645 64.1562C200.118 64.3026 199.562 64.4245 198.977 64.5221C198.391 64.6099 197.801 64.6539 197.205 64.6539C195.81 64.6539 194.605 64.4392 193.59 64.0098C192.585 63.5804 191.809 62.9217 191.262 62.0337C190.726 61.1359 190.457 59.999 190.457 58.623V53.8218H193.97V58.623C193.97 59.4135 194.087 60.0429 194.322 60.5113C194.566 60.9797 194.927 61.3164 195.405 61.5213C195.883 61.7263 196.483 61.8287 197.205 61.8287C197.81 61.8287 198.381 61.7897 198.918 61.7116C199.455 61.6238 199.987 61.5067 200.514 61.3603C201.041 61.2139 201.567 61.0432 202.094 60.848ZM214.332 69.9674C213.161 69.9674 212.102 69.7771 211.155 69.3966C210.219 69.0062 209.418 68.4646 208.755 67.7717C208.101 67.0789 207.598 66.264 207.247 65.3272C206.896 64.3904 206.72 63.3804 206.72 62.2972V61.7116C206.72 60.4723 206.901 59.35 207.262 58.3449C207.623 57.3398 208.125 56.481 208.769 55.7686C209.413 55.0465 210.175 54.4951 211.053 54.1145C211.931 53.7339 212.883 53.5437 213.907 53.5437C215.039 53.5437 216.03 53.7339 216.879 54.1145C217.728 54.4951 218.43 55.0318 218.987 55.7247C219.553 56.4078 219.972 57.2227 220.246 58.1692C220.529 59.1158 220.67 60.16 220.67 61.3018V62.8095H208.433V60.2771H217.186V59.999C217.167 59.3647 217.04 58.7694 216.806 58.2132C216.581 57.6569 216.235 57.208 215.766 56.8665C215.298 56.5249 214.673 56.3541 213.893 56.3541C213.307 56.3541 212.785 56.481 212.326 56.7347C211.877 56.9787 211.502 57.3349 211.199 57.8033C210.897 58.2717 210.663 58.8377 210.497 59.5013C210.341 60.1551 210.262 60.8919 210.262 61.7116V62.2972C210.262 62.99 210.355 63.6341 210.541 64.2294C210.736 64.8149 211.019 65.3272 211.39 65.7663C211.76 66.2055 212.209 66.5519 212.736 66.8056C213.263 67.0496 213.863 67.1716 214.537 67.1716C215.386 67.1716 216.142 67.0008 216.806 66.6593C217.469 66.3177 218.045 65.8347 218.533 65.2101L220.392 67.0106C220.05 67.5083 219.606 67.9864 219.06 68.4451C218.513 68.894 217.845 69.2599 217.054 69.5429C216.274 69.8259 215.366 69.9674 214.332 69.9674ZM208.433 49.6353C208.433 49.1571 208.599 48.757 208.93 48.435C209.262 48.1032 209.701 47.9373 210.248 47.9373C210.804 47.9373 211.248 48.1032 211.58 48.435C211.912 48.757 212.078 49.1571 212.078 49.6353C212.078 50.1037 211.912 50.5038 211.58 50.8356C211.248 51.1577 210.804 51.3187 210.248 51.3187C209.701 51.3187 209.262 51.1577 208.93 50.8356C208.599 50.5038 208.433 50.1037 208.433 49.6353ZM215.21 49.65C215.21 49.1718 215.376 48.7717 215.708 48.4496C216.04 48.1178 216.484 47.952 217.04 47.952C217.586 47.952 218.025 48.1178 218.357 48.4496C218.699 48.7717 218.87 49.1718 218.87 49.65C218.87 50.1184 218.699 50.5185 218.357 50.8503C218.025 51.1723 217.586 51.3333 217.04 51.3333C216.484 51.3333 216.04 51.1723 215.708 50.8503C215.376 50.5185 215.21 50.1184 215.21 49.65ZM226.964 56.8811V75.7641H223.437V53.8364H226.686L226.964 56.8811ZM237.284 61.6092V61.9166C237.284 63.0681 237.147 64.1367 236.874 65.1223C236.611 66.0981 236.216 66.952 235.689 67.6839C235.171 68.4061 234.532 68.9672 233.771 69.3673C233.01 69.7674 232.132 69.9674 231.136 69.9674C230.151 69.9674 229.287 69.7869 228.545 69.4258C227.813 69.055 227.194 68.5329 226.686 67.8596C226.179 67.1862 225.769 66.3958 225.457 65.4882C225.154 64.5709 224.939 63.5658 224.813 62.4728V61.2871C224.939 60.1259 225.154 59.0719 225.457 58.1253C225.769 57.1787 226.179 56.3639 226.686 55.6808C227.194 54.9977 227.813 54.4707 228.545 54.0999C229.277 53.7291 230.131 53.5437 231.107 53.5437C232.102 53.5437 232.985 53.7388 233.756 54.1292C234.527 54.5098 235.176 55.0562 235.703 55.7686C236.23 56.4712 236.625 57.3202 236.889 58.3156C237.152 59.3012 237.284 60.3991 237.284 61.6092ZM233.756 61.9166V61.6092C233.756 60.8773 233.688 60.199 233.551 59.5745C233.415 58.9402 233.2 58.3839 232.907 57.9058C232.615 57.4276 232.239 57.0568 231.78 56.7933C231.331 56.52 230.79 56.3834 230.155 56.3834C229.531 56.3834 228.994 56.4908 228.545 56.7055C228.096 56.9104 227.721 57.1983 227.418 57.5691C227.116 57.9399 226.881 58.3742 226.716 58.8719C226.55 59.3598 226.433 59.8916 226.364 60.4674V63.3072C226.481 64.0098 226.681 64.6539 226.964 65.2394C227.247 65.8249 227.647 66.2933 228.165 66.6446C228.692 66.9862 229.365 67.157 230.185 67.157C230.819 67.157 231.361 67.0203 231.81 66.7471C232.258 66.4738 232.624 66.0981 232.907 65.62C233.2 65.132 233.415 64.5709 233.551 63.9366C233.688 63.3023 233.756 62.6289 233.756 61.9166ZM246.755 67.157C247.331 67.157 247.848 67.0447 248.306 66.8203C248.775 66.5861 249.151 66.264 249.434 65.8542C249.726 65.4443 249.887 64.971 249.917 64.4343H253.239C253.22 65.459 252.917 66.3909 252.332 67.2301C251.746 68.0694 250.971 68.7379 250.004 69.2355C249.038 69.7235 247.97 69.9674 246.799 69.9674C245.589 69.9674 244.535 69.7625 243.637 69.3526C242.739 68.933 241.993 68.3573 241.397 67.6254C240.802 66.8935 240.353 66.0493 240.051 65.093C239.758 64.1367 239.612 63.112 239.612 62.019V61.5067C239.612 60.4137 239.758 59.3891 240.051 58.4327C240.353 57.4666 240.802 56.6176 241.397 55.8857C241.993 55.1538 242.739 54.5829 243.637 54.1731C244.535 53.7535 245.584 53.5437 246.784 53.5437C248.053 53.5437 249.165 53.7974 250.122 54.3048C251.078 54.8025 251.829 55.5003 252.376 56.3981C252.932 57.2861 253.22 58.3205 253.239 59.5013H249.917C249.887 58.9158 249.741 58.3888 249.478 57.9204C249.224 57.4422 248.863 57.0616 248.394 56.7786C247.936 56.4956 247.384 56.3541 246.74 56.3541C246.028 56.3541 245.437 56.5005 244.969 56.7933C244.501 57.0763 244.135 57.4666 243.871 57.9643C243.608 58.4522 243.417 59.0036 243.3 59.6184C243.193 60.2234 243.139 60.8529 243.139 61.5067V62.019C243.139 62.6729 243.193 63.3072 243.3 63.922C243.408 64.5368 243.593 65.0881 243.857 65.5761C244.13 66.0542 244.501 66.4397 244.969 66.7325C245.437 67.0155 246.033 67.157 246.755 67.157ZM259.753 53.8364V69.6747H256.226V53.8364H259.753ZM270.088 53.8364L262.959 63.3657H258.934L258.465 60.1746H261.407L265.682 53.8364H270.088ZM265.96 69.6747L261.188 62.7656L263.969 60.7602L270.6 69.6747H265.96ZM281.447 66.4982V58.9451C281.447 58.3791 281.344 57.8911 281.139 57.4813C280.934 57.0714 280.622 56.7542 280.203 56.5298C279.793 56.3053 279.276 56.1931 278.651 56.1931C278.075 56.1931 277.578 56.2907 277.158 56.4859C276.738 56.6811 276.411 56.9445 276.177 57.2763C275.943 57.6081 275.826 57.9838 275.826 58.4035H272.313C272.313 57.7789 272.464 57.1739 272.767 56.5883C273.069 56.0028 273.508 55.4807 274.084 55.0221C274.66 54.5634 275.348 54.2024 276.148 53.9389C276.948 53.6754 277.846 53.5437 278.841 53.5437C280.032 53.5437 281.086 53.7437 282.003 54.1438C282.93 54.5439 283.657 55.1489 284.184 55.9589C284.721 56.7591 284.989 57.7643 284.989 58.9743V66.0152C284.989 66.7373 285.038 67.3863 285.136 67.962C285.243 68.528 285.394 69.0209 285.589 69.4405V69.6747H281.974C281.808 69.2941 281.676 68.811 281.579 68.2255C281.491 67.6302 281.447 67.0545 281.447 66.4982ZM281.959 60.0429L281.988 62.224H279.456C278.802 62.224 278.226 62.2874 277.729 62.4143C277.231 62.5314 276.816 62.707 276.485 62.9412C276.153 63.1754 275.904 63.4584 275.738 63.7902C275.572 64.122 275.489 64.4977 275.489 64.9173C275.489 65.337 275.587 65.7224 275.782 66.0737C275.977 66.4153 276.26 66.6837 276.631 66.8788C277.012 67.074 277.47 67.1716 278.007 67.1716C278.729 67.1716 279.358 67.0252 279.895 66.7325C280.442 66.4299 280.871 66.064 281.183 65.6346C281.496 65.1955 281.662 64.7807 281.681 64.3904L282.823 65.9566C282.706 66.3567 282.506 66.7861 282.223 67.2448C281.94 67.7034 281.569 68.1426 281.11 68.5622C280.661 68.9721 280.12 69.3087 279.485 69.5722C278.861 69.8357 278.139 69.9674 277.319 69.9674C276.285 69.9674 275.362 69.7625 274.552 69.3526C273.742 68.933 273.108 68.3719 272.649 67.6693C272.191 66.9569 271.961 66.1518 271.961 65.254C271.961 64.4148 272.118 63.6731 272.43 63.029C272.752 62.3752 273.22 61.8287 273.835 61.3896C274.46 60.9505 275.221 60.6187 276.119 60.3942C277.016 60.16 278.041 60.0429 279.193 60.0429H281.959ZM292.015 61.9312H295.675L291.181 69.6747H287.536L292.015 61.9312ZM294.592 53.8364H301.384V69.6747H297.871V56.6176H294.592C293.928 56.6176 293.382 56.7347 292.952 56.9689C292.523 57.1934 292.206 57.491 292.001 57.8618C291.796 58.2229 291.693 58.5937 291.693 58.9743C291.693 59.3549 291.786 59.7209 291.972 60.0722C292.167 60.4235 292.464 60.7114 292.864 60.9358C293.274 61.1603 293.787 61.2725 294.401 61.2725H299.056V63.8488H294.401C293.426 63.8488 292.552 63.7268 291.781 63.4828C291.01 63.2291 290.356 62.8827 289.82 62.4435C289.283 61.9946 288.873 61.4725 288.59 60.8773C288.307 60.2722 288.166 59.6135 288.166 58.9011C288.166 58.1692 288.312 57.4959 288.605 56.8811C288.898 56.2663 289.317 55.7296 289.864 55.2709C290.42 54.8123 291.093 54.461 291.884 54.217C292.684 53.9633 293.587 53.8364 294.592 53.8364ZM308.615 66.2787L308.6 68.7964C308.6 69.7918 308.351 70.8164 307.854 71.8704C307.356 72.9243 306.697 73.7928 305.878 74.4759L303.989 73.3781C304.263 72.9389 304.511 72.4949 304.736 72.046C304.96 71.5971 305.141 71.119 305.277 70.6115C305.414 70.1041 305.482 69.5429 305.482 68.9281V66.2787H308.615ZM328.903 48.2886V69.6747H325.375V52.4751L320.15 54.2463V51.3333L328.479 48.2886H328.903ZM350.201 57.2324V60.7163C350.201 62.385 350.035 63.8097 349.704 64.9905C349.382 66.1616 348.913 67.113 348.298 67.8449C347.684 68.5768 346.947 69.1136 346.088 69.4551C345.239 69.7967 344.288 69.9674 343.234 69.9674C342.394 69.9674 341.614 69.8601 340.892 69.6454C340.179 69.4307 339.535 69.094 338.959 68.6354C338.384 68.1767 337.891 67.5863 337.481 66.8642C337.081 66.1323 336.769 65.2589 336.544 64.244C336.329 63.2291 336.222 62.0532 336.222 60.7163V57.2324C336.222 55.5539 336.388 54.1389 336.72 52.9874C337.052 51.8261 337.525 50.8844 338.14 50.1623C338.754 49.4304 339.486 48.8985 340.335 48.5667C341.194 48.235 342.15 48.0691 343.204 48.0691C344.053 48.0691 344.834 48.1764 345.546 48.3911C346.269 48.596 346.913 48.9229 347.479 49.3718C348.054 49.8207 348.542 50.4062 348.942 51.1284C349.352 51.8408 349.665 52.7044 349.879 53.7193C350.094 54.7244 350.201 55.8955 350.201 57.2324ZM346.674 61.2139V56.7055C346.674 55.8564 346.625 55.1099 346.527 54.4658C346.43 53.812 346.283 53.2607 346.088 52.8118C345.903 52.3531 345.668 51.9823 345.385 51.6993C345.102 51.4065 344.78 51.1967 344.419 51.0698C344.058 50.9332 343.653 50.8649 343.204 50.8649C342.658 50.8649 342.17 50.9723 341.741 51.1869C341.311 51.3919 340.95 51.7237 340.657 52.1823C340.365 52.641 340.14 53.246 339.984 53.9974C339.838 54.7391 339.764 55.6418 339.764 56.7055V61.2139C339.764 62.0727 339.813 62.829 339.911 63.4828C340.008 64.1367 340.155 64.6978 340.35 65.1662C340.545 65.6248 340.779 66.0054 341.053 66.308C341.336 66.6007 341.658 66.8154 342.019 66.952C342.39 67.0886 342.795 67.157 343.234 67.157C343.79 67.157 344.283 67.0496 344.712 66.8349C345.141 66.6202 345.503 66.2787 345.795 65.8103C346.088 65.3321 346.308 64.7124 346.454 63.9512C346.6 63.1901 346.674 62.2776 346.674 61.2139Z" fill="#27187E"/>
<g clip-path="url(#clip1_78_315)">
<g filter="url(#filter0_f_78_315)">
<rect x="17.6887" y="696.448" width="531.37" height="68.9507" fill="#E1E5F2"/>
</g>
</g>
</g>
<rect x="7.72174" y="7.72174" width="555.057" height="1007.44" stroke="#1C1546" stroke-width="15.4435"/>
<defs>
<filter id="filter0_f_78_315" x="-12.2898" y="666.47" width="591.327" height="128.908" filterUnits="userSpaceOnUse" color-interpolation-filters="sRGB">
<feFlood flood-opacity="0" result="BackgroundImageFix"/>
<feBlend mode="normal" in="SourceGraphic" in2="BackgroundImageFix" result="shape"/>
<feGaussianBlur stdDeviation="14.9893" result="effect1_foregroundBlur_78_315"/>
</filter>
<clipPath id="clip0_78_315">
<rect x="15.4435" y="15.4435" width="539.614" height="992" fill="white"/>
</clipPath>
<clipPath id="clip1_78_315">
<rect width="539.614" height="260.813" fill="white" transform="translate(15.4431 471.865)"/>
</clipPath>
</defs>
</svg>
