<svg xmlns="http://www.w3.org/2000/svg" width="32" height="32" viewBox="0 0 32 32" fill="none">
    <path d="M27.2347 13.4625C25.5933 11.5358 22.6813 8.63314 18.1253 5.75714C14.3787 3.39181 11.044 2.13581 8.90534 1.49847C8.31702 1.3209 7.69516 1.28438 7.09011 1.39186C6.48506 1.49935 5.91383 1.74781 5.42267 2.11714C4.9272 2.48332 4.52498 2.96109 4.24861 3.51173C3.97225 4.06237 3.82953 4.67038 3.832 5.28647V26.7131C3.832 27.9731 4.41333 29.1278 5.42267 29.8825C5.91422 30.2515 6.48568 30.4998 7.09089 30.6073C7.6961 30.7148 8.3181 30.6784 8.90667 30.5011C11.0453 29.8638 14.38 28.6078 18.1267 26.2425C22.6827 23.3651 25.5947 20.4638 27.236 18.5358C27.8414 17.8293 28.1741 16.9295 28.1741 15.9991C28.1741 15.0687 27.84 14.169 27.2347 13.4625Z" fill="#27187E" />
</svg>