<svg xmlns="http://www.w3.org/2000/svg" xmlns:xlink="http://www.w3.org/1999/xlink" viewBox="0 0 300 300">
    <style>:root>svg{display:none}:root>svg:target{display:block}</style>
    <svg id="link-icon" xmlns="http://www.w3.org/2000/svg" viewBox="0 0 32 32">
        <path d="M25.7786 4H9.7834V6.22142H24.2081L4.05737 25.0388L5.62792 26.6093L25.7786 7.79197V23.55H28V6.22142C28 4.99631 27.0037 4 25.7786 4Z" />
    </svg>
    <svg id="telegram" xmlns="http://www.w3.org/2000/svg" viewBox="0 0 24 24">
        <path d="M9.41718 15.1873L9.02018 20.7713C9.58818 20.7713 9.83418 20.5273 10.1292 20.2343L12.7922 17.6893L18.3102 21.7303C19.3222 22.2943 20.0352 21.9973 20.3082 20.7993L23.9302 3.82726L23.9312 3.82626C24.2522 2.33026 23.3902 1.74526 22.4042 2.11226L1.11418 10.2633C-0.338822 10.8273 -0.316822 11.6373 0.867178 12.0043L6.31018 13.6973L18.9532 5.78626C19.5482 5.39226 20.0892 5.61026 19.6442 6.00426L9.41718 15.1873Z"/>
    </svg>
    <svg id="max" xmlns="http://www.w3.org/2000/svg" viewBox="0 0 24 24">
        <path fill-rule="evenodd" clip-rule="evenodd" d="M12.2451 23.0633C10.0055 23.0633 8.9647 22.7423 7.15554 21.4585C6.0112 22.9028 2.38748 24.0316 2.22945 22.1004C2.22945 20.6507 1.9025 19.4257 1.53195 18.0883C1.09056 16.4407 0.589233 14.6058 0.589233 11.9472C0.589233 5.59736 5.89677 0.820312 12.1852 0.820312C18.479 0.820312 23.4106 5.83272 23.4106 12.006C23.4207 14.925 22.2508 17.7286 20.1574 19.8017C18.0641 21.8747 15.2185 23.0477 12.2451 23.0633ZM12.3378 6.30885C9.2753 6.15371 6.88854 8.23466 6.35995 11.4978C5.92404 14.1993 6.69782 17.4892 7.35718 17.6603C7.67325 17.7352 8.46884 17.104 8.9647 16.6172C9.78466 17.1733 10.7395 17.5073 11.7329 17.5855C13.2583 17.6575 14.7516 17.1392 15.8918 16.1419C17.032 15.1445 17.7282 13.7479 17.8306 12.2521C17.8902 10.7531 17.3481 9.29119 16.3208 8.18071C15.2936 7.07023 13.8633 6.39998 12.3378 6.31418V6.30885Z"/>
    </svg>
</svg>