<svg xmlns="http://www.w3.org/2000/svg" width="32" height="32" viewBox="0 0 32 32" fill="none">
    <g clip-path="url(#clip0_78_345)">
        <path d="M32 25.3333L32 8C32 6.93913 31.5786 5.92172 30.8284 5.17157C30.0783 4.42143 29.0609 4 28 4L4 4C2.93913 4 1.92172 4.42143 1.17157 5.17157C0.421428 5.92172 2.25856e-07 6.93913 2.17611e-07 8L8.28992e-08 25.3333L14.6667 25.3333L14.6667 26.6667L9.33333 26.6667L9.33333 29.3333L22.6667 29.3333L22.6667 26.6667L17.3333 26.6667L17.3333 25.3333L32 25.3333ZM2.66667 8C2.66667 7.64638 2.80714 7.30724 3.05719 7.05719C3.30724 6.80714 3.64638 6.66667 4 6.66667L28 6.66667C28.3536 6.66667 28.6928 6.80714 28.9428 7.05719C29.1929 7.30724 29.3333 7.64638 29.3333 8L29.3333 22.6667L2.66667 22.6667L2.66667 8Z" fill="#27187E" />
    </g>
    <defs>
        <clipPath id="clip0_78_345">
            <rect width="32" height="32" fill="white" />
        </clipPath>
    </defs>
</svg>