<svg width="24" height="24" viewBox="0 0 24 24" fill="none" xmlns="http://www.w3.org/2000/svg">
<path d="M13.3193 17.8812C13.3193 20.8635 10.9019 23.2812 7.91959 23.2812C4.93693 23.2812 2.51953 20.8635 2.51953 17.8812C2.51953 14.8989 4.93693 12.4811 7.91959 12.4811C10.9019 12.4811 13.3193 14.8989 13.3193 17.8812Z" fill="#FF6600"/>
<path d="M23.9999 10.3226C23.9999 13.3045 21.5825 15.7227 18.6003 15.7227C15.6176 15.7227 13.2002 13.3045 13.2002 10.3226C13.2002 7.34033 15.6176 4.92214 18.6003 4.92214C21.5825 4.92214 23.9999 7.34033 23.9999 10.3226Z" fill="#FFCC00"/>
<path d="M10.7997 10.2054C10.7997 13.1873 8.38233 15.6055 5.39966 15.6055C2.4178 15.6055 0 13.1873 0 10.2054C0 7.22315 2.4178 4.80495 5.39966 4.80495C8.38233 4.80495 10.7997 7.22315 10.7997 10.2054Z" fill="#0089CC"/>
<path d="M21.5994 17.8812C21.5994 20.8635 19.182 23.2812 16.199 23.2812C13.2171 23.2812 10.7993 20.8635 10.7993 17.8812C10.7993 14.8989 13.2171 12.4811 16.199 12.4811C19.182 12.4811 21.5994 14.8989 21.5994 17.8812Z" fill="#009939"/>
<path d="M17.3992 5.40072C17.3992 8.38299 14.9814 10.8008 11.9992 10.8008C9.01692 10.8008 6.59912 8.38299 6.59912 5.40072C6.59912 2.41846 9.01692 0.000660896 11.9992 0.000660896C14.9814 0.000660896 17.3992 2.41846 17.3992 5.40072Z" fill="#BF0000"/>
<path d="M13.2002 10.3213C13.2002 10.4349 13.2101 10.5462 13.2172 10.6582C15.6124 10.1056 17.4001 7.96411 17.4001 5.40104C17.4001 5.28744 17.3902 5.17581 17.383 5.06379C14.9878 5.61678 13.2002 7.75827 13.2002 10.3213Z" fill="#FC0007"/>
<path d="M13.9131 12.9965C14.8437 14.6234 16.5925 15.7227 18.601 15.7227C19.4196 15.7227 20.1927 15.535 20.8882 15.2089C19.958 13.5819 18.2091 12.4827 16.2003 12.4827C15.3817 12.4827 14.6086 12.6703 13.9131 12.9965Z" fill="#1CD306"/>
<path d="M10.7993 17.8813C10.7993 19.2006 11.2735 20.408 12.0597 21.3457C12.845 20.408 13.3192 19.2006 13.3192 17.8813C13.3192 16.562 12.845 15.3547 12.0597 14.4169C11.2735 15.3547 10.7993 16.562 10.7993 17.8813Z" fill="#0F7504"/>
<path d="M3.26123 15.1633C3.91714 15.4467 4.63915 15.6055 5.39917 15.6055C7.38787 15.6055 9.12047 14.5276 10.0578 12.9272C9.40191 12.6438 8.6795 12.4855 7.91988 12.4855C5.93118 12.4855 4.19819 13.5633 3.26123 15.1633Z" fill="#0C5E87"/>
<path d="M6.62248 4.94701C6.60981 5.09743 6.59912 5.24864 6.59912 5.40262C6.59912 7.96371 8.38397 10.1032 10.7764 10.6582C10.7887 10.5078 10.7994 10.3566 10.7994 10.203C10.7994 7.6419 9.01494 5.50159 6.62248 4.94701Z" fill="#6B0001"/>
<path d="M7.12758 17.2126H6.28286C5.53709 17.2126 4.93066 16.6082 4.93066 15.8644V8.21832C4.93066 7.47453 5.53709 6.86969 6.28286 6.86969H16.8752C17.6209 6.86969 18.227 7.47453 18.227 8.21832V15.8644C18.227 16.6082 17.6209 17.2126 16.8752 17.2126H13.2667L6.02675 20.7617L7.12758 17.2126Z" fill="white"/>
</svg>
