<svg xmlns="http://www.w3.org/2000/svg" width="32" height="32" viewBox="0 0 32 32" fill="none">
    <g clip-path="url(#clip0_78_357)">
        <path d="M13.3333 25.3333C13.3333 23.8667 14.5333 22.6667 16 22.6667C17.4667 22.6667 18.6667 23.8667 18.6667 25.3333C18.6667 26.8 17.4667 28 16 28C14.5333 28 13.3333 26.8 13.3333 25.3333ZM24.48 16.8533C19.8 12.1733 12.1867 12.1733 7.50665 16.8533L9.38665 18.7333C11.1382 16.9851 13.5119 16.0032 15.9867 16.0032C18.4614 16.0032 20.8351 16.9851 22.5867 18.7333L24.4667 16.8533H24.48ZM31.08 10.2533C27.0533 6.22667 21.6933 4 16 4C10.3067 4 4.94665 6.21333 0.919983 10.2533L2.79998 12.1333C6.31998 8.61333 11.0133 6.66667 16 6.66667C20.9867 6.66667 25.6666 8.61333 29.2 12.1333L31.08 10.2533Z" fill="#27187E" />
    </g>
    <defs>
        <clipPath id="clip0_78_357">
            <rect width="32" height="32" fill="white" />
        </clipPath>
    </defs>
</svg>