<svg xmlns="http://www.w3.org/2000/svg" width="32" height="32" viewBox="0 0 32 32" fill="none">
    <g clip-path="url(#clip0_78_353)">
        <path d="M27.948 15.1347L32.02 12.2227L11.064 0.48139C10.1329 -0.0192056 9.04169 -0.131661 8.02805 0.168512C7.0144 0.468685 6.1604 1.15717 5.652 2.08406L3.224 6.53206C2.168 8.46806 2.88267 10.9027 4.8 11.9494L12.864 16.5214L10.6747 23.0881C10.5862 23.3537 10.4164 23.5847 10.1893 23.7484C9.96216 23.9121 9.68929 24.0001 9.40933 24.0001H2.66667V18.6667H0V32.0001H2.66667V26.6667H9.412C10.2517 26.6675 11.0702 26.4038 11.7514 25.9129C12.4326 25.4219 12.9418 24.7289 13.2067 23.9321L15.2293 17.8614L23.8053 22.7227L25.132 20.2921L28.0693 21.9201L30.7507 17.0054L27.8133 15.3761L27.9467 15.1321L27.948 15.1347ZM6.09733 9.61872C5.78734 9.44887 5.55729 9.16308 5.45758 8.82395C5.35787 8.48483 5.39661 8.12001 5.56533 7.80939L7.99333 3.36139C8.236 2.91606 8.69867 2.66539 9.16933 2.66539C9.37733 2.66539 9.58667 2.71472 9.77867 2.81872L27.0533 12.4961L25.9 13.3214L22.7627 19.0681L6.09733 9.61872Z" fill="#27187E" />
    </g>
    <defs>
        <clipPath id="clip0_78_353">
            <rect width="32" height="32" fill="white" />
        </clipPath>
    </defs>
</svg>