<svg xmlns="http://www.w3.org/2000/svg" width="176" height="60" viewBox="0 0 176 60" fill="none">
    <path d="M73.6609 16.6652V40.6703H69V16.6652H73.6609Z" fill="#27187E" />
    <path d="M82.0511 26.6398V40.6703H77.5767V22.8313H81.7799L82.0511 26.6398ZM81.3393 31.1078H80.0173C80.0286 29.8108 80.2094 28.6348 80.5596 27.5796C80.9099 26.5244 81.4014 25.6176 82.0342 24.8592C82.6782 24.1008 83.4409 23.5183 84.3222 23.1116C85.2035 22.7049 86.1866 22.5016 87.2713 22.5016C88.1526 22.5016 88.9492 22.6225 89.661 22.8643C90.3729 23.1061 90.983 23.4908 91.4915 24.0184C92.0112 24.546 92.4067 25.2384 92.6779 26.0958C92.9604 26.9421 93.1016 27.9863 93.1016 29.2283V40.6703H88.5933V29.1953C88.5933 28.3819 88.469 27.739 88.2204 27.2663C87.9831 26.7937 87.6328 26.4585 87.1696 26.2606C86.7176 26.0628 86.1583 25.9639 85.4917 25.9639C84.8024 25.9639 84.1979 26.1012 83.6782 26.376C83.1697 26.6398 82.7403 27.008 82.3901 27.4807C82.0511 27.9533 81.7912 28.4974 81.6104 29.1129C81.4297 29.7284 81.3393 30.3934 81.3393 31.1078Z" fill="#27187E" />
    <path d="M102.221 40.6703H97.7123V21.1826C97.7123 19.8417 97.9778 18.7151 98.5089 17.8028C99.0399 16.8795 99.797 16.1816 100.78 15.7089C101.763 15.2363 102.921 15 104.254 15C104.695 15 105.113 15.0275 105.509 15.0824C105.915 15.1374 106.317 15.2143 106.712 15.3133L106.627 18.6271C106.413 18.5722 106.175 18.5337 105.915 18.5117C105.667 18.4897 105.39 18.4788 105.085 18.4788C104.475 18.4788 103.955 18.5832 103.526 18.792C103.096 19.0008 102.769 19.3086 102.543 19.7153C102.328 20.111 102.221 20.6001 102.221 21.1826V40.6703ZM105.932 22.8313V25.9639H94.9497V22.8313H105.932Z" fill="#27187E" />
    <path d="M107.204 31.9321V31.5859C107.204 30.278 107.396 29.0744 107.78 27.9753C108.165 26.8651 108.724 25.9034 109.458 25.09C110.193 24.2767 111.091 23.6447 112.153 23.194C113.215 22.7324 114.424 22.5016 115.78 22.5016C117.159 22.5016 118.379 22.7324 119.441 23.194C120.514 23.6447 121.418 24.2767 122.153 25.09C122.887 25.9034 123.447 26.8651 123.831 27.9753C124.215 29.0744 124.407 30.278 124.407 31.5859V31.9321C124.407 33.2291 124.215 34.4327 123.831 35.5428C123.447 36.6419 122.887 37.6037 122.153 38.428C121.418 39.2414 120.52 39.8734 119.458 40.324C118.396 40.7747 117.181 41 115.814 41C114.458 41 113.244 40.7747 112.17 40.324C111.097 39.8734 110.193 39.2414 109.458 38.428C108.724 37.6037 108.165 36.6419 107.78 35.5428C107.396 34.4327 107.204 33.2291 107.204 31.9321ZM111.679 31.5859V31.9321C111.679 32.7125 111.758 33.4435 111.916 34.1249C112.074 34.8064 112.317 35.4054 112.645 35.922C112.972 36.4386 113.396 36.8453 113.916 37.142C114.447 37.4278 115.08 37.5707 115.814 37.5707C116.537 37.5707 117.159 37.4278 117.678 37.142C118.198 36.8453 118.622 36.4386 118.95 35.922C119.289 35.4054 119.537 34.8064 119.695 34.1249C119.853 33.4435 119.933 32.7125 119.933 31.9321V31.5859C119.933 30.8165 119.853 30.0966 119.695 29.4261C119.537 28.7447 119.289 28.1456 118.95 27.629C118.622 27.1015 118.193 26.6893 117.661 26.3925C117.142 26.0848 116.515 25.9309 115.78 25.9309C115.057 25.9309 114.436 26.0848 113.916 26.3925C113.396 26.6893 112.972 27.1015 112.645 27.629C112.317 28.1456 112.074 28.7447 111.916 29.4261C111.758 30.0966 111.679 30.8165 111.679 31.5859Z" fill="#27187E" />
    <path d="M134.679 40.6703H129.357L129.391 37.1091H134.679C136.114 37.1091 137.317 36.8013 138.289 36.1858C139.26 35.5593 139.995 34.6635 140.492 33.4984C140.989 32.3223 141.238 30.9155 141.238 29.2777V28.0412C141.238 26.7772 141.096 25.6616 140.814 24.6944C140.531 23.7271 140.113 22.9138 139.56 22.2543C139.017 21.5948 138.345 21.0947 137.543 20.754C136.741 20.4132 135.82 20.2429 134.78 20.2429H129.255V16.6652H134.78C136.43 16.6652 137.933 16.9345 139.289 17.4731C140.656 18.0116 141.837 18.7865 142.831 19.7977C143.836 20.7979 144.605 21.996 145.136 23.3919C145.678 24.7878 145.949 26.3486 145.949 28.0742V29.2777C145.949 30.9924 145.678 32.5532 145.136 33.9601C144.605 35.3559 143.836 36.554 142.831 37.5542C141.837 38.5544 140.65 39.3238 139.272 39.8624C137.893 40.401 136.362 40.6703 134.679 40.6703ZM131.967 16.6652V40.6703H127.306V16.6652H131.967Z" fill="#27187E" />
    <path d="M153.474 26.4914V40.6703H149V22.8313H153.22L153.474 26.4914ZM152.813 31.1078H151.441C151.441 29.8658 151.593 28.7227 151.898 27.6785C152.215 26.6343 152.678 25.7275 153.288 24.9581C153.898 24.1778 154.65 23.5732 155.542 23.1446C156.446 22.7159 157.491 22.5016 158.678 22.5016C159.502 22.5016 160.26 22.6225 160.949 22.8643C161.638 23.0951 162.231 23.4633 162.728 23.9689C163.237 24.4635 163.627 25.112 163.898 25.9144C164.169 26.7058 164.305 27.6565 164.305 28.7666V40.6703H159.83V29.2118C159.83 28.3765 159.706 27.7225 159.457 27.2498C159.22 26.7772 158.875 26.4475 158.423 26.2606C157.971 26.0628 157.429 25.9639 156.796 25.9639C156.096 25.9639 155.491 26.1012 154.983 26.376C154.486 26.6398 154.073 27.008 153.746 27.4807C153.429 27.9533 153.192 28.4974 153.034 29.1129C152.887 29.7284 152.813 30.3934 152.813 31.1078ZM163.966 30.2999L162.118 30.6297C162.13 29.5086 162.288 28.4589 162.593 27.4807C162.898 26.4914 163.344 25.6286 163.932 24.8922C164.531 24.1448 165.271 23.5622 166.152 23.1446C167.045 22.7159 168.073 22.5016 169.237 22.5016C170.141 22.5016 170.954 22.628 171.677 22.8808C172.412 23.1226 173.039 23.5128 173.559 24.0514C174.078 24.5789 174.474 25.2659 174.745 26.1122C175.027 26.9586 175.169 27.9918 175.169 29.2118V40.6703H170.66V29.1953C170.66 28.327 170.536 27.662 170.287 27.2004C170.05 26.7387 169.706 26.42 169.254 26.2441C168.802 26.0573 168.271 25.9639 167.66 25.9639C167.039 25.9639 166.497 26.0793 166.033 26.3101C165.581 26.5299 165.197 26.8377 164.881 27.2334C164.576 27.629 164.344 28.0907 164.186 28.6183C164.039 29.1349 163.966 29.6954 163.966 30.2999Z" fill="#27187E" />
    <g clip-path="url(#clip0_52_231)">
        <path d="M32.4485 57.7664C30.7374 57.7664 29.0193 57.7664 27.3082 57.7664C27.2874 57.6898 27.2248 57.7037 27.1691 57.6968C24.8111 57.4601 22.5227 56.9381 20.3108 56.1099C14.3776 53.8757 9.68247 50.0825 6.35764 44.6884C2.2816 38.0903 1.16173 30.9492 2.97717 23.4324C4.6535 16.4862 8.55565 11.0087 14.4402 6.98574C18.6136 4.13907 23.26 2.6009 28.3029 2.29465C31.8434 2.07889 35.3003 2.51041 38.653 3.64491C45.3305 5.89997 50.4568 10.0969 54.0181 16.173C55.8475 19.2842 56.9743 22.6459 57.4682 26.2234C57.5238 26.6131 57.5029 27.0238 57.656 27.3926C57.656 29.1744 57.656 30.9632 57.656 32.7449C57.5447 32.7797 57.5864 32.8772 57.5795 32.9537C57.4682 33.8864 57.336 34.8121 57.1412 35.7238C56.1605 40.3453 54.1642 44.4796 51.0828 48.0501C46.506 53.3746 40.7188 56.5553 33.7562 57.5715C33.3249 57.6411 32.8728 57.6202 32.4485 57.7664ZM32.1077 17.0848C32.3163 17.1544 32.4763 17.057 32.6363 17.0222C34.0483 16.6672 35.4673 16.5628 36.9001 16.8342C38.9451 17.224 40.6771 18.1218 41.8248 19.9384C42.5551 21.0938 42.9794 22.3605 43.0281 23.7317C43.1185 26.0563 42.4091 28.0956 40.6771 29.6964C39.5642 30.7265 38.18 31.2624 36.7193 31.6035C34.6535 32.0837 32.6293 32.0002 30.7165 30.9771C29.6453 30.4064 28.7481 29.606 27.8438 28.8125C27.4613 28.4784 27.3847 28.4923 27.0996 28.9169C26.9813 29.0909 26.9048 29.2858 26.8631 29.4876C26.7448 30.0375 26.7657 30.5873 26.8213 31.1511C27.1482 31.0467 27.4543 30.9353 27.7882 30.9492C28.3933 30.9771 28.7133 31.3529 28.6437 31.9585C28.5881 32.4526 28.2681 32.738 27.8438 32.8702C26.5083 33.2948 25.2563 33.0929 24.1573 32.216C23.6217 31.7914 23.4687 31.1998 23.6217 30.5247C23.6913 30.2184 23.8721 30.1071 24.1643 30.1071C24.4216 30.114 24.6651 30.1976 24.9016 30.288C24.9989 30.3228 25.1033 30.3716 25.1311 30.2115C25.2424 29.6268 25.3954 29.0352 25.2146 28.4436C25.1241 28.4158 25.0754 28.4784 25.0128 28.5132C22.3905 30.0166 19.6778 30.1488 16.9094 29.0074C14.8853 28.1722 13.529 26.7036 13.1395 24.4764C13.1325 24.4416 13.1186 24.4346 13.0629 24.4764C12.8543 24.8035 12.6734 25.1724 12.5065 25.5552C10.8719 29.2579 10.0998 33.1417 10.0233 37.1785C9.9607 40.3453 10.1068 43.4982 10.5032 46.6372C10.5311 46.8321 10.6145 46.9783 10.7467 47.1175C12.0613 48.5721 13.5012 49.8945 15.1149 51.0151C20.8325 54.9823 27.1274 56.4509 34.0066 55.4139C37.9296 54.8223 41.4909 53.3259 44.7323 51.0499C47.3128 49.2333 49.483 47.0131 51.2637 44.403C51.4097 44.1873 51.4376 44.0133 51.3124 43.7766C51.0411 43.2964 50.8046 42.7883 50.5333 42.3081C49.0726 39.6702 47.5285 37.0741 46.2417 34.3388C45.9356 33.6915 45.5739 33.0581 45.4696 32.3413C45.3305 31.3668 44.9688 30.5038 44.4054 29.6964C43.995 29.1048 43.8559 28.4297 43.9393 27.7128C43.9741 27.4135 43.9741 27.1142 43.9602 26.808C43.7793 24.1632 43.6054 21.5184 43.4176 18.8735C43.2924 17.1683 42.9794 15.5049 42.27 13.9319C42.1726 13.7161 42.0682 13.6465 41.8248 13.6744C40.7397 13.7996 39.6755 14.0015 38.6252 14.2868C36.3298 14.9202 34.1944 15.8877 32.1077 17.0848ZM8.39567 44.0133C8.39567 43.4147 8.41653 42.8858 8.38871 42.3498C8.30524 40.5054 8.35393 38.668 8.46522 36.8305C8.5626 35.2506 8.71563 33.6706 8.94517 32.1046C9.11906 30.9144 9.30686 29.7312 9.59205 28.5619C9.94679 27.1142 10.6354 25.8058 11.2823 24.4833C12.1448 22.7294 13.1881 21.0729 14.2802 19.4512C15.6366 17.4258 17.2433 15.651 19.2396 14.2312C21.5906 12.5538 24.1851 11.294 26.7031 9.92288C27.4265 9.52616 27.7325 9.65144 28.1499 10.3614C29.068 11.9135 29.7775 13.563 30.487 15.2125C30.5844 15.4353 30.6539 15.4909 30.8835 15.3865C31.9407 14.8924 33.0119 14.4469 34.104 14.0641C35.7038 13.5073 37.3036 12.9575 38.9173 12.4215C40.1206 12.0179 41.324 11.6211 42.5899 11.4541C43.2994 11.3636 43.682 11.5446 43.9393 12.1362C44.0158 12.3171 44.0645 12.5051 44.1202 12.693C44.3706 13.5769 44.461 14.4817 44.621 15.3796C44.767 16.2078 44.9479 17.0361 45.0661 17.8713C45.3513 19.841 45.4 21.8385 45.4696 23.8221C45.5322 25.4438 45.5739 27.0586 45.7756 28.6733C45.7895 28.7707 45.7478 28.903 45.8939 28.9239C46.2486 28.9726 46.2556 29.2649 46.3251 29.5155C46.3947 29.78 46.4434 30.0584 46.5199 30.3228C47.0416 32.0629 47.7997 33.6985 48.6344 35.3062C49.8308 37.6031 51.1385 39.8372 52.2862 42.1549C52.3279 42.2315 52.3279 42.3637 52.4322 42.3637C52.5296 42.3637 52.5505 42.2454 52.5992 42.1619C53.1904 41.104 53.6773 39.9973 54.0877 38.8559C54.8389 36.7609 55.3119 34.6033 55.5275 32.383C55.7362 30.2115 55.6458 28.0608 55.3119 25.9171C55.0267 24.1005 54.5329 22.3396 53.8582 20.6205C52.7661 17.8365 51.2359 15.3239 49.2674 13.0828C47.4033 10.9669 45.2609 9.17816 42.7986 7.77222C40.1763 6.27581 37.394 5.2318 34.41 4.72372C32.1285 4.33395 29.8471 4.21563 27.5378 4.44531C25.7571 4.61931 24.0112 4.93948 22.314 5.4754C19.7196 6.30365 17.2851 7.4799 15.0662 9.07376C12.0335 11.2523 9.57814 13.9458 7.7001 17.1822C5.74554 20.5579 4.64654 24.1841 4.31962 28.0608C4.15269 30.0514 4.25007 32.042 4.54916 34.0117C4.9665 36.7122 5.80119 39.2804 7.04626 41.7095C7.44273 42.489 7.86008 43.2546 8.39567 44.0133ZM41.5118 23.7943C41.5118 23.2375 41.4422 22.6876 41.1988 22.1726C40.4893 20.6762 39.3972 19.5487 37.8948 18.8457C36.3159 18.1079 34.7091 18.2123 33.0954 18.7204C31.0921 19.3399 29.4993 20.4535 28.6715 22.458C28.282 23.3906 27.976 24.3581 28.1846 25.3882C28.5463 27.2326 29.6175 28.5759 31.2382 29.4668C33.0954 30.4829 35.0291 30.4203 36.9767 29.7521C39.6824 28.8195 41.4144 26.5435 41.5118 23.7943ZM20.7281 28.381C21.2498 28.381 22.1262 28.2279 22.947 27.852C24.7764 27.0098 25.8267 25.4786 26.5501 23.6829C26.8144 23.0287 26.9604 22.3327 26.7448 21.6436C26.3066 20.2168 25.4928 19.0615 24.0877 18.442C22.627 17.8017 21.069 17.5859 19.4831 17.6277C18.6971 17.6486 17.9806 17.8991 17.3616 18.3794C16.0956 19.3538 15.1844 20.5787 14.7671 22.1378C14.155 24.4068 15.0314 26.4391 17.0903 27.5736C18.0989 28.1235 19.1979 28.374 20.7281 28.381ZM19.4552 16.3122C20.596 16.2287 21.6393 16.2078 22.6757 16.347C24.6581 16.6185 26.3692 17.3075 27.2317 19.312C27.3847 19.66 27.6212 19.9663 27.9203 20.2168C27.9968 20.2795 28.0594 20.3978 28.1638 20.2377C28.7063 19.4443 29.2906 18.6926 30.0349 18.0522C29.5341 17.8991 29.221 17.6346 29.0958 17.1335C28.9567 16.5628 28.755 16.006 28.5672 15.4492C28.1847 14.2938 27.7604 13.1593 27.023 12.171C26.8839 11.9831 26.7657 11.9413 26.5361 12.0248C24.7694 12.6721 23.1139 13.5282 21.5698 14.614C20.8533 15.1221 20.1647 15.658 19.4552 16.3122Z" fill="#27187E" />
        <path d="M35.4386 25.5691C35.4317 26.1537 35.0144 26.5434 34.4093 26.5364C33.7833 26.5295 33.2826 26.0284 33.2826 25.416C33.2826 24.8731 33.6929 24.4347 34.1937 24.4277C34.8475 24.4277 35.4386 24.9706 35.4386 25.5691Z" fill="#27187E" />
        <path d="M23.2108 23.9475C23.1969 24.5668 22.7657 25.0679 22.251 25.0679C21.7155 25.061 21.2495 24.5251 21.2634 23.9335C21.2773 23.3629 21.6598 23.0079 22.2232 23.0288C22.8561 23.0567 23.2247 23.3977 23.2108 23.9475Z" fill="#27187E" />
    </g>
    <rect x="3.2" y="3.19995" width="53.6054" height="53.6054" rx="26.8027" stroke="#27187E" stroke-width="2" />
    <defs>
        <clipPath id="clip0_52_231">
            <rect x="4.2" y="4.19995" width="51.6054" height="51.6054" rx="25.8027" fill="white" />
        </clipPath>
    </defs>
</svg>