<svg width="46" height="46" viewBox="0 0 46 46" fill="none" xmlns="http://www.w3.org/2000/svg">
<g clip-path="url(#clip0_17_1101)">
<path d="M24.877 44.2875C23.5652 44.2875 22.248 44.2875 20.9362 44.2875C20.9202 44.2288 20.8722 44.2395 20.8295 44.2341C19.0217 44.0527 17.2673 43.6525 15.5715 43.0175C11.0227 41.3047 7.42309 38.3965 4.87405 34.2611C1.74909 29.2025 0.890519 23.7277 2.28236 17.9648C3.56754 12.6394 6.55919 8.43991 11.0707 5.35568C14.2703 3.17323 17.8325 1.99396 21.6987 1.75918C24.4131 1.59376 27.0634 1.92459 29.6338 2.79437C34.7532 4.52325 38.6834 7.74089 41.4138 12.3993C42.8163 14.7845 43.6802 17.3618 44.0588 20.1045C44.1015 20.4033 44.0855 20.7182 44.2028 21.001C44.2028 22.367 44.2028 23.7384 44.2028 25.1044C44.1175 25.1311 44.1494 25.2058 44.1441 25.2645C44.0588 25.9795 43.9575 26.6892 43.8082 27.3882C43.0562 30.9314 41.5258 34.101 39.1634 36.8384C35.6544 40.9205 31.2176 43.359 25.8796 44.1381C25.549 44.1915 25.2023 44.1754 24.877 44.2875ZM24.6157 13.0983C24.7757 13.1516 24.8984 13.0769 25.021 13.0503C26.1036 12.7781 27.1914 12.6981 28.29 12.9062C29.8578 13.205 31.1856 13.8934 32.0655 15.2861C32.6255 16.1719 32.9508 17.143 32.9881 18.1942C33.0574 19.9765 32.5135 21.5399 31.1856 22.7672C30.3324 23.5569 29.2712 23.9678 28.1513 24.2293C26.5675 24.5975 25.0157 24.5334 23.5492 23.749C22.728 23.3115 22.04 22.6978 21.3468 22.0895C21.0535 21.8334 20.9948 21.8441 20.7762 22.1696C20.6855 22.303 20.6269 22.4524 20.5949 22.6071C20.5042 23.0287 20.5202 23.4502 20.5629 23.8824C20.8135 23.8024 21.0482 23.717 21.3041 23.7277C21.7681 23.749 22.0134 24.0372 21.9601 24.5014C21.9174 24.8803 21.6721 25.0991 21.3468 25.2005C20.3229 25.526 19.363 25.3712 18.5205 24.6989C18.1098 24.3734 17.9925 23.9198 18.1098 23.4022C18.1632 23.1674 18.3018 23.082 18.5258 23.082C18.7231 23.0874 18.9097 23.1514 19.0911 23.2208C19.1657 23.2475 19.2457 23.2848 19.267 23.1621C19.3524 22.7139 19.4697 22.2603 19.331 21.8067C19.2617 21.7854 19.2244 21.8334 19.1764 21.8601C17.1659 23.0127 15.0862 23.1141 12.9638 22.2389C11.412 21.5986 10.3721 20.4727 10.0734 18.7652C10.0681 18.7385 10.0574 18.7332 10.0148 18.7652C9.8548 19.016 9.71615 19.2988 9.58817 19.5923C8.33498 22.431 7.74305 25.4086 7.68439 28.5035C7.63639 30.9314 7.74838 33.3486 8.05235 35.7552C8.07368 35.9046 8.13767 36.0166 8.23899 36.1233C9.24687 37.2386 10.3507 38.2524 11.5879 39.1115C15.9714 42.1531 20.7975 43.279 26.0716 42.4839C29.0792 42.0304 31.8096 40.8831 34.2946 39.1382C36.273 37.7455 37.9368 36.0433 39.302 34.0423C39.414 33.8769 39.4353 33.7435 39.3393 33.562C39.1314 33.1939 38.9501 32.8043 38.7421 32.4361C37.6222 30.4138 36.4384 28.4234 35.4518 26.3264C35.2172 25.8301 34.9399 25.3445 34.8599 24.7949C34.7532 24.0479 34.4759 23.3862 34.044 22.7672C33.7293 22.3136 33.6227 21.7961 33.6867 21.2464C33.7133 21.017 33.7133 20.7875 33.7027 20.5528C33.564 18.5251 33.4307 16.4974 33.2867 14.4697C33.1907 13.1623 32.9508 11.887 32.4068 10.6811C32.3322 10.5156 32.2522 10.4623 32.0655 10.4836C31.2336 10.5797 30.4177 10.7344 29.6125 10.9532C27.8527 11.4388 26.2155 12.1805 24.6157 13.0983ZM6.43654 33.7435C6.43654 33.2846 6.45253 32.879 6.4312 32.4682C6.36721 31.0541 6.40454 29.6454 6.48986 28.2367C6.56452 27.0254 6.68184 25.8141 6.85782 24.6135C6.99114 23.701 7.13512 22.7939 7.35376 21.8974C7.62573 20.7875 8.15367 19.7844 8.64961 18.7705C9.31087 17.4258 10.1108 16.1558 10.948 14.9125C11.9879 13.3598 13.2197 11.9991 14.7502 10.9105C16.5527 9.62452 18.5418 8.65869 20.4722 7.60749C21.0268 7.30333 21.2615 7.39938 21.5814 7.94366C22.2853 9.1336 22.8293 10.3982 23.3732 11.6629C23.4479 11.8336 23.5012 11.8763 23.6772 11.7963C24.4878 11.4174 25.309 11.0759 26.1462 10.7824C27.3727 10.3556 28.5993 9.93401 29.8365 9.52313C30.759 9.21364 31.6816 8.90948 32.6521 8.78142C33.1961 8.71205 33.4894 8.85079 33.6867 9.30435C33.7453 9.44309 33.7827 9.58716 33.8253 9.73124C34.0173 10.4089 34.0866 11.1026 34.2093 11.791C34.3213 12.4259 34.4599 13.0609 34.5506 13.7013C34.7692 15.2114 34.8065 16.7428 34.8599 18.2636C34.9079 19.5069 34.9399 20.7448 35.0945 21.9828C35.1052 22.0575 35.0732 22.1589 35.1852 22.1749C35.4571 22.2123 35.4625 22.4364 35.5158 22.6285C35.5691 22.8312 35.6064 23.0447 35.6651 23.2475C36.0651 24.5815 36.6463 25.8354 37.2863 27.0681C38.2035 28.829 39.206 30.5418 40.0859 32.3187C40.1179 32.3774 40.1179 32.4788 40.1979 32.4788C40.2726 32.4788 40.2886 32.3881 40.3259 32.3241C40.7792 31.513 41.1525 30.6646 41.4671 29.7895C42.043 28.1833 42.4057 26.5291 42.571 24.8269C42.7309 23.1621 42.6616 21.5132 42.4057 19.8697C42.187 18.477 41.8084 17.127 41.2911 15.809C40.4539 13.6746 39.2807 11.7483 37.7715 10.0301C36.3424 8.4079 34.6999 7.03653 32.8121 5.95865C30.8017 4.8114 28.6686 4.01099 26.3809 3.62146C24.6317 3.32264 22.8826 3.23193 21.1122 3.40802C19.747 3.54142 18.4085 3.78688 17.1073 4.19775C15.1182 4.83274 13.2517 5.73453 11.5506 6.95649C9.22554 8.62667 7.3431 10.6917 5.90326 13.173C4.40477 15.761 3.56221 18.5411 3.31157 21.5132C3.18358 23.0394 3.25824 24.5655 3.48755 26.0756C3.80751 28.146 4.44744 30.115 5.40199 31.9772C5.70595 32.5749 6.02592 33.1618 6.43654 33.7435ZM31.8256 18.2422C31.8256 17.8154 31.7722 17.3938 31.5856 16.9989C31.0417 15.8517 30.2044 14.9872 29.0525 14.4483C27.842 13.8827 26.6102 13.9627 25.373 14.3523C23.8372 14.8272 22.616 15.6809 21.9814 17.2177C21.6827 17.9327 21.4481 18.6745 21.6081 19.4642C21.8854 20.8783 22.7066 21.9081 23.9492 22.5911C25.373 23.3702 26.8555 23.3222 28.3486 22.8099C30.4231 22.0949 31.7509 20.35 31.8256 18.2422ZM15.8914 21.7587C16.2914 21.7587 16.9633 21.6413 17.5926 21.3532C18.9951 20.7075 19.8003 19.5336 20.3549 18.1569C20.5575 17.6553 20.6695 17.1217 20.5042 16.5934C20.1683 15.4995 19.5443 14.6137 18.4671 14.1388C17.3473 13.6479 16.1527 13.4825 14.9369 13.5145C14.3343 13.5305 13.785 13.7226 13.3104 14.0908C12.3398 14.8378 11.6413 15.777 11.3213 16.9723C10.852 18.7118 11.5239 20.2699 13.1024 21.1397C13.8757 21.5613 14.7182 21.7534 15.8914 21.7587ZM14.9155 12.506C15.7901 12.442 16.59 12.4259 17.3846 12.5327C18.9044 12.7408 20.2163 13.269 20.8775 14.8058C20.9948 15.0726 21.1761 15.3074 21.4054 15.4995C21.4641 15.5475 21.5121 15.6382 21.5921 15.5155C22.008 14.9072 22.456 14.3309 23.0266 13.84C22.6426 13.7226 22.4027 13.5198 22.3067 13.1356C22.2 12.6981 22.0454 12.2712 21.9014 11.8443C21.6081 10.9585 21.2828 10.0888 20.7175 9.33103C20.6109 9.18696 20.5202 9.15494 20.3442 9.21898C18.9897 9.71523 17.7205 10.3716 16.5367 11.204C15.9874 11.5935 15.4595 12.0044 14.9155 12.506Z" fill="#27187E"/>
<path d="M27.1696 19.6029C27.1642 20.0511 26.8443 20.3499 26.3804 20.3446C25.9005 20.3392 25.5166 19.9551 25.5166 19.4855C25.5166 19.0694 25.8312 18.7332 26.2151 18.7279C26.7163 18.7279 27.1696 19.1441 27.1696 19.6029Z" fill="#27187E"/>
<path d="M17.7948 18.3596C17.7841 18.8345 17.4535 19.2186 17.0589 19.2186C16.6483 19.2133 16.2911 18.8025 16.3017 18.349C16.3124 17.9114 16.6057 17.6393 17.0376 17.6553C17.5228 17.6767 17.8054 17.9381 17.7948 18.3596Z" fill="#27187E"/>
</g>
<rect x="2.71997" y="2.71997" width="40.5642" height="40.5642" rx="20.2821" stroke="#27187E"/>
<defs>
<clipPath id="clip0_17_1101">
<rect x="3.21997" y="3.21997" width="39.5642" height="39.5642" rx="19.7821" fill="white"/>
</clipPath>
</defs>
</svg>
