<svg width="375" height="812" viewBox="0 0 375 812" fill="none" xmlns="http://www.w3.org/2000/svg">
<g clip-path="url(#clip0_59_225)">
<rect width="375" height="812" fill="white"/>
<rect width="375" height="812" fill="url(#paint0_linear_59_225)"/>
<path d="M1030.1 413.928L1016.55 411M1030.1 413.928H989.95M1030.1 413.928L1044.1 416.954M1030.1 413.928H1058.53M1016.55 411L1021.48 411.001L1026.36 411.007L1031.14 411.025L1035.76 411.06L1040.19 411.117L1044.37 411.203L1048.25 411.322L1051.85 411.474L1054.94 411.684L1057.76 411.928L1058.53 412.013V413.928M1016.55 411H977.048M977.048 411H937.546M977.048 411L989.95 413.928M937.546 411H898.043M937.546 411L949.803 413.928M898.043 411H858.541M898.043 411L909.656 413.928M858.541 411H819.039M858.541 411L869.508 413.928M819.039 411H779.536M819.039 411L829.361 413.928M779.536 411H740.033M779.536 411L789.213 413.928M740.033 411H700.531M740.033 411L749.065 413.928M700.531 411H661.028M700.531 411L708.918 413.928M661.028 411H621.526M661.028 411L668.77 413.928M621.526 411H582.024M621.526 411L628.623 413.928M582.024 411H542.522M582.024 411L588.475 413.928M542.522 411H503.019M542.522 411L543.955 411.723L546.129 412.819L548.327 413.928M503.019 411H463.517M503.019 411L504.293 411.723L508.18 413.928M463.517 411H424.015M463.517 411L468.032 413.928M424.015 411H384.512M424.015 411L425.451 412.087L426.906 413.187L427.394 413.557L427.886 413.928M384.512 411H345.009M384.512 411L385.709 412.087L386.112 412.452L386.516 412.819L387.738 413.928M345.009 411H305.507M345.009 411L347.59 413.928M305.507 411L305.746 411.361L305.985 411.723L307.197 413.557L307.443 413.928M305.507 411H266.005M266.005 411H226.502M266.005 411L267.295 413.928M226.502 411H187M226.502 411L226.742 412.087L227.148 413.928M187 411H147.498M187 411V413.928M147.498 411H107.995M147.498 411L147.258 412.087L146.852 413.928M107.995 411H68.4927M107.995 411L106.705 413.928M68.4927 411L68.254 411.361L68.0152 411.723L66.8032 413.557L66.5572 413.928M68.4927 411H28.9905M28.9905 411H-10.5125M28.9905 411L26.7373 413.557L26.4096 413.928M-10.5125 411H-50.0146M-10.5125 411L-11.709 412.087L-12.112 412.452L-12.9218 413.187L-13.3286 413.557L-13.738 413.928M-50.0146 411H-89.5167M-50.0146 411L-51.4508 412.087L-52.906 413.187L-53.3944 413.557L-53.8856 413.928M-89.5167 411H-129.019M-89.5167 411L-94.0323 413.928M-129.019 411H-168.522M-129.019 411L-130.293 411.723L-134.18 413.928M-168.522 411H-208.024M-168.522 411L-174.328 413.928M-208.024 411H-247.526M-208.024 411L-214.475 413.928M-247.526 411H-287.029M-247.526 411L-254.623 413.928M-287.029 411H-326.531M-287.029 411L-294.77 413.928M-326.531 411H-366.033M-326.531 411L-334.918 413.928M-366.033 411H-405.536M-366.033 411L-375.066 413.928M-405.536 411H-445.039M-405.536 411L-415.213 413.928M-445.039 411H-484.541M-445.039 411L-455.361 413.928M-484.541 411H-524.043M-484.541 411L-495.508 413.928M-524.043 411H-563.546M-524.043 411L-535.656 413.928M-563.546 411H-603.048M-563.546 411L-575.803 413.928M-603.048 411H-642.55M-603.048 411L-615.95 413.928M-642.55 411L-647.48 411.001L-652.358 411.007L-657.136 411.025L-661.763 411.06L-666.189 411.117L-670.368 411.203L-674.249 411.322L-677.852 411.474L-680.943 411.684L-683.757 411.928L-684.531 412.013V413.928M-642.55 411L-656.098 413.928M-575.803 413.928H-535.656M-575.803 413.928H-615.95M-575.803 413.928L-588.468 416.954M-535.656 413.928L-547.654 416.954M-535.656 413.928H-495.508M-415.213 413.928H-375.066M-415.213 413.928H-455.361M-415.213 413.928L-417.682 414.676L-425.211 416.954M-375.066 413.928L-384.397 416.954M-375.066 413.928H-334.918M-254.623 413.928H-214.475M-254.623 413.928H-294.77M-254.623 413.928L-256.433 414.676L-257.344 415.051L-261.955 416.954M-214.475 413.928L-215.297 414.301L-216.121 414.676L-221.141 416.954M-214.475 413.928H-174.328M-94.0323 413.928L-94.6078 414.301L-98.6986 416.954M-94.0323 413.928H-53.8856M-94.0323 413.928H-134.18M-53.8856 413.928L-54.8724 414.676L-55.3699 415.051L-55.8683 415.428L-57.8846 416.954M-53.8856 413.928H-13.738M66.5572 413.928H106.705M66.5572 413.928H26.4096M66.5572 413.928L64.5582 416.954M106.705 413.928L106.54 414.301L106.376 414.676L106.21 415.051L105.709 416.188L105.372 416.954M106.705 413.928H146.852M227.148 413.928H267.295M227.148 413.928H187M227.148 413.928L227.814 416.954M267.295 413.928L267.459 414.301L267.624 414.676L267.79 415.051L268.628 416.954M267.295 413.928H307.443M387.738 413.928H427.886M387.738 413.928H347.59M387.738 413.928L388.56 414.676L390.227 416.188L390.648 416.57L391.071 416.954M427.886 413.928L428.872 414.676L429.37 415.051L429.868 415.428L431.885 416.954M427.886 413.928H468.032M548.327 413.928H588.475M548.327 413.928H508.18M548.327 413.928L549.809 414.676L550.554 415.051L554.327 416.954M588.475 413.928L589.297 414.301L590.121 414.676L595.141 416.954M588.475 413.928H628.623M708.918 413.928H749.065M708.918 413.928H668.77M708.918 413.928L711.058 414.676L712.134 415.051L717.583 416.954M749.065 413.928L758.397 416.954M749.065 413.928H789.213M869.508 413.928H909.656M869.508 413.928H829.361M869.508 413.928L880.839 416.954M909.656 413.928L921.654 416.954M909.656 413.928H949.803M-684.671 441.314H-684.531M-644.262 441.314L-628.934 437.449M-644.262 441.314L-660.178 445.327M-644.262 441.314H-598.081M-644.262 441.314H-684.531M-628.934 437.449H-674.264M-628.934 437.449L-614.161 433.724M-628.934 437.449H-583.605M-674.264 437.449L-658.67 433.724M-674.264 437.449H-684.531M-674.264 437.449L-684.531 439.901M-629.118 426.664H-586.164M-629.118 426.664L-615.102 423.316M-629.118 426.664H-672.07M-629.118 426.664L-643.631 430.131M-586.164 426.664L-572.886 423.316M-586.164 426.664L-599.913 430.131M-586.164 426.664H-543.21M-615.102 423.316H-572.886M-615.102 423.316L-601.56 420.081M-615.102 423.316H-657.318M-572.886 423.316H-530.67M-572.886 423.316L-560.057 420.081M-684.973 502.319H-684.531M-647.709 502.319L-627.944 495.911M-647.709 502.319L-668.457 509.045M-647.709 502.319H-588.087M-647.709 502.319H-684.531M-627.944 495.911L-609.092 489.8M-627.944 495.911H-569.734M-627.944 495.911H-684.531M-665.956 489.8H-609.092M-665.956 489.8L-646.672 483.964M-665.956 489.8H-684.531M-665.956 489.8L-684.531 495.42M-628.241 478.387H-573.892M-628.241 478.387L-610.607 473.052M-628.241 478.387H-682.59M-628.241 478.387L-646.672 483.964M-573.892 478.387L-557.432 473.052M-573.892 478.387L-591.094 483.964M-573.892 478.387H-519.542M-610.607 473.052H-557.432M-610.607 473.052H-663.78M-610.607 473.052L-593.719 467.942M-557.432 473.052L-541.671 467.942M-557.432 473.052H-504.259M-562.002 458.345H-512.069M-562.002 458.345L-547.091 453.833M-562.002 458.345H-611.936M-562.002 458.345L-577.532 463.044M-512.069 458.345L-498.152 453.833M-512.069 458.345L-526.563 463.044M-512.069 458.345H-462.135M-547.091 453.833H-498.152M-547.091 453.833H-596.03M-547.091 453.833L-532.762 449.497M-498.152 453.833L-484.778 449.497M-498.152 453.833H-449.212M-505.719 441.314H-459.538M-505.719 441.314L-492.945 437.449M-505.719 441.314H-551.9M-505.719 441.314L-518.982 445.327M-459.538 441.314L-447.616 437.449M-459.538 441.314L-471.916 445.327M-459.538 441.314H-413.357M-492.945 437.449H-447.616M-492.945 437.449H-538.275M-492.945 437.449L-480.634 433.724M-447.616 437.449L-436.125 433.724M-447.616 437.449H-402.286M-457.304 426.664H-414.35M-457.304 426.664L-446.239 423.316M-457.304 426.664H-500.256M-457.304 426.664L-468.761 430.131M-414.35 426.664L-404.023 423.316M-414.35 426.664L-425.044 430.131M-414.35 426.664H-371.396M-446.239 423.316H-404.023M-446.239 423.316L-435.547 420.081M-446.239 423.316H-488.454M-404.023 423.316H-361.806M-404.023 423.316L-394.044 420.081M-653.984 613.412L-626.166 600.785M-653.984 613.412L-683.774 626.932M-653.984 613.412H-569.886M-653.984 613.412H-684.531M-626.166 600.785L-600.128 588.968M-626.166 600.785H-544.85M-626.166 600.785H-684.531M-626.731 567.466H-552.755M-626.731 567.466L-602.959 557.657M-626.731 567.466L-651.978 577.884M-626.731 567.466H-684.531M-552.755 567.466L-531.145 557.657M-552.755 567.466L-575.707 577.884M-552.755 567.466H-478.78M-602.959 557.657H-531.145M-602.959 557.657H-674.773M-602.959 557.657L-580.536 548.405M-531.145 557.657L-510.76 548.405M-531.145 557.657H-459.33M-539.305 531.392H-473.277M-539.305 531.392L-520.307 523.554M-539.305 531.392H-605.333M-539.305 531.392L-559.352 539.665M-473.277 531.392L-456.006 523.554M-473.277 531.392L-491.502 539.665M-473.277 531.392H-407.25M-520.307 523.554H-456.006M-520.307 523.554H-584.608M-520.307 523.554L-502.278 516.115M-456.006 523.554L-439.616 516.115M-456.006 523.554H-391.706M-468.843 502.319H-409.22M-468.843 502.319L-453.313 495.911M-468.843 502.319H-528.465M-468.843 502.319L-485.144 509.045M-409.22 502.319L-395.103 495.911M-409.22 502.319L-424.041 509.045M-409.22 502.319H-349.599M-453.313 495.911H-395.103M-453.313 495.911H-511.523M-453.313 495.911L-438.501 489.8M-395.103 495.911L-381.637 489.8M-395.103 495.911H-336.893M-410.843 478.387H-356.494M-410.843 478.387L-397.911 473.052M-410.843 478.387H-465.193M-410.843 478.387L-424.36 483.964M-356.494 478.387L-344.737 473.052M-356.494 478.387L-368.781 483.964M-356.494 478.387H-302.145M-397.911 473.052H-344.737M-397.911 473.052H-451.085M-397.911 473.052L-385.528 467.942M-344.737 473.052L-333.479 467.942M-344.737 473.052H-291.564M-362.269 458.345H-312.335M-362.269 458.345L-351.334 453.833M-362.269 458.345H-412.202M-362.269 458.345L-373.657 463.044M-312.335 458.345L-311.07 457.771L-302.394 453.833M-312.335 458.345L-322.687 463.044M-312.335 458.345H-262.401M-351.334 453.833H-302.394M-351.334 453.833H-400.273M-351.334 453.833L-340.825 449.497M-302.394 453.833L-292.841 449.497M-302.394 453.833H-253.454M-320.994 441.314H-274.812M-320.994 441.314L-311.626 437.449M-320.994 441.314H-367.175M-320.994 441.314L-330.72 445.327M-274.812 441.314L-266.297 437.449M-274.812 441.314L-278.089 442.801L-283.655 445.327M-274.812 441.314H-228.631M-311.626 437.449H-266.297M-311.626 437.449H-356.956M-311.626 437.449L-302.599 433.724M-266.297 437.449L-258.09 433.724M-266.297 437.449H-220.967M-285.489 426.664H-242.536M-285.489 426.664L-277.375 423.316M-285.489 426.664H-328.442M-285.489 426.664L-293.892 430.131M-242.536 426.664L-236.979 424.143L-236.067 423.728L-235.159 423.316M-242.536 426.664L-250.174 430.131M-242.536 426.664H-199.582M-277.375 423.316H-235.159M-277.375 423.316L-269.535 420.081M-277.375 423.316H-319.591M-235.159 423.316H-192.943M-235.159 423.316L-228.032 420.081M-623.514 757.242H-507.726M-623.514 757.242L-587.055 733.602M-623.514 757.242L-663.578 783.219M-623.514 757.242L-684.531 757.243M-507.726 757.242L-476.475 733.602M-507.726 757.242L-542.066 783.219M-507.726 757.242H-391.939M-587.055 733.602H-476.475M-587.055 733.602L-553.735 711.998M-587.055 733.602H-684.531M-476.475 733.602L-447.916 711.998M-476.475 733.602H-365.896M-495.018 673.926H-397.586M-495.018 673.926L-469.017 657.067M-495.018 673.926H-592.449M-495.018 673.926L-523.165 692.176M-397.586 673.926L-375.301 657.067M-397.586 673.926L-421.712 692.176M-397.586 673.926H-300.156M-469.017 657.067H-375.301M-469.017 657.067H-562.734M-469.017 657.067L-444.926 641.447M-375.301 657.067L-354.651 641.447M-375.301 657.067H-281.584M-401.689 613.412H-317.591M-401.689 613.412L-382.216 600.785M-401.689 613.412H-485.788M-401.689 613.412L-422.542 626.932M-317.591 613.412L-300.899 600.785M-317.591 613.412L-335.464 626.932M-317.591 613.412H-233.493M-382.216 600.785H-300.899M-382.216 600.785H-463.533M-382.216 600.785L-363.99 588.968M-300.899 600.785L-285.277 588.968M-300.899 600.785H-219.583M-330.829 567.466H-256.853M-330.829 567.466L-315.701 557.657M-330.829 567.466H-404.804M-330.829 567.466L-346.895 577.884M-256.853 567.466L-243.887 557.657M-256.853 567.466L-270.624 577.884M-256.853 567.466H-182.878M-315.701 557.657H-243.887M-315.701 557.657H-387.516M-315.701 557.657L-301.432 548.405M-243.887 557.657L-231.656 548.405M-243.887 557.657H-172.072M-275.194 531.392H-209.166M-275.194 531.392L-263.105 523.554M-275.194 531.392H-341.222M-275.194 531.392L-287.952 539.665M-209.166 531.392L-198.804 523.554M-209.166 531.392L-220.101 539.665M-209.166 531.392H-143.139M-263.105 523.554H-198.804M-263.105 523.554H-327.406M-263.105 523.554L-251.631 516.115M-198.804 523.554L-188.97 516.115M-198.804 523.554H-134.503M-230.354 502.319H-170.733M-230.354 502.319L-220.471 495.911M-230.354 502.319H-289.977M-230.354 502.319L-240.728 509.045M-170.733 502.319L-162.261 495.911M-170.733 502.319L-179.625 509.045M-170.733 502.319H-111.111M-220.471 495.911H-162.261M-220.471 495.911H-278.682M-220.471 495.911L-211.046 489.8M-162.261 495.911L-154.182 489.8M-162.261 495.911H-104.051M-193.446 478.387H-139.096M-193.446 478.387L-185.216 473.052M-193.446 478.387H-247.795M-193.446 478.387L-202.047 483.964M-139.096 478.387L-132.043 473.052M-139.096 478.387L-146.468 483.964M-139.096 478.387H-84.7468M-185.216 473.052H-132.043M-185.216 473.052H-238.39M-185.216 473.052L-177.335 467.942M-132.043 473.052L-125.288 467.942M-132.043 473.052H-78.8686M-162.535 458.345H-112.6M-162.535 458.345L-155.576 453.833M-162.535 458.345H-212.468M-162.535 458.345L-169.782 463.044M-112.6 458.345L-113.364 458.921L-118.813 463.044M-112.6 458.345L-106.637 453.833M-112.6 458.345H-62.6672M-155.576 453.833H-106.637M-155.576 453.833H-204.515M-155.576 453.833L-148.889 449.497M-106.637 453.833L-100.905 449.497M-106.637 453.833H-57.6967M-136.269 441.314H-90.0877M-136.269 441.314L-130.308 437.449M-136.269 441.314H-182.45M-136.269 441.314L-142.458 445.327M-90.0877 441.314L-84.9783 437.449M-90.0877 441.314L-92.0532 442.801L-93.3796 443.805L-95.3922 445.327M-90.0877 441.314H-43.9066M-130.308 437.449H-84.9783M-130.308 437.449H-175.638M-130.308 437.449L-124.563 433.724M-84.9783 437.449L-83.11 436.036L-81.879 435.105L-80.0533 433.724M-84.9783 437.449H-39.6488M-113.674 426.664H-70.7216M-113.674 426.664L-109.785 424.143L-108.511 423.316M-113.674 426.664H-156.628M-113.674 426.664L-118.343 429.691L-119.022 430.131M-70.7216 426.664L-67.3871 424.143L-66.8405 423.728L-66.2949 423.316M-70.7216 426.664L-72.993 428.382L-75.3044 430.131M-70.7216 426.664H-27.7678M-108.511 423.316H-66.2949M-108.511 423.316L-103.522 420.081M-108.511 423.316H-150.727M-66.2949 423.316H-24.0792M-66.2949 423.316L-62.019 420.081M-160.363 757.242H-44.5757M-160.363 757.242L-144.738 733.602M-160.363 757.242H-276.15M-160.363 757.242L-177.533 783.219M-44.5757 757.242L-34.1581 733.602M-44.5757 757.242L-56.0217 783.219M-44.5757 757.242H71.2126M-144.738 733.602H-34.1581M-144.738 733.602H-255.317M-144.738 733.602L-130.458 711.998M-34.1581 733.602L-24.6385 711.998M-34.1581 733.602H76.4209M-105.293 673.926H-7.86243M-105.293 673.926L-94.1503 657.067M-105.293 673.926H-202.725M-105.293 673.926L-117.357 692.176M-7.86243 673.926L-0.433551 657.067M-7.86243 673.926L-15.9041 692.176M-7.86243 673.926H89.5693M-94.1503 657.067H-0.433551M-94.1503 657.067H-187.867M-94.1503 657.067L-83.8254 641.447M-0.433551 657.067L6.44975 641.447M-0.433551 657.067H93.2833M-65.2954 613.412H18.8028M-65.2954 613.412L-56.9496 600.785M-65.2954 613.412H-149.394M-65.2954 613.412L-74.2322 626.932M18.8028 613.412L24.3669 600.785M18.8028 613.412L12.8455 626.932M18.8028 613.412H102.902M-56.9496 600.785H24.3669M-56.9496 600.785H-138.266M-56.9496 600.785L-49.1385 588.968M24.3669 600.785L29.5744 588.968M24.3669 600.785H105.684M-34.9262 567.466H39.0486M-34.9262 567.466L-28.4432 557.657M-34.9262 567.466H-108.902M-34.9262 567.466L-41.8122 577.884M39.0486 567.466L43.3709 557.657M39.0486 567.466L34.4586 577.884M39.0486 567.466H113.024M-28.4432 557.657H43.3709M-28.4432 557.657H-100.257M-28.4432 557.657L-22.328 548.405M43.3709 557.657L47.448 548.405M43.3709 557.657H115.186M-11.0834 531.392H54.945M-11.0834 531.392L-5.90239 523.554M-11.0834 531.392H-77.111M-11.0834 531.392L-16.5505 539.665M54.945 531.392L58.3984 523.554M54.945 531.392L51.3 539.665M54.945 531.392H120.973M-5.90239 523.554H58.3984M-5.90239 523.554H-70.2023M-5.90239 523.554L-0.984607 516.115M58.3984 523.554L61.6767 516.115M58.3984 523.554H122.699M8.13379 502.319H67.7556M8.13379 502.319L12.3689 495.911M8.13379 502.319H-51.488M8.13379 502.319L3.6881 509.045M67.7556 502.319L70.5799 495.911M67.7556 502.319L64.7914 509.045M67.7556 502.319H127.378M12.3689 495.911H70.5799M12.3689 495.911H-45.8412M12.3689 495.911L13.9068 493.586L16.4088 489.8M70.5799 495.911L73.2726 489.8M70.5799 495.911H128.79M23.9521 478.387H78.3011M23.9521 478.387L27.4791 473.052M23.9521 478.387H-30.3978M23.9521 478.387L21.2031 482.547L20.2653 483.964M78.3011 478.387L79.1953 476.359L80.6524 473.052M78.3011 478.387L75.8436 483.964M78.3011 478.387H132.651M27.4791 473.052L27.9084 472.401L30.8562 467.942M27.4791 473.052H80.6524M27.4791 473.052H-25.6952M80.6524 473.052L81.5085 471.11L81.7899 470.469L82.0714 469.832L82.9038 467.942M80.6524 473.052H133.827M37.1993 458.345H87.1326M37.1993 458.345L38.7054 456.066L39.0777 455.504L39.4472 454.944L39.8158 454.387L40.1816 453.833M37.1993 458.345H-12.7339M37.1993 458.345L34.0936 463.044M87.1326 458.345L88.6315 454.944L88.8775 454.387L89.1208 453.833M87.1326 458.345L85.0627 463.044M87.1326 458.345H137.067M40.1816 453.833H89.1208M40.1816 453.833H-8.75758M40.1816 453.833L41.9864 451.103L42.3414 450.565L43.0477 449.497M89.1208 453.833L90.3237 451.103L90.5615 450.565L90.7967 450.029L91.0318 449.497M89.1208 453.833H138.061M48.4566 441.314H94.6378M48.4566 441.314L51.0113 437.449M48.4566 441.314H2.27458M48.4566 441.314L47.8021 442.303L46.8098 443.805L45.8039 445.327M94.6378 441.314L94.4198 441.807L93.0935 444.817L92.8693 445.327M94.6378 441.314L96.3409 437.449M94.6378 441.314H140.819M51.0113 437.449H96.3409M51.0113 437.449H5.68171M51.0113 437.449L53.4734 433.724M96.3409 437.449L96.9636 436.036L97.1688 435.569L97.374 435.105L97.9822 433.724M96.3409 437.449H141.67M58.1397 426.664H101.093M58.1397 426.664L59.8065 424.143L60.3521 423.316M58.1397 426.664H15.1859M58.1397 426.664L57.289 427.95L57.004 428.382L56.7162 428.817L55.8474 430.131M101.093 426.664L101.28 426.239L101.652 425.395L102.021 424.558L102.568 423.316M101.093 426.664L100.335 428.382L100.145 428.817L99.7589 429.691L99.5655 430.131M101.093 426.664H144.046M60.3521 423.316H102.568M60.3521 423.316L62.2268 420.48L62.491 420.081M60.3521 423.316H18.1364M102.568 423.316L102.749 422.906L102.929 422.497L103.109 422.09L103.287 421.685L103.818 420.48L103.994 420.081M102.568 423.316H144.784M302.787 757.242H418.576M302.787 757.242L297.579 733.602M302.787 757.242H187M302.787 757.242L308.511 783.219M418.576 757.242L408.159 733.602M418.576 757.242L430.022 783.219M418.576 757.242H534.363M297.579 733.602H408.159M297.579 733.602H187M297.579 733.602L292.819 711.998M408.159 733.602L398.638 711.998M408.159 733.602H518.738M284.431 673.926H381.862M284.431 673.926L280.717 657.067M284.431 673.926H187M284.431 673.926L288.452 692.176M381.862 673.926L374.433 657.067M381.862 673.926L389.904 692.176M381.862 673.926H479.293M280.717 657.067H374.433M280.717 657.067H187M280.717 657.067L277.275 641.447M374.433 657.067L367.55 641.447M374.433 657.067H468.15M271.098 613.412H355.197M271.098 613.412L268.317 600.785M271.098 613.412H187M271.098 613.412L274.078 626.932M355.197 613.412L349.633 600.785M355.197 613.412L361.155 626.932M355.197 613.412H439.295M268.317 600.785H349.633M268.317 600.785H187M268.317 600.785L265.713 588.968M349.633 600.785L344.426 588.968M349.633 600.785H430.95M260.976 567.466H334.951M260.976 567.466L258.814 557.657M260.976 567.466H187M260.976 567.466L263.271 577.884M334.951 567.466L330.629 557.657M334.951 567.466L339.541 577.884M334.951 567.466H408.926M258.814 557.657H330.629M258.814 557.657H187M258.814 557.657L256.776 548.405M330.629 557.657L326.552 548.405M330.629 557.657H402.443M253.027 531.392H319.055M253.027 531.392L251.301 523.554M253.027 531.392H187M253.027 531.392L254.85 539.665M319.055 531.392L315.602 523.554M319.055 531.392L322.7 539.665M319.055 531.392H385.083M251.301 523.554H315.602M251.301 523.554H187M251.301 523.554L249.661 516.115M315.602 523.554L312.323 516.115M315.602 523.554H379.902M246.622 502.319H306.244M246.622 502.319L245.21 495.911M246.622 502.319H187M246.622 502.319L248.104 509.045M306.244 502.319L303.42 495.911M306.244 502.319L309.209 509.045M306.244 502.319H365.866M245.21 495.911H303.42M245.21 495.911H187M245.21 495.911L243.864 489.8M303.42 495.911L300.727 489.8M303.42 495.911H361.631M241.349 478.387H295.699M241.349 478.387L240.173 473.052M241.349 478.387H187M241.349 478.387L242.578 483.964M295.699 478.387L293.635 473.706L293.348 473.052M295.699 478.387L298.156 483.964M295.699 478.387H350.048M240.173 473.052L240.031 472.401L239.048 467.942M240.173 473.052H293.348M240.173 473.052H187M293.348 473.052L292.491 471.11L292.21 470.469L291.929 469.832L291.096 467.942M293.348 473.052H346.521M236.933 458.345H286.867M236.933 458.345L235.939 453.833M236.933 458.345H187M236.933 458.345L237.316 460.084L237.446 460.67L237.575 461.259L237.837 462.446L237.969 463.044M286.867 458.345L285.369 454.944L284.878 453.833M286.867 458.345L288.937 463.044M286.867 458.345H336.801M235.939 453.833H284.878M235.939 453.833H187M235.939 453.833L234.984 449.497M284.878 453.833L283.676 451.103L283.438 450.565L283.203 450.029L282.968 449.497M284.878 453.833H333.818M233.181 441.314H279.362M233.181 441.314L232.33 437.449M233.181 441.314H187M233.181 441.314L234.065 445.327M279.362 441.314L279.58 441.807L280.906 444.817L281.131 445.327M279.362 441.314L277.659 437.449M279.362 441.314H325.543M232.33 437.449H277.659M232.33 437.449H187M232.33 437.449L231.509 433.724M277.659 437.449L277.036 436.036L276.831 435.569L276.626 435.105L276.018 433.724M277.659 437.449H322.989M229.954 426.664H272.908M229.954 426.664L229.216 423.316M229.954 426.664H187M229.954 426.664L230.717 430.131M272.908 426.664L272.72 426.239L272.347 425.395L272.163 424.975L271.795 424.143L271.614 423.728L271.431 423.316M272.908 426.664L273.665 428.382L273.855 428.817L274.241 429.691L274.435 430.131M272.908 426.664H315.86M229.216 423.316L229.126 422.906L229.035 422.497L228.946 422.09L228.503 420.081M229.216 423.316H271.431M229.216 423.316H187M271.431 423.316H313.648M271.431 423.316L271.071 422.497L270.891 422.09L270.713 421.685L270.182 420.48L270.006 420.081M765.939 757.242H881.726M765.939 757.242L739.896 733.602M765.939 757.242H650.151M765.939 757.242L794.556 783.219M881.726 757.242L850.475 733.602M881.726 757.242L916.066 783.219M881.726 757.242H997.514M739.896 733.602H850.475M739.896 733.602H629.317M739.896 733.602L716.096 711.998M850.475 733.602L821.915 711.998M850.475 733.602H961.055M674.156 673.926H771.587M674.156 673.926L655.584 657.067M674.156 673.926H576.725M674.156 673.926L694.261 692.176M771.587 673.926L749.301 657.067M771.587 673.926L795.712 692.176M771.587 673.926H869.018M655.584 657.067H749.301M655.584 657.067H561.867M655.584 657.067L638.376 641.447M749.301 657.067L728.651 641.447M749.301 657.067H843.017M607.493 613.412H691.591M607.493 613.412L593.583 600.785M607.493 613.412H523.394M607.493 613.412L622.388 626.932M691.591 613.412L674.9 600.785M691.591 613.412L709.464 626.932M691.591 613.412H775.689M593.583 600.785H674.9M593.583 600.785H512.266M593.583 600.785L580.564 588.968M674.9 600.785L659.277 588.968M674.9 600.785H756.216M556.878 567.466H630.853M556.878 567.466L546.072 557.657M556.878 567.466H482.902M556.878 567.466L568.354 577.884M630.853 567.466L617.887 557.657M630.853 567.466L644.624 577.884M630.853 567.466H704.829M546.072 557.657H617.887M546.072 557.657H474.257M546.072 557.657L535.88 548.405M617.887 557.657L605.656 548.405M617.887 557.657H689.701M517.139 531.392H583.166M517.139 531.392L508.503 523.554M517.139 531.392H451.111M517.139 531.392L526.251 539.665M583.166 531.392L572.804 523.554M583.166 531.392L594.101 539.665M583.166 531.392H649.195M508.503 523.554H572.804M508.503 523.554H444.202M508.503 523.554L500.308 516.115M572.804 523.554L562.97 516.115M572.804 523.554H637.105M485.111 502.319H544.732M485.111 502.319L478.051 495.911M485.111 502.319H425.488M485.111 502.319L492.521 509.045M544.732 502.319L536.261 495.911M544.732 502.319L553.625 509.045M544.732 502.319H604.354M478.051 495.911H536.261M478.051 495.911H419.841M478.051 495.911L471.319 489.8M536.261 495.911L528.182 489.8M536.261 495.911H594.471M458.747 478.387L459.499 479.071L460.257 479.758L464.89 483.964M458.747 478.387H513.096M458.747 478.387L452.869 473.052M458.747 478.387H404.398M513.096 478.387L506.043 473.052M513.096 478.387L520.468 483.964M513.096 478.387H567.446M452.869 473.052H506.043M452.869 473.052H399.695M452.869 473.052L447.24 467.942M506.043 473.052L499.288 467.942M506.043 473.052H559.216M436.667 458.345H486.601M436.667 458.345L431.697 453.833M436.667 458.345H386.734M436.667 458.345L441.844 463.044M486.601 458.345L482.845 455.504L480.637 453.833M486.601 458.345L492.813 463.044M486.601 458.345H536.535M431.697 453.833H480.637M431.697 453.833H382.758M431.697 453.833L427.508 450.029L426.921 449.497M480.637 453.833L474.905 449.497M480.637 453.833H529.576M417.907 441.314H464.088M417.907 441.314L416.827 440.334L413.649 437.449M417.907 441.314H371.725M417.907 441.314L418.996 442.303L421.207 444.309L422.327 445.327M464.088 441.314L458.978 437.449M464.088 441.314L466.053 442.801L467.38 443.805L469.392 445.327M464.088 441.314H510.269M413.649 437.449H458.978M413.649 437.449H368.318M413.649 437.449L410.557 434.642L409.544 433.724M458.978 437.449L457.11 436.036L455.879 435.105L454.053 433.724M458.978 437.449H504.308M401.768 426.664H444.722M401.768 426.664L399.447 424.558L398.079 423.316M401.768 426.664H358.814M401.768 426.664L405.587 430.131M444.722 426.664L441.387 424.143L440.841 423.728L440.295 423.316M444.722 426.664L446.993 428.382L449.304 430.131M444.722 426.664H487.674M398.079 423.316H440.295M398.079 423.316L396.283 421.685L395.396 420.88L394.954 420.48L394.516 420.081M398.079 423.316H355.864M440.295 423.316H482.512M440.295 423.316L436.019 420.081M1030.45 657.067H936.734M1030.45 657.067L999.477 641.447M1030.45 657.067H1058.53M1030.45 657.067L1058.53 671.228M943.886 613.412H1027.98M943.886 613.412L918.85 600.785M943.886 613.412H859.788M943.886 613.412L970.697 626.932M1027.98 613.412L1000.17 600.785M1027.98 613.412L1057.77 626.932M1027.98 613.412H1058.53M918.85 600.785H1000.17M918.85 600.785H837.533M918.85 600.785L895.416 588.968M1000.17 600.785L974.128 588.968M1000.17 600.785H1058.53M852.78 567.466H926.755M852.78 567.466L833.33 557.657M852.78 567.466H778.804M852.78 567.466L873.437 577.884M926.755 567.466L905.145 557.657M926.755 567.466L949.707 577.884M926.755 567.466H1000.73M833.33 557.657H905.145M833.33 557.657H761.516M833.33 557.657L814.984 548.405M905.145 557.657L884.76 548.405M905.145 557.657H976.959M781.25 531.392H847.277M781.25 531.392L765.706 523.554M781.25 531.392H715.222M781.25 531.392L797.652 539.665M847.277 531.392L830.006 523.554M847.277 531.392L865.502 539.665M847.277 531.392H913.305M765.706 523.554H830.006M765.706 523.554H701.406M765.706 523.554L750.955 516.115M830.006 523.554L813.616 516.115M830.006 523.554H894.307M723.599 502.319H783.22M723.599 502.319L710.892 495.911M723.599 502.319H663.977M723.599 502.319L736.937 509.045M783.22 502.319L769.103 495.911M783.22 502.319L798.041 509.045M783.22 502.319H842.842M710.892 495.911H769.103M710.892 495.911H652.682M710.892 495.911L698.774 489.8M769.103 495.911L755.637 489.8M769.103 495.911H827.313M676.145 478.387H730.494M676.145 478.387L665.564 473.052M676.145 478.387H621.795M676.145 478.387L687.203 483.964M730.494 478.387L718.737 473.052M730.494 478.387L742.781 483.964M730.494 478.387H784.843M665.564 473.052H718.737M665.564 473.052H612.39M665.564 473.052L655.431 467.942M718.737 473.052L707.479 467.942M718.737 473.052H771.911M636.401 458.345H686.334M636.401 458.345L627.454 453.833M636.401 458.345H586.468M636.401 458.345L645.719 463.044M686.334 458.345L676.394 453.833M686.334 458.345L696.688 463.044M686.334 458.345H736.269M627.454 453.833H676.394M627.454 453.833H578.515M627.454 453.833L618.857 449.497M676.394 453.833L666.841 449.497M676.394 453.833H725.334M602.631 441.314H648.812M602.631 441.314L594.967 437.449M602.631 441.314H556.45M602.631 441.314L604.593 442.303L605.58 442.801L610.589 445.327M648.812 441.314L640.297 437.449M648.812 441.314L657.655 445.327M648.812 441.314H694.993M594.967 437.449H640.297M594.967 437.449H549.637M594.967 437.449L587.581 433.724M640.297 437.449L632.09 433.724M640.297 437.449H685.626M573.582 426.664H616.536M573.582 426.664L566.943 423.316M573.582 426.664H530.628M573.582 426.664L580.457 430.131M616.536 426.664L610.979 424.143L610.067 423.728L609.158 423.316M616.536 426.664L624.174 430.131M616.536 426.664H659.489M566.943 423.316H609.158M566.943 423.316L561.319 420.48L560.528 420.081M566.943 423.316H524.727M609.158 423.316H651.375M609.158 423.316L602.032 420.081M1045.36 531.392L1022.91 523.554M1045.36 531.392H979.333M1045.36 531.392L1058.53 535.991M1045.36 531.392H1058.53M1022.91 523.554H958.608M1022.91 523.554L1001.6 516.115M1022.91 523.554H1058.53M962.087 502.319H1021.71M962.087 502.319L943.733 495.911M962.087 502.319H902.465M962.087 502.319L981.353 509.045M1021.71 502.319L1001.94 495.911M1021.71 502.319L1042.46 509.045M1021.71 502.319H1058.53M943.733 495.911H1001.94M943.733 495.911H885.523M943.733 495.911L926.229 489.8M1001.94 495.911L983.092 489.8M1001.94 495.911H1058.53M893.542 478.387H947.892M893.542 478.387L878.259 473.052M893.542 478.387H839.193M893.542 478.387L909.516 483.964M947.892 478.387L931.432 473.052M947.892 478.387L965.093 483.964M947.892 478.387H1002.24M878.259 473.052H931.432M878.259 473.052H825.085M878.259 473.052L863.623 467.942M931.432 473.052L915.671 467.942M931.432 473.052H984.607M836.135 458.345H886.068M836.135 458.345L823.212 453.833M836.135 458.345H786.202M836.135 458.345L849.594 463.044M886.068 458.345L872.152 453.833M886.068 458.345L900.563 463.044M886.068 458.345H936.003M823.212 453.833H872.152M823.212 453.833H774.273M823.212 453.833L810.793 449.497M872.152 453.833L858.778 449.497M872.152 453.833H921.091M787.357 441.314H833.538M787.357 441.314L776.286 437.449M787.357 441.314H741.175M787.357 441.314L798.851 445.327M833.538 441.314L821.616 437.449M833.538 441.314L845.916 445.327M833.538 441.314H879.719M776.286 437.449H821.616M776.286 437.449H730.956M776.286 437.449L765.616 433.724M821.616 437.449L810.125 433.724M821.616 437.449H866.946M745.396 426.664H788.35M745.396 426.664L735.806 423.316M745.396 426.664H702.442M745.396 426.664L755.326 430.131M788.35 426.664L778.022 423.316M788.35 426.664L799.044 430.131M788.35 426.664H831.304M735.806 423.316H778.022M735.806 423.316L726.541 420.081M735.806 423.316H693.591M778.022 423.316H820.239M778.022 423.316L768.044 420.081M1035.87 458.345L1018.97 453.833M1035.87 458.345H985.936M1035.87 458.345L1053.47 463.044M1035.87 458.345H1058.53M1018.97 453.833H970.03M1018.97 453.833L1002.73 449.497M1018.97 453.833H1058.53M972.081 441.314H1018.26M972.081 441.314L957.605 437.449M972.081 441.314H925.9M972.081 441.314L987.112 445.327M1018.26 441.314L1002.93 437.449M1018.26 441.314L1034.18 445.327M1018.26 441.314H1058.53M957.605 437.449H1002.93M957.605 437.449H912.275M957.605 437.449L943.652 433.724M1002.93 437.449L988.161 433.724M1002.93 437.449H1048.26M917.21 426.664H960.164M917.21 426.664L904.67 423.316M917.21 426.664H874.256M917.21 426.664L930.196 430.131M960.164 426.664L946.886 423.316M960.164 426.664L973.913 430.131M960.164 426.664H1003.12M904.67 423.316H946.886M904.67 423.316L892.554 420.081M904.67 423.316H862.454M946.886 423.316H989.102M946.886 423.316L934.057 420.081M973.913 430.131L988.161 433.724M973.913 430.131H1017.63M973.913 430.131H930.196M1003.12 426.664L989.102 423.316M1003.12 426.664L1017.63 430.131M1003.12 426.664H1046.07M989.102 423.316H1031.32M989.102 423.316L975.56 420.081M934.057 420.081H892.554M934.057 420.081H975.56M934.057 420.081L921.654 416.954M1017.63 430.131L1032.67 433.724M1017.63 430.131H1058.53M1046.07 426.664L1031.32 423.316M1046.07 426.664L1058.53 429.492M1046.07 426.664H1058.53M1031.32 423.316L1017.06 420.081M1031.32 423.316H1058.53M975.56 420.081H1017.06M975.56 420.081L962.468 416.954M1017.06 420.081L1003.28 416.954M1017.06 420.081H1058.53M988.161 433.724H1032.67M988.161 433.724H943.652M1048.26 437.449L1032.67 433.724M1048.26 437.449L1058.53 439.901M1048.26 437.449H1058.53M1032.67 433.724H1058.53M943.652 433.724H899.143M943.652 433.724L930.196 430.131M930.196 430.131H886.479M1034.18 445.327L1050.71 449.497M1034.18 445.327H987.112M1034.18 445.327H1058.53M1058.67 441.314H1058.53M1050.71 449.497H1002.73M1050.71 449.497L1058.53 451.468M1050.71 449.497H1058.53M1002.73 449.497H954.746M1002.73 449.497L987.112 445.327M987.112 445.327H940.047M799.044 430.131L810.125 433.724M799.044 430.131H842.761M799.044 430.131H755.326M831.304 426.664L820.239 423.316M831.304 426.664L842.761 430.131M831.304 426.664H874.256M820.239 423.316H862.454M820.239 423.316L809.547 420.081M768.044 420.081H809.547M768.044 420.081L758.397 416.954M768.044 420.081H726.541M842.761 430.131L854.634 433.724M842.761 430.131H886.479M874.256 426.664L862.454 423.316M874.256 426.664L886.479 430.131M862.454 423.316L851.051 420.081M809.547 420.081H851.051M809.547 420.081L799.211 416.954M886.479 430.131L899.143 433.724M892.554 420.081H851.051M892.554 420.081L880.839 416.954M851.051 420.081L840.025 416.954M810.125 433.724H854.634M810.125 433.724H765.616M866.946 437.449L854.634 433.724M866.946 437.449L879.719 441.314M866.946 437.449H912.275M854.634 433.724H899.143M765.616 433.724H721.108M765.616 433.724L755.326 430.131M899.143 433.724L912.275 437.449M755.326 430.131H711.609M879.719 441.314L892.982 445.327M879.719 441.314H925.9M912.275 437.449L925.9 441.314M925.9 441.314L940.047 445.327M845.916 445.327L858.778 449.497M845.916 445.327H892.982M845.916 445.327H798.851M892.982 445.327L906.762 449.497M892.982 445.327H940.047M940.047 445.327L954.746 449.497M858.778 449.497H906.762M858.778 449.497H810.793M921.091 453.833L906.762 449.497M921.091 453.833L936.003 458.345M921.091 453.833H970.03M906.762 449.497H954.746M810.793 449.497H762.809M810.793 449.497L798.851 445.327M954.746 449.497L970.03 453.833M798.851 445.327H751.785M936.003 458.345L951.532 463.044M936.003 458.345H985.936M970.03 453.833L985.936 458.345M985.936 458.345L1002.5 463.044M900.563 463.044L915.671 467.942M900.563 463.044H951.532M900.563 463.044H849.594M951.532 463.044L967.719 467.942M951.532 463.044H1002.5M1002.5 463.044L1019.77 467.942M1002.5 463.044H1053.47M1053.47 463.044H1058.53M1053.47 463.044L1058.53 464.395M915.671 467.942H967.719M915.671 467.942H863.623M984.607 473.052L967.719 467.942M984.607 473.052L1002.24 478.387M984.607 473.052H1037.78M967.719 467.942H1019.77M863.623 467.942H811.575M863.623 467.942L849.594 463.044M1019.77 467.942L1037.78 473.052M1019.77 467.942H1058.53M849.594 463.044H798.626M1002.24 478.387L1020.67 483.964M1002.24 478.387H1056.59M1037.78 473.052L1056.59 478.387M1037.78 473.052H1058.53M1058.8 467.942H1058.53M1056.59 478.387L1058.53 478.938M1056.59 478.387H1058.53M965.093 483.964L983.092 489.8M965.093 483.964H1020.67M965.093 483.964H909.516M1020.67 483.964L1039.96 489.8M1020.67 483.964H1058.53M1059 479.071L1058.53 478.938M983.092 489.8H1039.96M983.092 489.8H926.229M1039.96 489.8H1058.53M1039.96 489.8L1058.53 495.42M926.229 489.8H869.365M926.229 489.8L909.516 483.964M909.516 483.964H853.938M1042.46 509.045H981.353M1042.46 509.045L1058.53 514.256M1042.46 509.045H1058.53M1058.97 502.319H1058.53M981.353 509.045H920.249M981.353 509.045L1001.6 516.115M1058.71 514.314L1058.53 514.256M624.174 430.131L632.09 433.724M624.174 430.131H667.892M624.174 430.131H580.457M659.489 426.664L651.375 423.316M659.489 426.664L667.892 430.131M659.489 426.664H702.442M651.375 423.316H693.591M651.375 423.316L643.535 420.081M602.032 420.081H643.535M602.032 420.081L599.42 418.896L595.141 416.954M602.032 420.081H560.528M667.892 430.131L676.599 433.724M667.892 430.131H711.609M702.442 426.664L693.591 423.316M702.442 426.664L711.609 430.131M693.591 423.316L685.038 420.081M643.535 420.081H685.038M643.535 420.081L635.955 416.954M711.609 430.131L721.108 433.724M726.541 420.081L717.583 416.954M726.541 420.081H685.038M685.038 420.081L683.989 419.684L681.904 418.896L676.769 416.954M632.09 433.724H676.599M632.09 433.724H587.581M685.626 437.449L676.599 433.724M685.626 437.449L694.993 441.314M685.626 437.449H730.956M676.599 433.724H721.108M587.581 433.724H543.072M587.581 433.724L580.457 430.131M721.108 433.724L730.956 437.449M580.457 430.131H536.739M694.993 441.314L704.72 445.327M694.993 441.314H741.175M730.956 437.449L732.213 437.924L741.175 441.314M741.175 441.314L751.785 445.327M657.655 445.327L658.783 445.84L666.841 449.497M657.655 445.327H704.72M657.655 445.327H610.589M704.72 445.327L714.825 449.497M704.72 445.327H751.785M751.785 445.327L762.809 449.497M666.841 449.497H714.825M666.841 449.497H618.857M725.334 453.833L714.825 449.497M725.334 453.833L736.269 458.345M725.334 453.833H774.273M714.825 449.497H762.809M618.857 449.497H570.873M618.857 449.497L610.589 445.327M762.809 449.497L774.273 453.833M610.589 445.327H563.524M736.269 458.345L747.657 463.044M736.269 458.345H786.202M774.273 453.833L786.202 458.345M786.202 458.345L798.626 463.044M696.688 463.044L707.479 467.942M696.688 463.044H747.657M696.688 463.044H645.719M747.657 463.044L759.528 467.942M747.657 463.044H798.626M798.626 463.044L811.575 467.942M707.479 467.942H759.528M707.479 467.942H655.431M771.911 473.052L759.528 467.942M771.911 473.052L784.843 478.387M771.911 473.052H825.085M759.528 467.942H811.575M655.431 467.942H603.384M655.431 467.942L645.719 463.044M811.575 467.942L825.085 473.052M645.719 463.044H594.75M784.843 478.387L798.36 483.964M784.843 478.387H839.193M825.085 473.052L839.193 478.387M839.193 478.387L853.938 483.964M742.781 483.964L755.637 489.8M742.781 483.964H798.36M742.781 483.964H687.203M798.36 483.964L812.501 489.8M798.36 483.964H853.938M853.938 483.964L869.365 489.8M755.637 489.8H812.501M755.637 489.8H698.774M827.313 495.911L812.501 489.8M827.313 495.911L842.842 502.319M827.313 495.911H885.523M812.501 489.8H869.365M698.774 489.8H641.91M698.774 489.8L687.203 483.964M869.365 489.8L885.523 495.911M687.203 483.964H631.625M842.842 502.319L859.144 509.045M842.842 502.319H902.465M885.523 495.911L902.465 502.319M902.465 502.319L920.249 509.045M798.041 509.045L813.616 516.115M798.041 509.045H859.144M798.041 509.045H736.937M859.144 509.045L876.278 516.115M859.144 509.045H920.249M920.249 509.045L938.939 516.115M813.616 516.115H876.278M813.616 516.115H750.955M894.307 523.554L876.278 516.115M894.307 523.554L913.305 531.392M894.307 523.554H958.608M876.278 516.115H938.939M750.955 516.115H688.293M750.955 516.115L736.937 509.045M938.939 516.115L958.608 523.554M938.939 516.115H1001.6M736.937 509.045H675.832M913.305 531.392L933.352 539.665M913.305 531.392H979.333M958.608 523.554L979.333 531.392M1001.6 516.115H1058.53M979.333 531.392L1001.2 539.665M865.502 539.665L884.76 548.405M865.502 539.665H933.352M865.502 539.665H797.652M933.352 539.665L954.536 548.405M933.352 539.665H1001.2M1001.2 539.665L1024.31 548.405M1001.2 539.665H1058.53M884.76 548.405H954.536M884.76 548.405H814.984M976.959 557.657L954.536 548.405M976.959 557.657L1000.73 567.466M976.959 557.657H1048.77M954.536 548.405H1024.31M814.984 548.405H745.208M814.984 548.405L797.652 539.665M1024.31 548.405L1048.77 557.657M1024.31 548.405H1058.53M797.652 539.665H729.801M1000.73 567.466L1025.98 577.884M1000.73 567.466H1058.53M1048.77 557.657H1058.53M1048.77 557.657L1058.53 561.348M949.707 577.884L974.128 588.968M949.707 577.884H1025.98M949.707 577.884H873.437M1025.98 577.884L1052.84 588.968M1025.98 577.884H1058.53M974.128 588.968H1052.84M974.128 588.968H895.416M1052.84 588.968L1058.53 591.315M1052.84 588.968H1058.53M895.416 588.968H816.703M895.416 588.968L873.437 577.884M873.437 577.884H797.166M1057.77 626.932H970.697M1057.77 626.932H1058.53M1057.77 626.932L1058.53 627.276M970.697 626.932H883.62M970.697 626.932L999.477 641.447M449.304 430.131L451.066 431.463L451.657 431.912L454.053 433.724M449.304 430.131H493.022M449.304 430.131H405.587M487.674 426.664L483.785 424.143L482.512 423.316M487.674 426.664L492.343 429.691L493.022 430.131M487.674 426.664H530.628M482.512 423.316H524.727M482.512 423.316L477.522 420.081M436.019 420.081H477.522M436.019 420.081L434.452 418.896L431.885 416.954M436.019 420.081H394.516M493.022 430.131L494.389 431.017L498.563 433.724M493.022 430.131H536.739M530.628 426.664L524.727 423.316M530.628 426.664L536.739 430.131M524.727 423.316L520.432 420.88L519.025 420.081M477.522 420.081H519.025M477.522 420.081L472.699 416.954M536.739 430.131L543.072 433.724M560.528 420.081L559.742 419.684L554.327 416.954M560.528 420.081H519.025M519.025 420.081L516.936 418.896L513.513 416.954M454.053 433.724H498.563M454.053 433.724H409.544M504.308 437.449L498.563 433.724M504.308 437.449L510.269 441.314M504.308 437.449H549.637M498.563 433.724H543.072M409.544 433.724H365.036M409.544 433.724L405.587 430.131M543.072 433.724L549.637 437.449M405.587 430.131H361.87M510.269 441.314L514.109 443.805L514.889 444.309L516.458 445.327M510.269 441.314H556.45M549.637 437.449L556.45 441.314M556.45 441.314L563.524 445.327M469.392 445.327L474.905 449.497M469.392 445.327H516.458M469.392 445.327H422.327M516.458 445.327L522.889 449.497M516.458 445.327H563.524M563.524 445.327L570.873 449.497M474.905 449.497H522.889M474.905 449.497H426.921M529.576 453.833L525.365 451.103L524.537 450.565L522.889 449.497M529.576 453.833L536.535 458.345M529.576 453.833H578.515M522.889 449.497H570.873M426.921 449.497H378.936M426.921 449.497L422.327 445.327M570.873 449.497L578.515 453.833M422.327 445.327H375.261M536.535 458.345L543.782 463.044M536.535 458.345H586.468M578.515 453.833L586.468 458.345M586.468 458.345L594.75 463.044M492.813 463.044L496.017 465.467L496.827 466.081L499.288 467.942M492.813 463.044H543.782M492.813 463.044H441.844M543.782 463.044L551.335 467.942M543.782 463.044H594.75M594.75 463.044L603.384 467.942M499.288 467.942H551.335M499.288 467.942H447.24M559.216 473.052L551.335 467.942M559.216 473.052L567.446 478.387M559.216 473.052H612.39M551.335 467.942H603.384M447.24 467.942H395.191M447.24 467.942L445.869 466.698L441.844 463.044M603.384 467.942L612.39 473.052M441.844 463.044H390.876M567.446 478.387L576.047 483.964M567.446 478.387H621.795M612.39 473.052L621.795 478.387M621.795 478.387L631.625 483.964M520.468 483.964L528.182 489.8M520.468 483.964H576.047M520.468 483.964H464.89M576.047 483.964L585.046 489.8M576.047 483.964H631.625M631.625 483.964L641.91 489.8M528.182 489.8H585.046M528.182 489.8H471.319M594.471 495.911L585.046 489.8M594.471 495.911L604.354 502.319M594.471 495.911H652.682M585.046 489.8H641.91M471.319 489.8H414.455M471.319 489.8L464.89 483.964M641.91 489.8L652.682 495.911M464.89 483.964H409.313M604.354 502.319L614.728 509.045M604.354 502.319H663.977M652.682 495.911L663.977 502.319M663.977 502.319L675.832 509.045M553.625 509.045L562.97 516.115M553.625 509.045H614.728M553.625 509.045H492.521M614.728 509.045L625.631 516.115M614.728 509.045H675.832M675.832 509.045L688.293 516.115M562.97 516.115H625.631M562.97 516.115H500.308M637.105 523.554L625.631 516.115M637.105 523.554L649.195 531.392M637.105 523.554H701.406M625.631 516.115H688.293M500.308 516.115H437.647M500.308 516.115L492.521 509.045M688.293 516.115L701.406 523.554M492.521 509.045H431.416M649.195 531.392L661.951 539.665M649.195 531.392H715.222M701.406 523.554L715.222 531.392M715.222 531.392L729.801 539.665M594.101 539.665L605.656 548.405M594.101 539.665H661.951M594.101 539.665H526.251M661.951 539.665L675.432 548.405M661.951 539.665H729.801M729.801 539.665L745.208 548.405M605.656 548.405H675.432M605.656 548.405H535.88M689.701 557.657L675.432 548.405M689.701 557.657L704.829 567.466M689.701 557.657H761.516M675.432 548.405H745.208M535.88 548.405H466.104M535.88 548.405L526.251 539.665M745.208 548.405L761.516 557.657M526.251 539.665H458.401M704.829 567.466L720.895 577.884M704.829 567.466H778.804M761.516 557.657L778.804 567.466M778.804 567.466L797.166 577.884M644.624 577.884L659.277 588.968M644.624 577.884H720.895M644.624 577.884H568.354M720.895 577.884L737.99 588.968M720.895 577.884H797.166M797.166 577.884L816.703 588.968M659.277 588.968H737.99M659.277 588.968H580.564M756.216 600.785L737.99 588.968M756.216 600.785L775.689 613.412M756.216 600.785H837.533M737.99 588.968H816.703M580.564 588.968H501.851M580.564 588.968L568.354 577.884M816.703 588.968L837.533 600.785M568.354 577.884H492.083M775.689 613.412L796.542 626.932M775.689 613.412H859.788M837.533 600.785L859.788 613.412M859.788 613.412L883.62 626.932M709.464 626.932L728.651 641.447M709.464 626.932H796.542M709.464 626.932H622.388M796.542 626.932L818.926 641.447M796.542 626.932H883.62M883.62 626.932L909.202 641.447M728.651 641.447H818.926M728.651 641.447H638.376M843.017 657.067L818.926 641.447M843.017 657.067L869.018 673.926M843.017 657.067H936.734M818.926 641.447H909.202M638.376 641.447H548.101M638.376 641.447L622.388 626.932M909.202 641.447L936.734 657.067M909.202 641.447H999.477M622.388 626.932H535.31M869.018 673.926L897.165 692.176M869.018 673.926H966.449M936.734 657.067L966.449 673.926M999.477 641.447H1058.53M966.449 673.926L998.617 692.176M966.449 673.926H1058.53M795.712 692.176L821.915 711.998M795.712 692.176H897.165M795.712 692.176H694.261M897.165 692.176L927.735 711.998M897.165 692.176H998.617M998.617 692.176L1033.55 711.998M998.617 692.176H1058.53M821.915 711.998H927.735M821.915 711.998H716.096M961.055 733.602L927.735 711.998M961.055 733.602L997.514 757.242M961.055 733.602H1058.53M927.735 711.998H1033.55M716.096 711.998H610.277M716.096 711.998L694.261 692.176M1033.55 711.998H1058.53M1033.55 711.998L1058.53 726.168M694.261 692.176H592.808M997.514 757.242L1037.58 783.219M997.514 757.242H1058.53M916.066 783.219L953.978 811.898M916.066 783.219H1037.58M916.066 783.219H794.556M1037.58 783.219L1058.53 796.805M1037.58 783.219H1058.53M953.978 811.898H826.148M953.978 811.898L1058.53 811.898M826.148 811.898H698.319M826.148 811.898L794.556 783.219M794.556 783.219H673.044M274.435 430.131L274.63 430.573L274.825 431.017L275.022 431.463L275.219 431.912L275.817 433.268L276.018 433.724M274.435 430.131H318.153M274.435 430.131H230.717M315.86 426.664L314.193 424.143L313.648 423.316M315.86 426.664L317.284 428.817L318.153 430.131M315.86 426.664H358.814M313.648 423.316H355.864M313.648 423.316L312.037 420.88L311.509 420.081M270.006 420.081L269.832 419.684L269.14 418.114L268.628 416.954M270.006 420.081H311.509M270.006 420.081H228.503M318.153 430.131L318.444 430.573L318.738 431.017L319.032 431.463L319.329 431.912L320.527 433.724M318.153 430.131H361.87M358.814 426.664L356.592 424.143L355.864 423.316M358.814 426.664L361.87 430.131M355.864 423.316L354.426 421.685L353.363 420.48L353.013 420.081M311.509 420.081L311.248 419.684L310.726 418.896L310.209 418.114L309.953 417.726L309.442 416.954M311.509 420.081H353.013M361.87 430.131L364.234 432.814L365.036 433.724M394.516 420.081L391.921 417.726L391.071 416.954M394.516 420.081H353.013M353.013 420.081L350.596 417.339L350.256 416.954M276.018 433.724H320.527M276.018 433.724H231.509M322.989 437.449L320.527 433.724M322.989 437.449L325.543 441.314M322.989 437.449H368.318M320.527 433.724H365.036M231.509 433.724H187M231.509 433.724L230.717 430.131M365.036 433.724L368.318 437.449M230.717 430.131H187M325.543 441.314L326.198 442.303L327.19 443.805L328.196 445.327M325.543 441.314H371.725M368.318 437.449L368.738 437.924L371.725 441.314M371.725 441.314L372.159 441.807L372.597 442.303L373.035 442.801L375.261 445.327M281.131 445.327L282.968 449.497M281.131 445.327H328.196M281.131 445.327H234.065M328.196 445.327L330.952 449.497M328.196 445.327H375.261M375.261 445.327L378.004 448.439L378.47 448.967L378.936 449.497M282.968 449.497H330.952M282.968 449.497H234.984M333.818 453.833L334.184 454.387L334.553 454.944L334.922 455.504L336.801 458.345M333.818 453.833L332.371 451.643L332.014 451.103L331.659 450.565L330.952 449.497M333.818 453.833H382.758M330.952 449.497H378.936M234.984 449.497H187M234.984 449.497L234.065 445.327M378.936 449.497L382.758 453.833M234.065 445.327H187M336.801 458.345L339.512 462.446L339.906 463.044M336.801 458.345H386.734M382.758 453.833L383.737 454.944L386.734 458.345M386.734 458.345L388.267 460.084L390.876 463.044M288.937 463.044L290.006 465.467L290.276 466.081L291.096 467.942M288.937 463.044H339.906M288.937 463.044H237.969M339.906 463.044L343.144 467.942M339.906 463.044H390.876M390.876 463.044L395.191 467.942M291.096 467.942H343.144M291.096 467.942H239.048M346.521 473.052L343.144 467.942M346.521 473.052L350.048 478.387M346.521 473.052H399.695M343.144 467.942H395.191M239.048 467.942H187M239.048 467.942L238.774 466.698L238.234 464.249L237.969 463.044M395.191 467.942L399.695 473.052M237.969 463.044H187M350.048 478.387L352.797 482.547L353.735 483.964M350.048 478.387H404.398M399.695 473.052L404.398 478.387M404.398 478.387L406.827 481.145L409.313 483.964M298.156 483.964L300.727 489.8M298.156 483.964H353.735M298.156 483.964H242.578M353.735 483.964L357.591 489.8M353.735 483.964H409.313M409.313 483.964L414.455 489.8M300.727 489.8H357.591M300.727 489.8H243.864M361.631 495.911L360.603 494.356L357.591 489.8M361.631 495.911L365.866 502.319M361.631 495.911H419.841M357.591 489.8H414.455M243.864 489.8H187M243.864 489.8L242.578 483.964M414.455 489.8L419.841 495.911M242.578 483.964H187M365.866 502.319L370.312 509.045M365.866 502.319H425.488M419.841 495.911L425.488 502.319M425.488 502.319L431.416 509.045M309.209 509.045L312.323 516.115M309.209 509.045H370.312M309.209 509.045H248.104M370.312 509.045L374.985 516.115M370.312 509.045H431.416M431.416 509.045L437.647 516.115M312.323 516.115H374.985M312.323 516.115H249.661M379.902 523.554L374.985 516.115M379.902 523.554L385.083 531.392M379.902 523.554H444.202M374.985 516.115H437.647M249.661 516.115H187M249.661 516.115L248.294 509.91L248.104 509.045M437.647 516.115L444.202 523.554M248.104 509.045H187M385.083 531.392L390.551 539.665M385.083 531.392H451.111M444.202 523.554L449.349 529.394L451.111 531.392M451.111 531.392L458.401 539.665M322.7 539.665L326.552 548.405M322.7 539.665H390.551M322.7 539.665H254.85M390.551 539.665L396.328 548.405M390.551 539.665H458.401M458.401 539.665L466.104 548.405M326.552 548.405H396.328M326.552 548.405H256.776M402.443 557.657L396.328 548.405M402.443 557.657L408.926 567.466M402.443 557.657H474.257M396.328 548.405H466.104M256.776 548.405H187M256.776 548.405L254.85 539.665M466.104 548.405L474.257 557.657M254.85 539.665H187M408.926 567.466L415.812 577.884M408.926 567.466H482.902M474.257 557.657L482.902 567.466M482.902 567.466L492.083 577.884M339.541 577.884L344.426 588.968M339.541 577.884H415.812M339.541 577.884H263.271M415.812 577.884L423.138 588.968M415.812 577.884H492.083M492.083 577.884L501.851 588.968M344.426 588.968H423.138M344.426 588.968H265.713M430.95 600.785L423.138 588.968M430.95 600.785L439.295 613.412M430.95 600.785H512.266M423.138 588.968H501.851M265.713 588.968H187M265.713 588.968L263.271 577.884M501.851 588.968L512.266 600.785M263.271 577.884H187M439.295 613.412L448.232 626.932M439.295 613.412H523.394M512.266 600.785L523.394 613.412M523.394 613.412L535.31 626.932M361.155 626.932L367.55 641.447M361.155 626.932H448.232M361.155 626.932H274.078M448.232 626.932L457.825 641.447M448.232 626.932H535.31M535.31 626.932L548.101 641.447M367.55 641.447H457.825M367.55 641.447H277.275M468.15 657.067L457.825 641.447M468.15 657.067L479.293 673.926M468.15 657.067H561.867M457.825 641.447H548.101M277.275 641.447H187M277.275 641.447L274.078 626.932M548.101 641.447L561.867 657.067M274.078 626.932H187M479.293 673.926L491.357 692.176M479.293 673.926H576.725M561.867 657.067L576.725 673.926M576.725 673.926L592.808 692.176M389.904 692.176L398.638 711.998M389.904 692.176H491.357M389.904 692.176H288.452M491.357 692.176L504.458 711.998M491.357 692.176H592.808M592.808 692.176L610.277 711.998M398.638 711.998H504.458M398.638 711.998H292.819M518.738 733.602L504.458 711.998M518.738 733.602L534.363 757.242M518.738 733.602H629.317M504.458 711.998H610.277M292.819 711.998H187M292.819 711.998L288.452 692.176M610.277 711.998L629.317 733.602M288.452 692.176H187M534.363 757.242L551.533 783.219M534.363 757.242H650.151M629.317 733.602L650.151 757.242M650.151 757.242L673.044 783.219M430.022 783.219L442.659 811.898M430.022 783.219H551.533M430.022 783.219H308.511M551.533 783.219L570.489 811.898M551.533 783.219H673.044M673.044 783.219L698.319 811.898M570.489 811.898H442.659M570.489 811.898H698.319M442.659 811.898H314.83M314.83 811.898H187M314.83 811.898L308.511 783.219M308.511 783.219H187M99.5655 430.131L99.3703 430.573L99.1752 431.017L98.9782 431.463L98.7811 431.912L98.3835 432.814L98.1829 433.268L97.9822 433.724M99.5655 430.131H143.283M99.5655 430.131H55.8474M144.046 426.664L144.784 423.316M144.046 426.664L143.283 430.131M144.046 426.664H187M144.784 423.316L144.874 422.906L144.965 422.497L145.054 422.09L145.497 420.081M144.784 423.316H187M103.994 420.081L104.168 419.684L104.86 418.114L105.372 416.954M103.994 420.081H145.497M103.994 420.081H62.491M143.283 430.131L143.185 430.573L143.088 431.017L142.989 431.463L142.491 433.724M143.283 430.131H187M187 426.664V423.316M187 426.664V430.131M187 423.316V420.081M145.497 420.081H187M145.497 420.081L145.758 418.896L145.845 418.504L146.186 416.954M187 430.131V433.724M228.503 420.081L228.243 418.896L228.155 418.504L228.07 418.114L227.984 417.726L227.899 417.339L227.814 416.954M228.503 420.081H187M187 420.081V416.954M97.9822 433.724H142.491M97.9822 433.724H53.4734M141.67 437.449L141.565 437.924L141.461 438.402L140.819 441.314M141.67 437.449L142.491 433.724M141.67 437.449H187M142.491 433.724H187M53.4734 433.724H8.9645M53.4734 433.724L54.0744 432.814L54.374 432.362L54.6708 431.912L54.9677 431.463L55.2618 431.017L55.556 430.573L55.8474 430.131M187 433.724V437.449M55.8474 430.131H12.1302M140.819 441.314L139.935 445.327M140.819 441.314H187M187 437.449V441.314M187 441.314V445.327M92.8693 445.327L91.0318 449.497M92.8693 445.327H139.935M92.8693 445.327H45.8039M139.935 445.327L139.016 449.497M139.935 445.327H187M187 445.327V449.497M91.0318 449.497H139.016M91.0318 449.497H43.0477M138.061 453.833L139.016 449.497M138.061 453.833L137.067 458.345M138.061 453.833H187M139.016 449.497H187M43.0477 449.497H-4.93642M43.0477 449.497L45.8039 445.327M187 449.497V453.833M45.8039 445.327H-1.26149M137.067 458.345L136.684 460.084L136.294 461.85L136.031 463.044M137.067 458.345H187M187 453.833V458.345M187 458.345V463.044M85.0627 463.044L83.9942 465.467L83.7246 466.081L82.9038 467.942M85.0627 463.044H136.031M85.0627 463.044H34.0936M136.031 463.044L135.766 464.249L135.227 466.698L134.952 467.942M136.031 463.044H187M187 463.044V467.942M82.9038 467.942H134.952M82.9038 467.942H30.8562M133.827 473.052L133.969 472.401L134.952 467.942M133.827 473.052L132.651 478.387M133.827 473.052H187M134.952 467.942H187M30.8562 467.942H-21.1914M30.8562 467.942L34.0936 463.044M187 467.942V473.052M34.0936 463.044H-16.8755M132.651 478.387L131.422 483.964M132.651 478.387H187M187 473.052V478.387M187 478.387V483.964M75.8436 483.964L73.2726 489.8M75.8436 483.964H131.422M75.8436 483.964H20.2653M131.422 483.964L130.136 489.8M131.422 483.964H187M187 483.964V489.8M73.2726 489.8H130.136M73.2726 489.8H16.4088M128.79 495.911L130.136 489.8M128.79 495.911L127.378 502.319M128.79 495.911H187M130.136 489.8H187M16.4088 489.8H-40.455M16.4088 489.8L20.2653 483.964M187 489.8V495.911M20.2653 483.964H-35.3129M127.378 502.319L125.896 509.045M127.378 502.319H187M187 495.911V502.319M187 502.319V509.045M64.7914 509.045L61.6767 516.115M64.7914 509.045H125.896M64.7914 509.045H3.6881M125.896 509.045L124.339 516.115M125.896 509.045H187M187 509.045V516.115M61.6767 516.115H124.339M61.6767 516.115H-0.984607M122.699 523.554L124.339 516.115M122.699 523.554L120.973 531.392M122.699 523.554H187M124.339 516.115H187M-0.984607 516.115H-63.6468M-0.984607 516.115L3.6881 509.045M187 516.115V523.554M3.6881 509.045H-57.4162M120.973 531.392L119.15 539.665M120.973 531.392H187M187 523.554V531.392M187 531.392V539.665M51.3 539.665L47.448 548.405M51.3 539.665H119.15M51.3 539.665H-16.5505M119.15 539.665L117.224 548.405M119.15 539.665H187M187 539.665V548.405M47.448 548.405H117.224M47.448 548.405H-22.328M115.186 557.657L117.224 548.405M115.186 557.657L113.024 567.466M115.186 557.657H187M117.224 548.405H187M-22.328 548.405H-92.104M-22.328 548.405L-16.5505 539.665M187 548.405V557.657M-16.5505 539.665H-84.401M113.024 567.466L110.729 577.884M113.024 567.466H187M187 557.657V567.466M187 567.466V577.884M34.4586 577.884L29.5744 588.968M34.4586 577.884H110.729M34.4586 577.884H-41.8122M110.729 577.884L108.287 588.968M110.729 577.884H187M187 577.884V588.968M29.5744 588.968H108.287M29.5744 588.968H-49.1385M105.684 600.785L108.287 588.968M105.684 600.785L102.902 613.412M105.684 600.785H187M108.287 588.968H187M-49.1385 588.968H-127.851M-49.1385 588.968L-41.8122 577.884M187 588.968V600.785M-41.8122 577.884H-118.083M102.902 613.412L99.9223 626.932M102.902 613.412H187M187 600.785V613.412M187 613.412V626.932M12.8455 626.932L6.44975 641.447M12.8455 626.932H99.9223M12.8455 626.932H-74.2322M99.9223 626.932L96.7249 641.447M99.9223 626.932H187M187 626.932V641.447M6.44975 641.447H96.7249M6.44975 641.447H-83.8254M93.2833 657.067L96.7249 641.447M93.2833 657.067L89.5693 673.926M93.2833 657.067H187M96.7249 641.447H187M-83.8254 641.447H-174.101M-83.8254 641.447L-74.2322 626.932M187 641.447V657.067M-74.2322 626.932H-161.31M89.5693 673.926L85.5475 692.176M89.5693 673.926H187M187 657.067V673.926M187 673.926V692.176M-15.9041 692.176L-24.6385 711.998M-15.9041 692.176H85.5475M-15.9041 692.176H-117.357M85.5475 692.176L81.1808 711.998M85.5475 692.176H187M187 692.176V711.998M-24.6385 711.998H81.1808M-24.6385 711.998H-130.458M76.4209 733.602L81.1808 711.998M76.4209 733.602L71.2126 757.242M76.4209 733.602H187M81.1808 711.998H187M-130.458 711.998H-236.277M-130.458 711.998L-117.357 692.176M187 711.998V733.602M-117.357 692.176H-218.808M71.2126 757.242L65.4887 783.219M71.2126 757.242H187M187 733.602V757.242M187 757.242V783.219M-56.0217 783.219L-68.659 811.898M-56.0217 783.219H65.4887M-56.0217 783.219H-177.533M65.4887 783.219L59.1701 811.898M65.4887 783.219H187M187 783.219V811.898M59.1701 811.898H-68.659M59.1701 811.898H187M-68.659 811.898H-196.489M-196.489 811.898H-324.319M-196.489 811.898L-177.533 783.219M-177.533 783.219H-299.044M-75.3044 430.131L-77.6575 431.912L-80.0533 433.724M-75.3044 430.131H-31.5871M-75.3044 430.131H-119.022M-27.7678 426.664L-24.0792 423.316M-27.7678 426.664L-31.5871 430.131M-27.7678 426.664H15.1859M-24.0792 423.316H18.1364M-24.0792 423.316L-21.3956 420.88L-20.516 420.081M-62.019 420.081H-20.516M-62.019 420.081L-60.452 418.896L-57.8846 416.954M-62.019 420.081H-103.522M-31.5871 430.131L-35.5444 433.724M-31.5871 430.131H12.1302M15.1859 426.664L18.1364 423.316M15.1859 426.664L12.1302 430.131M18.1364 423.316L19.5744 421.685L20.6367 420.48L20.9871 420.081M-20.516 420.081H20.9871M-20.516 420.081L-17.9214 417.726L-17.0707 416.954M12.1302 430.131L9.76612 432.814L8.9645 433.724M62.491 420.081L62.7525 419.684L63.2735 418.896L64.047 417.726L64.5582 416.954M62.491 420.081H20.9871M20.9871 420.081L21.3366 419.684L22.032 418.896L23.7433 416.954M-80.0533 433.724H-35.5444M-80.0533 433.724H-124.563M-39.6488 437.449L-39.1268 436.976L-38.6084 436.505L-36.5567 434.642L-35.5444 433.724M-39.6488 437.449L-42.8271 440.334L-43.9066 441.314M-39.6488 437.449H5.68171M-35.5444 433.724H8.9645M-124.563 433.724H-169.072M-124.563 433.724L-120.389 431.017L-119.022 430.131M8.9645 433.724L5.68171 437.449M-119.022 430.131H-162.74M-43.9066 441.314L-44.4494 441.807L-44.996 442.303L-46.6492 443.805L-47.2066 444.309L-48.3269 445.327M-43.9066 441.314H2.27458M5.68171 437.449L5.26231 437.924L2.27458 441.314M2.27458 441.314L1.8406 441.807L1.40303 442.303L0.964565 442.801L-1.26149 445.327M-95.3922 445.327L-100.905 449.497M-95.3922 445.327H-48.3269M-95.3922 445.327H-142.458M-48.3269 445.327L-52.9206 449.497M-48.3269 445.327H-1.26149M-1.26149 445.327L-4.93642 449.497M-100.905 449.497H-52.9206M-100.905 449.497H-148.889M-57.6967 453.833L-52.9206 449.497M-57.6967 453.833L-62.6672 458.345M-57.6967 453.833H-8.75758M-52.9206 449.497H-4.93642M-148.889 449.497H-196.873M-148.889 449.497L-142.458 445.327M-4.93642 449.497L-8.75758 453.833M-142.458 445.327H-189.524M-62.6672 458.345L-67.8437 463.044M-62.6672 458.345H-12.7339M-8.75758 453.833L-9.73713 454.944L-12.7339 458.345M-12.7339 458.345L-14.2673 460.084L-15.8242 461.85L-16.8755 463.044M-118.813 463.044L-122.017 465.467L-125.288 467.942M-118.813 463.044H-67.8437M-118.813 463.044H-169.782M-67.8437 463.044L-73.2399 467.942M-67.8437 463.044H-16.8755M-16.8755 463.044L-21.1914 467.942M-125.288 467.942H-73.2399M-125.288 467.942H-177.335M-78.8686 473.052L-73.2399 467.942M-78.8686 473.052L-84.7468 478.387M-78.8686 473.052H-25.6952M-73.2399 467.942H-21.1914M-177.335 467.942H-229.384M-177.335 467.942L-169.782 463.044M-21.1914 467.942L-25.6952 473.052M-169.782 463.044H-220.75M-84.7468 478.387L-86.2575 479.758L-90.8902 483.964M-84.7468 478.387H-30.3978M-25.6952 473.052L-30.3978 478.387M-30.3978 478.387L-30.9998 479.071L-32.8273 481.145L-35.3129 483.964M-146.468 483.964L-154.182 489.8M-146.468 483.964H-90.8902M-146.468 483.964H-202.047M-90.8902 483.964L-97.3187 489.8M-90.8902 483.964H-35.3129M-35.3129 483.964L-40.455 489.8M-154.182 489.8H-97.3187M-154.182 489.8H-211.046M-104.051 495.911L-99.8062 492.058L-97.3187 489.8M-104.051 495.911L-111.111 502.319M-104.051 495.911H-45.8412M-97.3187 489.8H-40.455M-211.046 489.8H-267.91M-211.046 489.8L-202.047 483.964M-40.455 489.8L-45.8412 495.911M-202.047 483.964H-257.625M-111.111 502.319L-118.52 509.045M-111.111 502.319H-51.488M-45.8412 495.911L-51.488 502.319M-51.488 502.319L-57.4162 509.045M-179.625 509.045L-188.97 516.115M-179.625 509.045H-118.52M-179.625 509.045H-240.728M-118.52 509.045L-126.308 516.115M-118.52 509.045H-57.4162M-57.4162 509.045L-63.6468 516.115M-188.97 516.115H-126.308M-188.97 516.115H-251.631M-134.503 523.554L-126.308 516.115M-134.503 523.554L-143.139 531.392M-134.503 523.554H-70.2023M-126.308 516.115H-63.6468M-251.631 516.115H-314.293M-251.631 516.115L-240.728 509.045M-63.6468 516.115L-70.2023 523.554M-240.728 509.045H-301.832M-143.139 531.392L-152.251 539.665M-143.139 531.392H-77.111M-70.2023 523.554L-77.111 531.392M-77.111 531.392L-84.401 539.665M-220.101 539.665L-231.656 548.405M-220.101 539.665H-152.251M-220.101 539.665H-287.952M-152.251 539.665L-161.88 548.405M-152.251 539.665H-84.401M-84.401 539.665L-92.104 548.405M-231.656 548.405H-161.88M-231.656 548.405H-301.432M-172.072 557.657L-161.88 548.405M-172.072 557.657L-182.878 567.466M-172.072 557.657H-100.257M-161.88 548.405H-92.104M-301.432 548.405H-371.208M-301.432 548.405L-287.952 539.665M-92.104 548.405L-100.257 557.657M-287.952 539.665H-355.801M-182.878 567.466L-194.354 577.884M-182.878 567.466H-108.902M-100.257 557.657L-108.902 567.466M-108.902 567.466L-118.083 577.884M-270.624 577.884L-285.277 588.968M-270.624 577.884H-194.354M-270.624 577.884H-346.895M-194.354 577.884L-206.564 588.968M-194.354 577.884H-118.083M-118.083 577.884L-127.851 588.968M-285.277 588.968H-206.564M-285.277 588.968H-363.99M-219.583 600.785L-206.564 588.968M-219.583 600.785L-233.493 613.412M-219.583 600.785H-138.266M-206.564 588.968H-127.851M-363.99 588.968H-442.703M-363.99 588.968L-346.895 577.884M-127.851 588.968L-138.266 600.785M-346.895 577.884H-423.166M-233.493 613.412L-248.387 626.932M-233.493 613.412H-149.394M-138.266 600.785L-149.394 613.412M-149.394 613.412L-161.31 626.932M-335.464 626.932L-354.651 641.447M-335.464 626.932H-248.387M-335.464 626.932H-422.542M-248.387 626.932L-264.376 641.447M-248.387 626.932H-161.31M-161.31 626.932L-174.101 641.447M-354.651 641.447H-264.376M-354.651 641.447H-444.926M-281.584 657.067L-264.376 641.447M-281.584 657.067L-300.156 673.926M-281.584 657.067H-187.867M-264.376 641.447H-174.101M-444.926 641.447H-535.201M-444.926 641.447L-422.542 626.932M-174.101 641.447L-187.867 657.067M-422.542 626.932H-509.62M-300.156 673.926L-320.261 692.176M-300.156 673.926H-202.725M-187.867 657.067L-202.725 673.926M-202.725 673.926L-218.808 692.176M-421.712 692.176L-447.916 711.998M-421.712 692.176H-320.261M-421.712 692.176H-523.165M-320.261 692.176L-342.096 711.998M-320.261 692.176H-218.808M-218.808 692.176L-236.277 711.998M-447.916 711.998H-342.096M-447.916 711.998H-553.735M-365.896 733.602L-342.096 711.998M-365.896 733.602L-391.939 757.242M-365.896 733.602H-255.317M-342.096 711.998H-236.277M-553.735 711.998H-659.554M-553.735 711.998L-523.165 692.176M-236.277 711.998L-255.317 733.602M-523.165 692.176H-624.617M-391.939 757.242L-420.555 783.219M-391.939 757.242H-276.15M-255.317 733.602L-276.15 757.242M-276.15 757.242L-299.044 783.219M-542.066 783.219L-579.978 811.898M-542.066 783.219H-420.555M-542.066 783.219H-663.578M-420.555 783.219L-452.148 811.898M-420.555 783.219H-299.044M-299.044 783.219L-324.319 811.898M-452.148 811.898H-579.978M-452.148 811.898H-324.319M-579.978 811.898L-684.531 811.898M-663.578 783.219L-684.531 796.805M-663.578 783.219H-684.531M-250.174 430.131L-258.09 433.724M-250.174 430.131H-206.457M-250.174 430.131H-293.892M-199.582 426.664L-192.943 423.316M-199.582 426.664L-206.457 430.131M-199.582 426.664H-156.628M-192.943 423.316H-150.727M-192.943 423.316L-186.528 420.081M-228.032 420.081H-186.528M-228.032 420.081L-225.42 418.896L-221.141 416.954M-228.032 420.081H-269.535M-206.457 430.131L-213.581 433.724M-206.457 430.131H-162.74M-156.628 426.664L-150.727 423.316M-156.628 426.664L-162.74 430.131M-150.727 423.316L-146.432 420.88L-145.025 420.081M-186.528 420.081L-185.742 419.684L-180.327 416.954M-186.528 420.081H-145.025M-162.74 430.131L-169.072 433.724M-103.522 420.081L-98.6986 416.954M-103.522 420.081H-145.025M-145.025 420.081L-142.936 418.896L-139.513 416.954M-258.09 433.724H-213.581M-258.09 433.724H-302.599M-220.967 437.449L-213.581 433.724M-220.967 437.449L-228.631 441.314M-220.967 437.449H-175.638M-213.581 433.724H-169.072M-302.599 433.724H-347.108M-302.599 433.724L-293.892 430.131M-169.072 433.724L-175.638 437.449M-293.892 430.131H-337.609M-228.631 441.314L-230.593 442.303L-236.589 445.327M-228.631 441.314H-182.45M-175.638 437.449L-182.45 441.314M-182.45 441.314L-189.524 445.327M-283.655 445.327L-284.783 445.84L-292.841 449.497M-283.655 445.327H-236.589M-283.655 445.327H-330.72M-236.589 445.327L-244.857 449.497M-236.589 445.327H-189.524M-189.524 445.327L-190.426 445.84L-196.873 449.497M-292.841 449.497H-244.857M-292.841 449.497H-340.825M-253.454 453.833L-244.857 449.497M-253.454 453.833L-262.401 458.345M-253.454 453.833H-204.515M-244.857 449.497H-196.873M-340.825 449.497H-388.809M-340.825 449.497L-330.72 445.327M-196.873 449.497L-204.515 453.833M-330.72 445.327H-377.785M-262.401 458.345L-271.719 463.044M-262.401 458.345H-212.468M-204.515 453.833L-212.468 458.345M-212.468 458.345L-220.75 463.044M-322.687 463.044L-333.479 467.942M-322.687 463.044H-271.719M-322.687 463.044H-373.657M-271.719 463.044L-281.431 467.942M-271.719 463.044H-220.75M-220.75 463.044L-229.384 467.942M-333.479 467.942H-281.431M-333.479 467.942H-385.528M-291.564 473.052L-281.431 467.942M-291.564 473.052L-302.145 478.387M-291.564 473.052H-238.39M-281.431 467.942H-229.384M-385.528 467.942H-437.575M-385.528 467.942L-373.657 463.044M-229.384 467.942L-238.39 473.052M-373.657 463.044H-424.626M-302.145 478.387L-313.203 483.964M-302.145 478.387H-247.795M-238.39 473.052L-247.795 478.387M-247.795 478.387L-257.625 483.964M-368.781 483.964L-381.637 489.8M-368.781 483.964H-313.203M-368.781 483.964H-424.36M-313.203 483.964L-324.774 489.8M-313.203 483.964H-257.625M-257.625 483.964L-267.91 489.8M-381.637 489.8H-324.774M-381.637 489.8H-438.501M-336.893 495.911L-324.774 489.8M-336.893 495.911L-349.599 502.319M-336.893 495.911H-278.682M-324.774 489.8H-267.91M-438.501 489.8H-495.365M-438.501 489.8L-424.36 483.964M-267.91 489.8L-278.682 495.911M-424.36 483.964H-479.938M-349.599 502.319L-362.937 509.045M-349.599 502.319H-289.977M-278.682 495.911L-289.977 502.319M-289.977 502.319L-301.832 509.045M-424.041 509.045L-439.616 516.115M-424.041 509.045H-362.937M-424.041 509.045H-485.144M-362.937 509.045L-376.955 516.115M-362.937 509.045H-301.832M-301.832 509.045L-314.293 516.115M-439.616 516.115H-376.955M-439.616 516.115H-502.278M-391.706 523.554L-376.955 516.115M-391.706 523.554L-407.25 531.392M-391.706 523.554H-327.406M-376.955 516.115H-314.293M-502.278 516.115H-564.939M-502.278 516.115L-485.144 509.045M-314.293 516.115L-327.406 523.554M-485.144 509.045H-546.249M-407.25 531.392L-423.652 539.665M-407.25 531.392H-341.222M-327.406 523.554L-341.222 531.392M-341.222 531.392L-355.801 539.665M-491.502 539.665L-510.76 548.405M-491.502 539.665H-423.652M-491.502 539.665H-559.352M-423.652 539.665L-440.984 548.405M-423.652 539.665H-355.801M-355.801 539.665L-371.208 548.405M-510.76 548.405H-440.984M-510.76 548.405H-580.536M-459.33 557.657L-440.984 548.405M-459.33 557.657L-478.78 567.466M-459.33 557.657H-387.516M-440.984 548.405H-371.208M-580.536 548.405H-650.312M-580.536 548.405L-559.352 539.665M-371.208 548.405L-387.516 557.657M-559.352 539.665H-627.202M-478.78 567.466L-499.437 577.884M-478.78 567.466H-404.804M-387.516 557.657L-404.804 567.466M-404.804 567.466L-423.166 577.884M-575.707 577.884L-600.128 588.968M-575.707 577.884H-499.437M-575.707 577.884H-651.978M-499.437 577.884L-521.415 588.968M-499.437 577.884H-423.166M-423.166 577.884L-442.703 588.968M-600.128 588.968H-521.415M-600.128 588.968H-678.841M-544.85 600.785L-521.415 588.968M-544.85 600.785L-569.886 613.412M-544.85 600.785H-463.533M-521.415 588.968H-442.703M-678.841 588.968L-651.978 577.884M-678.841 588.968H-684.531M-678.841 588.968L-684.531 591.315M-442.703 588.968L-463.533 600.785M-651.978 577.884H-684.531M-569.886 613.412L-596.697 626.932M-569.886 613.412H-485.788M-463.533 600.785L-485.788 613.412M-485.788 613.412L-509.62 626.932M-683.774 626.932H-596.697M-683.774 626.932H-684.531M-683.774 626.932L-684.531 627.276M-596.697 626.932L-625.477 641.447M-596.697 626.932H-509.62M-509.62 626.932L-535.201 641.447M-656.451 657.067L-625.477 641.447M-656.451 657.067H-562.734M-656.451 657.067H-684.531M-656.451 657.067L-684.531 671.228M-625.477 641.447H-535.201M-625.477 641.447H-684.531M-535.201 641.447L-562.734 657.067M-562.734 657.067L-592.449 673.926M-592.449 673.926L-624.617 692.176M-592.449 673.926H-684.531M-624.617 692.176L-659.554 711.998M-624.617 692.176H-684.531M-659.554 711.998H-684.531M-659.554 711.998L-684.531 726.168M-425.044 430.131L-436.125 433.724M-425.044 430.131H-381.326M-425.044 430.131H-468.761M-371.396 426.664L-361.806 423.316M-371.396 426.664L-381.326 430.131M-371.396 426.664H-328.442M-361.806 423.316H-319.591M-361.806 423.316L-352.541 420.081M-394.044 420.081H-352.541M-394.044 420.081L-384.397 416.954M-394.044 420.081H-435.547M-381.326 430.131L-391.616 433.724M-381.326 430.131H-337.609M-328.442 426.664L-319.591 423.316M-328.442 426.664L-337.609 430.131M-319.591 423.316L-311.038 420.081M-352.541 420.081L-351.405 419.684L-343.583 416.954M-352.541 420.081H-311.038M-337.609 430.131L-347.108 433.724M-269.535 420.081L-261.955 416.954M-269.535 420.081H-311.038M-311.038 420.081L-309.989 419.684L-302.769 416.954M-436.125 433.724H-391.616M-436.125 433.724H-480.634M-402.286 437.449L-391.616 433.724M-402.286 437.449L-413.357 441.314M-402.286 437.449H-356.956M-391.616 433.724H-347.108M-480.634 433.724H-525.143M-480.634 433.724L-468.761 430.131M-347.108 433.724L-356.956 437.449M-468.761 430.131H-512.479M-413.357 441.314L-424.851 445.327M-413.357 441.314H-367.175M-356.956 437.449L-358.213 437.924L-367.175 441.314M-367.175 441.314L-377.785 445.327M-471.916 445.327L-484.778 449.497M-471.916 445.327H-424.851M-471.916 445.327H-518.982M-424.851 445.327L-436.794 449.497M-424.851 445.327H-377.785M-377.785 445.327L-388.809 449.497M-484.778 449.497H-436.794M-484.778 449.497H-532.762M-449.212 453.833L-436.794 449.497M-449.212 453.833L-462.135 458.345M-449.212 453.833H-400.273M-436.794 449.497H-388.809M-532.762 449.497H-580.746M-532.762 449.497L-518.982 445.327M-388.809 449.497L-400.273 453.833M-518.982 445.327H-566.047M-462.135 458.345L-475.594 463.044M-462.135 458.345H-412.202M-400.273 453.833L-412.202 458.345M-412.202 458.345L-424.626 463.044M-526.563 463.044L-541.671 467.942M-526.563 463.044H-475.594M-526.563 463.044H-577.532M-475.594 463.044L-489.623 467.942M-475.594 463.044H-424.626M-424.626 463.044L-437.575 467.942M-541.671 467.942H-489.623M-541.671 467.942H-593.719M-504.259 473.052L-489.623 467.942M-504.259 473.052L-519.542 478.387M-504.259 473.052H-451.085M-489.623 467.942H-437.575M-593.719 467.942H-645.767M-593.719 467.942L-577.532 463.044M-437.575 467.942L-451.085 473.052M-577.532 463.044H-628.5M-519.542 478.387L-535.516 483.964M-519.542 478.387H-465.193M-451.085 473.052L-465.193 478.387M-465.193 478.387L-479.938 483.964M-591.094 483.964L-609.092 489.8M-591.094 483.964H-535.516M-591.094 483.964H-646.672M-535.516 483.964L-552.229 489.8M-535.516 483.964H-479.938M-479.938 483.964L-495.365 489.8M-609.092 489.8H-552.229M-569.734 495.911L-552.229 489.8M-569.734 495.911L-588.087 502.319M-569.734 495.911H-511.523M-552.229 489.8H-495.365M-495.365 489.8L-511.523 495.911M-646.672 483.964H-684.531M-588.087 502.319L-607.353 509.045M-588.087 502.319H-528.465M-511.523 495.911L-528.465 502.319M-528.465 502.319L-546.249 509.045M-668.457 509.045H-607.353M-668.457 509.045H-684.531M-668.457 509.045L-684.531 514.256M-607.353 509.045L-627.602 516.115M-607.353 509.045H-546.249M-546.249 509.045L-564.939 516.115M-648.909 523.554L-627.602 516.115M-648.909 523.554L-671.361 531.392M-648.909 523.554H-584.608M-648.909 523.554H-684.531M-627.602 516.115H-564.939M-627.602 516.115H-684.531M-564.939 516.115L-584.608 523.554M-684.708 514.314L-684.531 514.256M-671.361 531.392H-605.333M-671.361 531.392H-684.531M-671.361 531.392L-684.531 535.991M-584.608 523.554L-605.333 531.392M-605.333 531.392L-627.202 539.665M-627.202 539.665L-650.312 548.405M-627.202 539.665H-684.531M-674.773 557.657L-650.312 548.405M-674.773 557.657H-684.531M-674.773 557.657L-684.531 561.348M-650.312 548.405H-684.531M-599.913 430.131L-614.161 433.724M-599.913 430.131H-556.196M-599.913 430.131H-643.631M-543.21 426.664L-530.67 423.316M-543.21 426.664L-556.196 430.131M-543.21 426.664H-500.256M-530.67 423.316H-488.454M-530.67 423.316L-518.554 420.081M-560.057 420.081H-518.554M-560.057 420.081L-547.654 416.954M-560.057 420.081H-601.56M-556.196 430.131L-569.652 433.724M-556.196 430.131H-512.479M-500.256 426.664L-488.454 423.316M-500.256 426.664L-512.479 430.131M-488.454 423.316L-477.051 420.081M-518.554 420.081H-477.051M-518.554 420.081L-506.839 416.954M-512.479 430.131L-525.143 433.724M-435.547 420.081L-425.211 416.954M-435.547 420.081H-477.051M-477.051 420.081L-466.025 416.954M-614.161 433.724H-569.652M-614.161 433.724H-658.67M-583.605 437.449L-569.652 433.724M-583.605 437.449L-598.081 441.314M-583.605 437.449H-538.275M-569.652 433.724H-525.143M-658.67 433.724L-643.631 430.131M-658.67 433.724H-684.531M-525.143 433.724L-538.275 437.449M-643.631 430.131H-684.531M-598.081 441.314L-613.112 445.327M-598.081 441.314H-551.9M-538.275 437.449L-551.9 441.314M-551.9 441.314L-566.047 445.327M-660.178 445.327L-676.714 449.497M-660.178 445.327H-613.112M-660.178 445.327H-684.531M-613.112 445.327L-628.73 449.497M-613.112 445.327H-566.047M-566.047 445.327L-580.746 449.497M-644.97 453.833L-628.73 449.497M-644.97 453.833L-661.869 458.345M-644.97 453.833H-596.03M-644.97 453.833H-684.531M-628.73 449.497H-676.714M-628.73 449.497H-580.746M-676.714 449.497L-684.531 451.468M-676.714 449.497H-684.531M-580.746 449.497L-596.03 453.833M-661.869 458.345L-679.469 463.044M-661.869 458.345H-611.936M-661.869 458.345H-684.531M-596.03 453.833L-611.936 458.345M-611.936 458.345L-628.5 463.044M-679.469 463.044H-628.5M-679.469 463.044L-684.531 464.395M-679.469 463.044H-684.531M-628.5 463.044L-645.767 467.942M-663.78 473.052L-645.767 467.942M-663.78 473.052L-682.59 478.387M-663.78 473.052H-684.531M-645.767 467.942H-684.531M-684.803 467.942H-684.531M-682.59 478.387H-684.531M-682.59 478.387L-684.531 478.938M-685 479.071L-684.531 478.938M-672.07 426.664L-657.318 423.316M-672.07 426.664H-684.531M-672.07 426.664L-684.531 429.492M-657.318 423.316L-643.063 420.081M-657.318 423.316H-684.531M-601.56 420.081L-588.468 416.954M-601.56 420.081H-643.063M-643.063 420.081L-629.282 416.954M-643.063 420.081H-684.531M758.397 416.954H799.211M758.397 416.954H717.583M789.213 413.928L791.682 414.676L799.211 416.954M789.213 413.928H829.361M799.211 416.954H840.025M829.361 413.928L831.994 414.676L833.319 415.051L840.025 416.954M840.025 416.954H880.839M880.839 416.954H921.654M717.583 416.954H676.769M921.654 416.954H962.468M962.468 416.954L949.803 413.928M962.468 416.954H1003.28M949.803 413.928H989.95M595.141 416.954H635.955M595.141 416.954H554.327M628.623 413.928L630.433 414.676L631.344 415.051L635.955 416.954M628.623 413.928H668.77M635.955 416.954H676.769M668.77 413.928L676.769 416.954M554.327 416.954H513.513M431.885 416.954H472.699M431.885 416.954H391.071M468.032 413.928L468.608 414.301L469.184 414.676L469.764 415.051L472.699 416.954M468.032 413.928H508.18M472.699 416.954H513.513M508.18 413.928L513.513 416.954M391.071 416.954H350.256M268.628 416.954H309.442M268.628 416.954H227.814M307.443 413.928L309.442 416.954M307.443 413.928H347.59M309.442 416.954H350.256M347.59 413.928L347.919 414.301L348.249 414.676L348.58 415.051L350.256 416.954M227.814 416.954H187M105.372 416.954H146.186M105.372 416.954H64.5582M146.852 413.928L146.186 416.954M146.852 413.928H187M146.186 416.954H187M187 413.928V416.954M64.5582 416.954H23.7433M-57.8846 416.954H-17.0707M-57.8846 416.954H-98.6986M-13.738 413.928L-14.5605 414.676L-16.2273 416.188L-17.0707 416.954M-13.738 413.928H26.4096M-17.0707 416.954H23.7433M26.4096 413.928L26.0809 414.301L25.7514 414.676L25.4201 415.051L23.7433 416.954M-98.6986 416.954H-139.513M-221.141 416.954H-180.327M-221.141 416.954H-261.955M-174.328 413.928L-175.809 414.676L-176.554 415.051L-180.327 416.954M-174.328 413.928H-134.18M-180.327 416.954H-139.513M-134.18 413.928L-134.837 414.301L-139.513 416.954M-261.955 416.954H-302.769M-384.397 416.954H-343.583M-384.397 416.954H-425.211M-334.918 413.928L-337.058 414.676L-338.134 415.051L-343.583 416.954M-334.918 413.928H-294.77M-343.583 416.954H-302.769M-294.77 413.928L-295.756 414.301L-302.769 416.954M-425.211 416.954H-466.025M-547.654 416.954H-506.839M-547.654 416.954H-588.468M-495.508 413.928L-506.839 416.954M-495.508 413.928H-455.361M-506.839 416.954H-466.025M-455.361 413.928L-457.993 414.676L-459.319 415.051L-466.025 416.954M-588.468 416.954H-629.282M-656.098 413.928L-670.096 416.954M-656.098 413.928H-615.95M-656.098 413.928H-684.531M-670.096 416.954H-629.282M-670.096 416.954L-684.531 420.074M-670.096 416.954H-684.531M-615.95 413.928L-619.242 414.676L-629.282 416.954M989.95 413.928L993.242 414.676L1003.28 416.954M1003.28 416.954H1044.1M1044.1 416.954L1058.53 420.074M1044.1 416.954H1058.53M1058.53 561.348V557.657M1058.53 561.348V567.466M1058.53 557.657V548.405M1058.53 567.466V569.294V577.884M1058.53 577.884V588.968M1058.53 489.8V483.964M1058.53 489.8V495.42M1058.53 413.928V416.954M1058.53 416.954V420.074M1058.53 420.074L1058.57 420.081H1058.53M1058.53 420.074V420.081M1058.53 420.081V423.316M1058.53 423.316V426.664M1058.53 426.664V429.492M1058.53 429.492V430.131M1058.53 430.131V433.724M1058.53 433.724V437.449M1058.53 437.449V439.901M1058.53 439.901V441.314M1058.53 441.314V445.327M1058.53 445.327V449.497M1058.53 449.497V451.468M1058.53 451.468V453.833M1058.53 453.833V458.345M1058.53 458.345V463.044M1058.53 463.044V464.395M1058.53 464.395V467.942M1058.53 467.942V473.052M1058.53 473.052V478.387M1058.53 478.387V478.938M1058.53 478.938V483.964M1058.53 495.911V502.319M1058.53 495.911V495.42M1058.53 502.319V509.045M1058.53 509.045V514.256M1058.53 514.256V516.115M1058.53 516.115V523.554M1058.53 523.554V531.392M1058.53 531.392V535.991M1058.53 535.991V539.665M1058.53 539.665V548.405M1058.53 588.968V591.315M1058.53 591.315V600.785M1058.53 600.785V613.412M1058.53 613.412V626.932M1058.53 626.932V627.276M1058.53 627.276V641.447M1058.53 641.447V657.067M1058.53 657.067V671.228M1058.53 671.228V673.926M1058.53 673.926V692.176M1058.53 692.176V711.998M1058.53 711.998V726.168M1058.53 726.168V733.602M1058.53 733.602V757.242M1058.53 757.242V783.219M1058.53 783.219V796.805M1058.53 796.805V811.898M1058.53 811.898V812H-684.531V811.898M-684.531 495.911V502.319M-684.531 495.911V495.42M-684.531 495.42V489.8M-684.531 489.8V483.964M-684.531 483.964V478.938M-684.531 478.938V478.387M-684.531 478.387V473.052M-684.531 473.052V467.942M-684.531 467.942V464.395M-684.531 464.395V463.044M-684.531 463.044V458.345M-684.531 458.345V453.833M-684.531 453.833V451.468M-684.531 451.468V449.497M-684.531 449.497V445.327M-684.531 445.327V441.314M-684.531 441.314V439.901M-684.531 439.901V437.449M-684.531 437.449V433.724M-684.531 433.724V430.131M-684.531 430.131V429.492M-684.531 429.492V426.664M-684.531 426.664V423.316M-684.531 423.316V420.081M-684.531 420.081H-684.566L-684.531 420.074M-684.531 420.081V420.074M-684.531 420.074V416.954M-684.531 416.954V413.928M-684.531 811.898V796.805M-684.531 796.805V783.219M-684.531 783.219V757.243M-684.531 757.243V733.602M-684.531 733.602V726.168M-684.531 726.168V711.998M-684.531 711.998V692.176M-684.531 692.176V673.926M-684.531 673.926V671.228M-684.531 671.228V657.067M-684.531 657.067V641.447M-684.531 641.447V627.276M-684.531 627.276V626.932M-684.531 626.932V613.412M-684.531 613.412V600.785M-684.531 600.785V591.315M-684.531 591.315V588.968M-684.531 588.968V577.884M-684.531 577.884V567.466M-684.531 567.466V561.348M-684.531 561.348V557.657M-684.531 557.657V548.405M-684.531 548.405V539.665M-684.531 539.665V535.991M-684.531 535.991V531.392M-684.531 531.392V523.554M-684.531 523.554V516.115M-684.531 516.115V514.256M-684.531 514.256V509.045M-684.531 509.045V502.319" stroke="url(#paint1_radial_59_225)" stroke-opacity="0.6" stroke-width="2" stroke-miterlimit="10" stroke-linecap="round" stroke-linejoin="round"/>
</g>
<defs>
<linearGradient id="paint0_linear_59_225" x1="187.402" y1="884.783" x2="188.625" y2="-747.371" gradientUnits="userSpaceOnUse">
<stop stop-color="#27187E"/>
<stop offset="1" stop-color="#C4BAFF" stop-opacity="0.1"/>
</linearGradient>
<radialGradient id="paint1_radial_59_225" cx="0" cy="0" r="1" gradientUnits="userSpaceOnUse" gradientTransform="translate(187 797.22) rotate(-90) scale(627.713 2730)">
<stop stop-color="white"/>
<stop offset="0.489074" stop-color="white" stop-opacity="0"/>
</radialGradient>
<clipPath id="clip0_59_225">
<rect width="375" height="812" fill="white"/>
</clipPath>
</defs>
</svg>
