<svg xmlns="http://www.w3.org/2000/svg" width="32" height="32" viewBox="0 0 32 32" fill="none">
    <path d="M13.6802 2.55734C13.4948 2.432 11.8055 1.33334 9.73351 1.33334C7.66151 1.33334 5.97485 2.43067 5.78951 2.556C5.62283 2.66805 5.48362 2.8163 5.38226 2.98969C5.28091 3.16308 5.22003 3.35712 5.20418 3.55734C5.20018 3.61067 4.78418 8.99734 4.78418 15.9987C4.78418 23.0587 5.20018 28.388 5.20418 28.4413C5.22007 28.6412 5.28084 28.8349 5.38195 29.008C5.48306 29.1812 5.62191 29.3293 5.78818 29.4413C5.97351 29.5667 7.66285 30.6653 9.73351 30.6653C11.8042 30.6653 13.4922 29.568 13.6788 29.4427C13.8455 29.3306 13.9847 29.1824 14.0861 29.009C14.1875 28.8356 14.2483 28.6415 14.2642 28.4413C14.2682 28.388 14.6842 23.0013 14.6842 16C14.6842 8.94 14.2682 3.61067 14.2642 3.55734C14.2483 3.35747 14.1875 3.16376 14.0864 2.99062C13.9853 2.81749 13.8464 2.66938 13.6802 2.55734ZM26.7962 3.55734C26.7803 3.35747 26.7195 3.16376 26.6184 2.99062C26.5173 2.81749 26.3784 2.66938 26.2122 2.55734C26.0268 2.432 24.3375 1.33334 22.2668 1.33334C20.1962 1.33334 18.5082 2.43067 18.3215 2.556C18.1548 2.66805 18.0156 2.8163 17.9143 2.98969C17.8129 3.16308 17.752 3.35712 17.7362 3.55734C17.7322 3.61067 17.3162 8.99734 17.3162 15.9987C17.3162 23.0587 17.7322 28.388 17.7362 28.4413C17.7521 28.6412 17.8128 28.8349 17.9139 29.008C18.0151 29.1812 18.1539 29.3293 18.3202 29.4413C18.5055 29.5667 20.1948 30.6653 22.2668 30.6653C24.3388 30.6653 26.0255 29.568 26.2108 29.4427C26.3775 29.3306 26.5167 29.1824 26.6181 29.009C26.7195 28.8356 26.7803 28.6415 26.7962 28.4413C26.8002 28.388 27.2162 23.0013 27.2162 16C27.2162 8.94 26.8002 3.61067 26.7962 3.55734Z" fill="#27187E" />
</svg>