<svg xmlns="http://www.w3.org/2000/svg" width="32" height="32" viewBox="0 0 32 32" fill="none">
    <g clip-path="url(#clip0_78_349)">
        <path d="M16 0C7.17733 0 0 7.17733 0 16C0 24.8227 7.17733 32 16 32C24.8227 32 32 24.8227 32 16C32 7.17733 24.8227 0 16 0ZM16 29.3333C8.648 29.3333 2.66667 23.352 2.66667 16C2.66667 8.648 8.648 2.66667 16 2.66667C23.352 2.66667 29.3333 8.648 29.3333 16C29.3333 23.352 23.352 29.3333 16 29.3333ZM10.6667 23.5293L24.0533 16L10.6667 8.47067V23.5307V23.5293ZM13.3333 13.0293L18.6133 16L13.3333 18.9707V13.0293Z" fill="#27187E" />
    </g>
    <defs>
        <clipPath id="clip0_78_349">
            <rect width="32" height="32" fill="white" />
        </clipPath>
    </defs>
</svg>